<svg xmlns="http://www.w3.org/2000/svg" xmlns:xlink="http://www.w3.org/1999/xlink" width="293" height="180" viewBox="0 0 293 180">
  <defs>
    <clipPath id="clip-_600_x_300">
      <rect width="293" height="180"/>
    </clipPath>
  </defs>
  <g id="_600_x_300" data-name="600 x 300" clip-path="url(#clip-_600_x_300)">
    <rect width="293" height="180" fill="#fff"/>
    <g id="_1554564806" data-name="1554564806" transform="translate(0.319 0.274)">
      <rect id="rect5359" width="361.734" height="180.867" transform="translate(0)" fill="#9be2e5"/>
      <g id="g4092" transform="translate(229.622 10.108)">
        <path id="use4032" d="M17.044-76C.216-76.253-14.337-59.9-12.512-43.22c1.535,15.545,17.152,28.128,32.724,26.05,13-1.372,24.709-12.067,26.055-25.264C48.087-56.161,39.2-70.478,25.954-74.642A25.643,25.643,0,0,0,17.044-76Z" transform="translate(12.667 76.011)" fill="rgba(255,252,238,0.12)"/>
        <path id="use4004" d="M62.506-19.584C49.937-19.158,40.69-4.541,45.232,7.089c3.013,8.689,12.888,13.782,21.845,12.233,7.513-1.058,14.276-6.765,15.8-14.345C85.4-5.5,78.282-17.6,67.434-19.311A26.327,26.327,0,0,0,62.506-19.584Z" transform="translate(-34.882 30.224)" fill="rgba(255,245,205,0.17)"/>
        <path id="use3778" d="M92.891,16.7c-9.116-.034-15.617,11.12-11.113,19.113,3.608,7.558,14.964,9.595,20.877,3.484,6.278-5.788,4.748-17.556-3.083-21.121A13.282,13.282,0,0,0,92.891,16.7Z" transform="translate(-64.878 0.777)" fill="#ffe580"/>
        <path id="path5357" d="M96.476,21.171c-10.124-.257-15.724,14.53-7.9,20.966,5.884,5.736,17.8,3.57,20.008-4.838C111.173,29.592,105.055,20.3,96.476,21.171Z" transform="translate(-68.346 -2.816)" fill="#ffee81"/>
      </g>
      <g id="g4150" transform="translate(15.479 70.47)">
        <path id="path5345" d="M235.6,180.183s50.174-41.314,54.2-44.166,3.356-4.282,12.082,3.121c8.39,7.417,59.739,53.6,59.739,53.6Z" transform="translate(-88.536 -96.81)" fill="#80a4a4"/>
        <path id="path5347" d="M292.3,133.723c-1.307.1-2.288,1.033-3.922,2.242-3.922,2.778-52.781,43.009-52.781,43.009l56.7,5.654v-50.9Z" transform="translate(-88.57 -96.823)" fill="#628989"/>
        <path id="path5349" d="M384.892,133.712c-1.152.086-2.016.91-3.456,1.976-.576.49-3.168,2.419-6.336,5.069a5.5,5.5,0,0,0,.288,2.39c.864,1.181,4.9-1.094,4.9-1.094s.576,3.053,4.608,3.053c3.168,0,3.456-3.917,3.456-3.917s5.472,3.542,7.2,1.7c.288-.23.288-.547.288-.95a51.291,51.291,0,0,1-4.032-3.571C387.772,134.795,386.044,133.626,384.892,133.712Z" transform="translate(-179.908 -98.425)" fill="#e7e7e7"/>
        <path id="path5351" d="M385.068,133.723c-1.173.086-2.052.91-3.518,1.976-.586.49-3.225,2.42-6.45,5.071a5.412,5.412,0,0,0,.293,2.391c.879,1.181,4.984-1.095,4.984-1.095s.586,3.054,4.691,3.054h.293v-11.4Z" transform="translate(-180.905 -98.441)" fill="#e7e7e7"/>
        <path id="path4811" d="M49.66.008c-1.029.114-1.837,1.466-3.405,3.206-3.43,3.8-42.775,55.561-46.254,60v1.709L110.638,82.246S64.825,17.908,57.009,7.581C52.7,1.77,50.983-.137,49.66.008Z" transform="matrix(0.995, -0.105, 0.105, 0.995, 31.865, 11.565)" fill="#87a9a9"/>
        <path id="path5328" d="M100.836,102.953c-1.663.129-2.931,1.656-5.466,3.62-5.307,4.122-65.35,57.3-75.37,66.182v3.689l81.153,8.751V102.953Z" transform="translate(-20 -97.392)" fill="#628989"/>
        <path id="path5335" d="M10.977.007C9.863.115,9.015,1.392,7.318,3.036c-.8.764-3.527,3.707-7.265,7.8A7.462,7.462,0,0,0,.4,14.481c1.034,1.794,5.542-1.687,5.542-1.687S6.5,17.46,11.216,17.46c3.58,0,3.739-5.979,3.739-5.979s6.523,5.441,8.22,2.606a1.415,1.415,0,0,0,.265-1.471c-1.883-2.372-3.5-4.3-4.481-5.451C14.291,1.672,12.409-.129,10.977.007Z" transform="translate(69.829 3.678) rotate(3)" fill="#f2f2f2"/>
        <path id="path5340" d="M12.615,0c-1.28.107-2.255,1.381-4.205,3.021C7.5,3.783,4.357,6.717.06,10.794a6.524,6.524,0,0,0,.4,3.64c1.188,1.789,6.369-1.682,6.369-1.682s.64,4.652,6.064,4.652h.03V0Z" transform="translate(68.162 4.272)" fill="#e7e7e7"/>
      </g>
      <path id="rect5363" d="M361.734,219.083c-3.511.326-7.023.746-11.119,1.305-19.313,2.8-78.421,15.76-118.217,18.091-39.211,2.285-110.844-13.428-145.138-14.361C52.911,223.186.585,230.133.585,230.133l-.585.42v32.405H361.734Z" transform="translate(0 -82.143)" fill="#96cb78"/>
      <path id="use3927" d="M0,281.807c3.511.27,7.023.616,11.119,1.078,19.313,2.31,78.422,13.015,118.217,14.94,39.211,1.887,110.844-11.09,145.138-11.86,34.347-.77,86.673,4.967,86.673,4.967l.585.347v26.761H0Z" transform="translate(0 -137.225)" fill="#77b155"/>
    </g>
    <path id="use3927-2" data-name="use3927" d="M0,281.807c3.511.27,7.023.616,11.119,1.078,19.313,2.31,78.422,13.015,118.217,14.94,39.211,1.887,110.844-11.09,145.138-11.86,34.347-.77,86.673,4.967,86.673,4.967l.585.347v26.761H0Z" transform="translate(0 -136.951)" fill="#77b155"/>
    <g id="bus-svgrepo-com" transform="translate(74.527 124.565)">
      <g id="Grupo_3" data-name="Grupo 3" transform="translate(21.177 47.655)">
        <g id="Grupo_2" data-name="Grupo 2" transform="translate(59.724)">
          <line id="Línea_2" data-name="Línea 2" y2="4.568" transform="translate(2.35 2.139)" fill="#387f9e"/>
          <path id="Trazado_2" data-name="Trazado 2" d="M279.044,253.384a2.252,2.252,0,0,1-2.35-2.139v-4.568a2.36,2.36,0,0,1,4.7,0v4.568A2.252,2.252,0,0,1,279.044,253.384Z" transform="translate(-276.694 -244.538)" fill="#387f9e"/>
        </g>
        <g id="Grupo_17" data-name="Grupo 17" transform="translate(0)">
          <line id="Línea_2-2" data-name="Línea 2" y2="4.568" transform="translate(2.35 2.139)" fill="#387f9e"/>
          <path id="Trazado_2-2" data-name="Trazado 2" d="M279.044,253.384a2.252,2.252,0,0,1-2.35-2.139v-4.568a2.36,2.36,0,0,1,4.7,0v4.568A2.252,2.252,0,0,1,279.044,253.384Z" transform="translate(-276.694 -244.538)" fill="#387f9e"/>
        </g>
      </g>
      <path id="Trazado_3" data-name="Trazado 3" d="M35.029,112.112c-1.172,0-2.121-1.427-2.121-3.188V64.444c0-1.76.95-3.188,2.121-3.188s2.121,1.427,2.121,3.188v44.48C37.151,110.684,36.2,112.112,35.029,112.112Z" transform="translate(-28.254 -56.885)" fill="#83cfe0"/>
      <path id="Trazado_4" data-name="Trazado 4" d="M35.029,112.112c-1.172,0-2.121-1.427-2.121-3.188V64.444c0-1.76.95-3.188,2.121-3.188Z" transform="translate(-28.254 -56.885)" fill="#649aa6"/>
      <path id="Trazado_5" data-name="Trazado 5" d="M182.3,231.1H113.578c-1.512,0-2.738-.511-2.738-1.141v-3.082c0-.63,1.226-1.141,2.738-1.141H182.3c1.512,0,2.738.511,2.738,1.141v3.082C185.042,230.586,183.816,231.1,182.3,231.1Z" transform="translate(-93.542 -180.76)" fill="#f79f4b"/>
      <path id="Trazado_6" data-name="Trazado 6" d="M133.388,231.09H112.5c-.919,0-1.664-.51-1.664-1.139v-3.078c0-.629.745-1.139,1.664-1.139h20.884Z" transform="translate(-94.107 -180.76)" fill="#ca8540"/>
      <path id="Trazado_26" data-name="Trazado 26" d="M35.029,112.112c-1.172,0-2.121-1.427-2.121-3.188V64.444c0-1.76.95-3.188,2.121-3.188s2.121,1.427,2.121,3.188v44.48C37.151,110.684,36.2,112.112,35.029,112.112Z" transform="translate(65.571 -56.885)" fill="#83cfe0"/>
      <path id="Trazado_27" data-name="Trazado 27" d="M35.029,112.112c-1.172,0-2.121-1.427-2.121-3.188V64.444c0-1.76.95-3.188,2.121-3.188Z" transform="translate(65.571 -56.885)" fill="#649aa6"/>
      <path id="Trazado_7" data-name="Trazado 7" d="M120.694,50.875v.363H15c0-5.827,7.337-10.551,16.388-10.551h72.917C113.357,40.688,120.694,45.048,120.694,50.875Z" transform="translate(-11.812 -40.688)" fill="#858ea4"/>
      <path id="Trazado_8" data-name="Trazado 8" d="M67.941,51.239H15c0-5.827,7.35-10.551,16.418-10.551H67.941V51.239Z" transform="translate(-13.508 -40.688)" fill="#707789"/>
      <path id="Trazado_9" data-name="Trazado 9" d="M11.43,280.85H2.121a2.141,2.141,0,0,1,0-4.282H11.43a2.141,2.141,0,0,1,0,4.282Z" transform="translate(0 -224.348)" fill="#29556e"/>
      <path id="Trazado_28" data-name="Trazado 28" d="M11.43,280.85H2.121a2.141,2.141,0,0,1,0-4.282H11.43a2.141,2.141,0,0,1,0,4.282Z" transform="translate(93.825 -224.348)" fill="#29556e"/>
    </g>
    <g id="lamppost-svgrepo-com" transform="translate(28.072 107.235)">
      <path id="Trazado_10" data-name="Trazado 10" d="M184.494,156.4a2.826,2.826,0,0,1-2.826-2.826V107.7a2.826,2.826,0,1,1,5.652,0v45.876A2.826,2.826,0,0,1,184.494,156.4Z" transform="translate(-174.038 -85.114)" fill="#858ea4"/>
      <path id="Trazado_11" data-name="Trazado 11" d="M184.494,156.4a2.826,2.826,0,0,1-2.826-2.826V107.7a2.826,2.826,0,0,1,2.826-2.826Z" transform="translate(-174.038 -85.114)" fill="#707789"/>
      <path id="Trazado_12" data-name="Trazado 12" d="M164.11,23.344H153.559L150.168,7.725,158.835,0,167.5,7.725Z" transform="translate(-148.472)" fill="#5cbbcf"/>
      <path id="Trazado_13" data-name="Trazado 13" d="M158.835,23.344h-5.275L150.168,7.725,158.835,0Z" transform="translate(-148.472)" fill="#4f9eae"/>
      <g id="Grupo_6" data-name="Grupo 6" transform="translate(1.696 7.725)">
        <g id="Grupo_5" data-name="Grupo 5">
          <g id="Grupo_4" data-name="Grupo 4">
            <path id="Trazado_14" data-name="Trazado 14" d="M150.168,41l.532,2.449h16.27L167.5,41Z" transform="translate(-150.168 -41)" fill="#13324c"/>
          </g>
        </g>
      </g>
      <g id="Grupo_9" data-name="Grupo 9" transform="translate(1.696 7.725)">
        <g id="Grupo_8" data-name="Grupo 8">
          <g id="Grupo_7" data-name="Grupo 7">
            <path id="Trazado_15" data-name="Trazado 15" d="M150.168,41l.532,2.449h8.135V41Z" transform="translate(-150.168 -41)" fill="#29556e"/>
          </g>
        </g>
      </g>
      <g id="Grupo_10" data-name="Grupo 10" transform="translate(0 68.265)">
        <path id="Trazado_16" data-name="Trazado 16" d="M159.066,367.988H143.994a2.826,2.826,0,1,1,0-5.652h15.072a2.826,2.826,0,0,1,0,5.652Z" transform="translate(-141.168 -362.336)" fill="#387f9e"/>
        <path id="Trazado_17" data-name="Trazado 17" d="M151.624,367.988h-7.63a2.826,2.826,0,1,1,0-5.652h7.652Z" transform="translate(-141.168 -362.336)" fill="#29556e"/>
      </g>
    </g>
    <g id="bench-svgrepo-com" transform="translate(219.866 157.689)">
      <g id="Grupo_13" data-name="Grupo 13" transform="translate(0.732 14.929)">
        <g id="Grupo_12" data-name="Grupo 12">
          <g id="Grupo_11" data-name="Grupo 11">
            <path id="Trazado_18" data-name="Trazado 18" d="M7.974,192.011A1.771,1.771,0,0,1,6.2,190.24v-4.932a1.771,1.771,0,1,1,3.542,0v4.932A1.771,1.771,0,0,1,7.974,192.011Z" transform="translate(-6.203 -183.537)" fill="#29556e"/>
          </g>
          <path id="Trazado_19" data-name="Trazado 19" d="M277.974,192.011a1.771,1.771,0,0,1-1.771-1.771v-4.932a1.771,1.771,0,1,1,3.542,0v4.932A1.771,1.771,0,0,1,277.974,192.011Z" transform="translate(-244.324 -183.537)" fill="#387f9e"/>
        </g>
      </g>
      <g id="Grupo_16" data-name="Grupo 16" transform="translate(3.921 5.024)">
        <g id="Grupo_15" data-name="Grupo 15">
          <g id="Grupo_14" data-name="Grupo 14">
            <path id="Trazado_20" data-name="Trazado 20" d="M34.979,110.206a1.771,1.771,0,0,1-1.771-1.771v-7.02a1.771,1.771,0,1,1,3.542,0v7.02A1.771,1.771,0,0,1,34.979,110.206Z" transform="translate(-33.208 -99.644)" fill="#29556e"/>
          </g>
          <path id="Trazado_21" data-name="Trazado 21" d="M250.969,110.206a1.771,1.771,0,0,1-1.771-1.771v-7.02a1.771,1.771,0,1,1,3.542,0v7.02A1.771,1.771,0,0,1,250.969,110.206Z" transform="translate(-223.696 -99.644)" fill="#387f9e"/>
        </g>
      </g>
      <path id="Trazado_22" data-name="Trazado 22" d="M35.941,64.947h-35A.945.945,0,0,1,0,64V58.039a.945.945,0,0,1,.945-.945h35a.945.945,0,0,1,.945.945V64A.945.945,0,0,1,35.941,64.947Z" transform="translate(0 -57.094)" fill="#f79f4b"/>
      <path id="Trazado_23" data-name="Trazado 23" d="M18.443,64.947H.945A.945.945,0,0,1,0,64V58.039a.945.945,0,0,1,.945-.945h17.5Z" transform="translate(0 -57.094)" fill="#ca8540"/>
      <path id="Trazado_24" data-name="Trazado 24" d="M35.941,168.05h-35A.945.945,0,0,1,0,167.106v-3.867a.945.945,0,0,1,.945-.945h35a.945.945,0,0,1,.945.945v3.867A.945.945,0,0,1,35.941,168.05Z" transform="translate(0 -149.873)" fill="#f79f4b"/>
      <path id="Trazado_25" data-name="Trazado 25" d="M18.443,168.05H.945A.945.945,0,0,1,0,167.106v-3.867a.945.945,0,0,1,.945-.945h17.5Z" transform="translate(0 -149.873)" fill="#ca8540"/>
    </g>
    <g id="bench-svgrepo-com-2" data-name="bench-svgrepo-com" transform="translate(292.401 157.689)">
      <g id="Grupo_13-2" data-name="Grupo 13" transform="translate(0.732 14.929)">
        <g id="Grupo_12-2" data-name="Grupo 12">
          <g id="Grupo_11-2" data-name="Grupo 11">
            <path id="Trazado_18-2" data-name="Trazado 18" d="M7.974,192.011A1.771,1.771,0,0,1,6.2,190.24v-4.932a1.771,1.771,0,1,1,3.542,0v4.932A1.771,1.771,0,0,1,7.974,192.011Z" transform="translate(-6.203 -183.537)" fill="#29556e"/>
          </g>
          <path id="Trazado_19-2" data-name="Trazado 19" d="M277.974,192.011a1.771,1.771,0,0,1-1.771-1.771v-4.932a1.771,1.771,0,1,1,3.542,0v4.932A1.771,1.771,0,0,1,277.974,192.011Z" transform="translate(-244.324 -183.537)" fill="#387f9e"/>
        </g>
      </g>
      <g id="Grupo_16-2" data-name="Grupo 16" transform="translate(3.921 5.024)">
        <g id="Grupo_15-2" data-name="Grupo 15">
          <g id="Grupo_14-2" data-name="Grupo 14">
            <path id="Trazado_20-2" data-name="Trazado 20" d="M34.979,110.206a1.771,1.771,0,0,1-1.771-1.771v-7.02a1.771,1.771,0,1,1,3.542,0v7.02A1.771,1.771,0,0,1,34.979,110.206Z" transform="translate(-33.208 -99.644)" fill="#29556e"/>
          </g>
          <path id="Trazado_21-2" data-name="Trazado 21" d="M250.969,110.206a1.771,1.771,0,0,1-1.771-1.771v-7.02a1.771,1.771,0,1,1,3.542,0v7.02A1.771,1.771,0,0,1,250.969,110.206Z" transform="translate(-223.696 -99.644)" fill="#387f9e"/>
        </g>
      </g>
      <path id="Trazado_22-2" data-name="Trazado 22" d="M35.941,64.947h-35A.945.945,0,0,1,0,64V58.039a.945.945,0,0,1,.945-.945h35a.945.945,0,0,1,.945.945V64A.945.945,0,0,1,35.941,64.947Z" transform="translate(0 -57.094)" fill="#f79f4b"/>
      <path id="Trazado_23-2" data-name="Trazado 23" d="M18.443,64.947H.945A.945.945,0,0,1,0,64V58.039a.945.945,0,0,1,.945-.945h17.5Z" transform="translate(0 -57.094)" fill="#ca8540"/>
      <path id="Trazado_24-2" data-name="Trazado 24" d="M35.941,168.05h-35A.945.945,0,0,1,0,167.106v-3.867a.945.945,0,0,1,.945-.945h35a.945.945,0,0,1,.945.945v3.867A.945.945,0,0,1,35.941,168.05Z" transform="translate(0 -149.873)" fill="#f79f4b"/>
      <path id="Trazado_25-2" data-name="Trazado 25" d="M18.443,168.05H.945A.945.945,0,0,1,0,167.106v-3.867a.945.945,0,0,1,.945-.945h17.5Z" transform="translate(0 -149.873)" fill="#ca8540"/>
    </g>
    <g id="bus-stop-svgrepo-com" transform="translate(185.389 141.127)">
      <g id="Grupo_18" data-name="Grupo 18" transform="translate(5.512 6.201)">
        <path id="Trazado_29" data-name="Trazado 29" d="M176.96,81.825h-4.134a.689.689,0,1,1,0-1.378h4.134a.689.689,0,0,1,0,1.378" transform="translate(-172.137 -80.447)" fill="#bdc3c7"/>
        <path id="Trazado_30" data-name="Trazado 30" d="M176.96,240.722h-4.134a.689.689,0,1,1,0-1.378h4.134a.689.689,0,0,1,0,1.378" transform="translate(-172.137 -226.942)" fill="#bdc3c7"/>
      </g>
      <path id="Trazado_31" data-name="Trazado 31" d="M111.163,480.446h-9.646a2.756,2.756,0,0,1,2.756-2.756h4.134a2.756,2.756,0,0,1,2.756,2.756" transform="translate(-101.517 -440.484)" fill="#2f3744"/>
      <path id="Trazado_32" data-name="Trazado 32" d="M145.655,2.378V38.206h2.756V2.378a1.378,1.378,0,0,0-2.756,0" transform="translate(-142.21 -1)" fill="#464f5d"/>
      <path id="Trazado_33" data-name="Trazado 33" d="M233.931,49.528h13.78V27.48h-13.78Z" transform="translate(-223.596 -25.413)" fill="#f3d55b"/>
      <g id="Grupo_19" data-name="Grupo 19" transform="translate(12.402 4.823)">
        <path id="Trazado_34" data-name="Trazado 34" d="M269.93,88.716a.689.689,0,0,1-.689-.689v-6.89a.689.689,0,0,1,1.378,0v6.89a.689.689,0,0,1-.689.689" transform="translate(-268.552 -79.07)" fill="#c4ac49"/>
        <path id="Trazado_35" data-name="Trazado 35" d="M358.206,88.716a.689.689,0,0,1-.689-.689v-6.89a.689.689,0,0,1,1.378,0v6.89a.689.689,0,0,1-.689.689" transform="translate(-349.938 -79.07)" fill="#c4ac49"/>
        <path id="Trazado_36" data-name="Trazado 36" d="M284.269,205.412h-5.512a.689.689,0,0,1,0-1.378h5.512a.689.689,0,0,1,0,1.378" transform="translate(-276.69 -193.01)" fill="#c4ac49"/>
        <path id="Trazado_37" data-name="Trazado 37" d="M269.37,249.55H261.1a.689.689,0,0,1,0-1.378h8.268a.689.689,0,1,1,0,1.378" transform="translate(-260.413 -233.703)" fill="#c4ac49"/>
        <path id="Trazado_38" data-name="Trazado 38" d="M270.619,68.3h5.512V64.168h-5.512Zm6.2,1.378h-6.89a.688.688,0,0,1-.689-.689V63.479a.689.689,0,0,1,.689-.689h6.89a.689.689,0,0,1,.689.689v5.512a.688.688,0,0,1-.689.689Z" transform="translate(-268.552 -62.79)" fill="#c4ac49"/>
        <path id="Trazado_39" data-name="Trazado 39" d="M314.068,69.683a.689.689,0,0,1-.689-.689V63.482a.689.689,0,0,1,1.378,0v5.512a.689.689,0,0,1-.689.689" transform="translate(-309.245 -62.793)" fill="#c4ac49"/>
      </g>
    </g>
  </g>
</svg>
