<svg xmlns="http://www.w3.org/2000/svg" width="2134.484" height="1143.188" viewBox="0 0 2134.484 1143.188">
  <g id="layer1" transform="translate(6.093 847.717)">
    <path id="path2728" d="M1174.77-834.163c-589.417,0-1067.23,432.143-1067.24,965.219a875.389,875.389,0,0,0,15.3,162.314H2225.66a875.733,875.733,0,0,0,16.353-162.312c0-533.077-477.819-965.221-1067.24-965.221Z" transform="translate(-113.623 -13.554)" fill="#040348"/>
    <path id="path2726" d="M1246.79-531.789,1016.98-599.47V266.851h229.81Z" fill="#f2f2f2" opacity="0.31"/>
    <g id="g2724" transform="translate(1461.344 298.998)" opacity="0.43">
      <rect id="rect2698" width="7.058" height="363.411" transform="translate(45.657 -1146.715)" fill="#ececec"/>
      <rect id="rect2700" width="43.132" height="120.641" transform="translate(27.62 -903.944)" fill="#ececec"/>
      <rect id="rect2702" width="43.132" height="80.427" transform="translate(27.62 -871.923)" fill="#ececec"/>
      <rect id="rect2704" width="65.091" height="120.641" transform="translate(16.641 -853.305)" fill="#ececec"/>
      <rect id="rect2706" width="65.091" height="85.64" transform="translate(16.641 -818.304)" fill="#ececec"/>
      <rect id="rect2708" width="85.481" height="120.641" transform="translate(6.446 -804.155)" fill="#ececec"/>
      <rect id="rect2710" width="85.481" height="46.171" transform="translate(6.446 -729.686)" fill="#ececec"/>
      <rect id="rect2712" width="108.223" height="700.013" transform="translate(-4.925 -716.281)" fill="#ececec"/>
      <g id="g2722" transform="translate(2.745 756.699)">
        <rect id="rect2714" width="10.979" height="604.692" rx="5.49" transform="translate(7.622 -1449.149)" fill="#ececec"/>
        <rect id="rect2716" width="10.979" height="604.692" rx="5.49" transform="translate(29.842 -1449.149)" fill="#ececec"/>
        <rect id="rect2718" width="10.979" height="604.692" rx="5.49" transform="translate(52.062 -1449.149)" fill="#ececec"/>
        <rect id="rect2720" width="10.979" height="604.692" rx="5.49" transform="translate(74.282 -1449.149)" fill="#ececec"/>
      </g>
    </g>
    <g id="g2696" transform="translate(922.58 -409.52)" opacity="0.633">
      <rect id="rect2690" width="121.496" height="770.964" transform="translate(-488.711 -87.035)" fill="#f0ebe8"/>
      <rect id="rect2692" width="140.607" height="19.318" transform="translate(-498.266 -102.84)" fill="#f0ebe8"/>
      <rect id="rect2694" width="79.177" height="28.099" transform="translate(-467.551 -120.403)" fill="#f0ebe8"/>
    </g>
    <g id="g2688" transform="translate(1151.49 -314.387)" opacity="0.59">
      <rect id="rect2631" width="134.56" height="663.726" transform="translate(-541.262 -74.929)" fill="#c8beb7"/>
      <rect id="rect2663" width="155.726" height="16.631" transform="translate(-551.845 -88.536)" fill="#c8beb7"/>
      <rect id="rect2665" width="87.69" height="24.191" transform="translate(-517.827 -103.655)" fill="#c8beb7"/>
    </g>
    <path id="path2683" d="M1763.86-397.986l-145.143-56.342V266.851H1763.86Z" fill="#f1ece9" opacity="0.47"/>
    <path id="rect2677" d="M1295.17-625.173l145.143-75.6V266.851H1295.17Z" fill="#f1ece9" opacity="0.28"/>
    <path id="rect2675" d="M770.538-455.84l86.179,57.452V266.85H770.538Z" fill="#f1ece9" opacity="0.63"/>
    <rect id="rect2673" width="110.369" height="517.071" transform="translate(758.443 -250.221)" fill="#e4d9d1" opacity="0.72"/>
    <rect id="rect2671" width="101.298" height="737.81" transform="translate(283.776 -470.959)" fill="#e4d9d1" opacity="0.54"/>
    <rect id="rect2669" width="90.714" height="737.81" transform="translate(1499.28 -470.959)" fill="#e4d9d1" opacity="0.47"/>
    <rect id="rect2667" width="90.714" height="737.81" transform="translate(973.204 -470.959)" fill="#e4d9d1" opacity="0.54"/>
    <path id="rect2635" d="M0,0H149.679V633.488H0Z" transform="translate(1676.24 -366.637)" fill="#c8beb7" opacity="0.45"/>
    <rect id="rect2633" width="123.976" height="557.893" transform="translate(961.109 -291.042)" fill="#c8beb7" opacity="0.68"/>
    <g id="g2629" transform="translate(2250.219 -7.394)" opacity="0.88">
      <rect id="rect2593" width="32.156" height="27.011" transform="translate(-820.629 -242.534)" fill="#e0cdcd"/>
      <rect id="rect2595" width="30.87" height="33.443" transform="translate(-731.878 -250.252)" fill="#e0cdcd"/>
      <rect id="rect2597" width="172.358" height="506.783" transform="translate(-838.637 -221.955)" fill="#c8b7b7"/>
      <g id="g2627" transform="translate(-171.072 -68.171)">
        <rect id="rect2599" width="159.495" height="18.007" transform="translate(-661.134 -130.631)" fill="#d8ca00"/>
        <rect id="rect2601" width="159.495" height="18.007" transform="translate(-661.134 -99.365)" fill="#d8ca00"/>
        <rect id="rect2603" width="159.495" height="18.007" transform="translate(-661.134 -68.099)" fill="#d8ca00"/>
        <rect id="rect2605" width="159.495" height="18.007" transform="translate(-661.134 -36.833)" fill="#d8ca00"/>
        <rect id="rect2607" width="159.495" height="18.007" transform="translate(-661.134 -5.567)" fill="#d8ca00"/>
        <rect id="rect2609" width="159.495" height="18.007" transform="translate(-661.134 25.699)" fill="#d8ca00"/>
        <rect id="rect2611" width="159.495" height="18.007" transform="translate(-661.134 56.964)" fill="#d8ca00"/>
        <rect id="rect2613" width="159.495" height="18.007" transform="translate(-661.134 88.23)" fill="#d8ca00"/>
        <rect id="rect2615" width="159.495" height="18.007" transform="translate(-661.134 119.496)" fill="#d8ca00"/>
        <rect id="rect2617" width="159.495" height="18.007" transform="translate(-661.134 150.762)" fill="#d8ca00"/>
        <rect id="rect2619" width="159.495" height="18.007" transform="translate(-661.134 182.028)" fill="#d8ca00"/>
        <rect id="rect2621" width="159.495" height="18.007" transform="translate(-661.134 213.293)" fill="#d8ca00"/>
        <rect id="rect2623" width="159.495" height="18.007" transform="translate(-661.134 244.559)" fill="#d8ca00"/>
        <rect id="rect2625" width="159.495" height="18.007" transform="translate(-661.134 275.825)" fill="#d8ca00"/>
      </g>
    </g>
    <g id="g2242" transform="translate(1070.79 252.15)" opacity="0.66">
      <rect id="rect2224" width="92.076" height="56.561" transform="translate(118.259 -677.71)" fill="#eb9d6a"/>
      <rect id="rect2178" width="223.612" height="660.313" rx="9.155" transform="translate(52.49 -640.88)" fill="#d38d5f"/>
      <g id="g2222">
        <rect id="rect2189" width="192.043" height="24.992" rx="12.496" transform="translate(68.275 -521.181)" fill="#f8ea27"/>
        <rect id="rect2191" width="192.043" height="24.992" rx="12.496" transform="translate(68.275 -476.328)" fill="#f8ea27"/>
        <rect id="rect2193" width="192.043" height="24.992" rx="12.496" transform="translate(68.275 -431.473)" fill="#f8ea27"/>
        <rect id="rect2195" width="192.043" height="24.992" rx="12.496" transform="translate(68.275 -386.62)" fill="#f8ea27"/>
        <rect id="rect2197" width="192.043" height="24.992" rx="12.496" transform="translate(68.275 -341.766)" fill="#f8ea27"/>
        <rect id="rect2199" width="192.043" height="24.992" rx="12.496" transform="translate(68.275 -296.912)" fill="#f8ea27"/>
        <rect id="rect2201" width="192.043" height="24.992" rx="12.496" transform="translate(68.275 -252.058)" fill="#f8ea27"/>
        <rect id="rect2203" width="192.043" height="24.992" rx="12.496" transform="translate(68.275 -207.204)" fill="#f8ea27"/>
        <rect id="rect2205" width="192.043" height="24.992" rx="12.496" transform="translate(68.275 -162.35)" fill="#f8ea27"/>
        <rect id="rect2207" width="192.043" height="24.992" rx="12.496" transform="translate(68.275 -117.496)" fill="#f8ea27"/>
        <rect id="rect2209" width="192.043" height="24.992" rx="12.496" transform="translate(68.275 -72.642)" fill="#f8ea27"/>
      </g>
      <rect id="rect2187" width="223.612" height="39.461" rx="0.547" transform="translate(52.49 -579.058)" opacity="0.338"/>
      <path id="rect2180" d="M-43.407-386.138v36.83H70.372V215.038a9.135,9.135,0,0,0,9.155,9.155H91.471a9.135,9.135,0,0,0,9.155-9.155V-349.308H219.667v-36.83Z" transform="translate(78.798 -203.443)" fill="#f1a16d"/>
    </g>
    <g id="g2591" transform="translate(1352.621 -60.387)" opacity="0.82">
      <rect id="rect2569" width="37.798" height="31.75" transform="translate(-964.595 -285.083)" fill="#e0cdcd"/>
      <rect id="rect2571" width="36.286" height="39.31" transform="translate(-860.274 -294.155)" fill="#e0cdcd"/>
      <rect id="rect2523" width="202.595" height="595.69" transform="translate(-985.762 -260.893)" fill="#c8b7b7"/>
      <g id="g2567" transform="translate(-201.083 -80.131)">
        <rect id="rect2525" width="187.476" height="21.167" transform="translate(-777.119 -153.548)" fill="#e0cdcd"/>
        <rect id="rect2527" width="187.476" height="21.167" transform="translate(-777.119 -116.797)" fill="#e0cdcd"/>
        <rect id="rect2529" width="187.476" height="21.167" transform="translate(-777.119 -80.046)" fill="#e0cdcd"/>
        <rect id="rect2531" width="187.476" height="21.167" transform="translate(-777.119 -43.295)" fill="#e0cdcd"/>
        <rect id="rect2533" width="187.476" height="21.167" transform="translate(-777.119 -6.544)" fill="#e0cdcd"/>
        <rect id="rect2535" width="187.476" height="21.167" transform="translate(-777.119 30.207)" fill="#e0cdcd"/>
        <rect id="rect2537" width="187.476" height="21.167" transform="translate(-777.119 66.958)" fill="#e0cdcd"/>
        <rect id="rect2539" width="187.476" height="21.167" transform="translate(-777.119 103.709)" fill="#e0cdcd"/>
        <rect id="rect2541" width="187.476" height="21.167" transform="translate(-777.119 140.46)" fill="#e0cdcd"/>
        <rect id="rect2543" width="187.476" height="21.167" transform="translate(-777.119 177.211)" fill="#e0cdcd"/>
        <rect id="rect2545" width="187.476" height="21.167" transform="translate(-777.119 213.962)" fill="#e0cdcd"/>
        <rect id="rect2547" width="187.476" height="21.167" transform="translate(-777.119 250.712)" fill="#e0cdcd"/>
        <rect id="rect2549" width="187.476" height="21.167" transform="translate(-777.119 287.463)" fill="#e0cdcd"/>
        <rect id="rect2551" width="187.476" height="21.167" transform="translate(-777.119 324.214)" fill="#e0cdcd"/>
      </g>
    </g>
    <g id="g2289" transform="translate(1010.796 -25.344)" opacity="0.9">
      <path id="rect1418" d="M-365.408-76.112-200-170.628V301.955H-365.4Z" fill="#de8787"/>
      <rect id="rect1421" width="17.722" height="21.941" transform="translate(-352.75 -103.96)" fill="#de8787"/>
      <rect id="rect1423" width="17.722" height="21.941" transform="translate(-316.462 -125.058)" fill="#de8787"/>
      <g id="g1577">
        <g id="g1493">
          <rect id="rect1425" width="21.941" height="29.536" transform="translate(-345.154 -56.702)" fill="#e4d12f"/>
          <rect id="rect1427" width="21.941" height="29.536" transform="translate(-311.68 -56.702)" fill="#e4d12f"/>
          <rect id="rect1429" width="21.941" height="29.536" transform="translate(-278.205 -56.702)" fill="#e4d12f"/>
          <rect id="rect1431" width="21.941" height="29.536" transform="translate(-244.731 -56.702)" fill="#e4d12f"/>
        </g>
        <g id="g1499" transform="translate(0 -6.51)">
          <rect id="rect1433" width="21.941" height="29.536" transform="translate(-345.154 -5.224)" fill="#e4d12f"/>
          <rect id="rect1435" width="21.941" height="29.536" transform="translate(-311.68 -5.224)" fill="#e4d12f"/>
          <rect id="rect1437" width="21.941" height="29.536" transform="translate(-278.205 -5.224)" fill="#e4d12f"/>
          <rect id="rect1439" width="21.941" height="29.536" transform="translate(-244.731 -5.224)" fill="#e4d12f"/>
        </g>
        <g id="g1505" transform="translate(0 -4.581)">
          <rect id="rect1441" width="21.941" height="29.536" transform="translate(-345.154 37.815)" fill="#e4d12f"/>
          <rect id="rect1443" width="21.941" height="29.536" transform="translate(-311.68 37.815)" fill="#e4d12f"/>
          <rect id="rect1445" width="21.941" height="29.536" transform="translate(-278.205 37.815)" fill="#e4d12f"/>
          <rect id="rect1447" width="21.941" height="29.536" transform="translate(-244.731 37.815)" fill="#e4d12f"/>
        </g>
        <g id="g1511" transform="translate(0 -5.184)">
          <rect id="rect1449" width="21.941" height="29.536" transform="translate(-345.154 83.385)" fill="#e4d12f"/>
          <rect id="rect1451" width="21.941" height="29.536" transform="translate(-311.68 83.385)" fill="#e4d12f"/>
          <rect id="rect1453" width="21.941" height="29.536" transform="translate(-278.205 83.385)" fill="#e4d12f"/>
          <rect id="rect1455" width="21.941" height="29.536" transform="translate(-244.731 83.385)" fill="#e4d12f"/>
        </g>
        <g id="g1517" transform="translate(0 -0.723)">
          <rect id="rect1457" width="21.941" height="29.536" transform="translate(-345.154 123.892)" fill="#e4d12f"/>
          <rect id="rect1459" width="21.941" height="29.536" transform="translate(-311.68 123.892)" fill="#e4d12f"/>
          <rect id="rect1461" width="21.941" height="29.536" transform="translate(-278.205 123.892)" fill="#e4d12f"/>
          <rect id="rect1463" width="21.941" height="29.536" transform="translate(-244.731 123.892)" fill="#e4d12f"/>
        </g>
        <g id="g1523" transform="translate(0 -1.326)">
          <rect id="rect1465" width="21.941" height="29.536" transform="translate(-345.154 169.463)" fill="#e4d12f"/>
          <rect id="rect1467" width="21.941" height="29.536" transform="translate(-311.68 169.463)" fill="#e4d12f"/>
          <rect id="rect1469" width="21.941" height="29.536" transform="translate(-278.205 169.463)" fill="#e4d12f"/>
          <rect id="rect1471" width="21.941" height="29.536" transform="translate(-244.731 169.463)" fill="#e4d12f"/>
        </g>
        <g id="g1529" transform="translate(0 0.603)">
          <rect id="rect1473" width="21.941" height="29.536" transform="translate(-345.154 212.502)" fill="#e4d12f"/>
          <rect id="rect1475" width="21.941" height="29.536" transform="translate(-311.68 212.502)" fill="#e4d12f"/>
          <rect id="rect1477" width="21.941" height="29.536" transform="translate(-278.205 212.502)" fill="#e4d12f"/>
          <rect id="rect1479" width="21.941" height="29.536" transform="translate(-244.731 212.502)" fill="#e4d12f"/>
        </g>
        <g id="g1535">
          <rect id="rect1481" width="21.941" height="29.536" transform="translate(-345.154 258.072)" fill="#e4d12f"/>
          <rect id="rect1483" width="21.941" height="29.536" transform="translate(-311.68 258.072)" fill="#e4d12f"/>
          <rect id="rect1485" width="21.941" height="29.536" transform="translate(-278.205 258.072)" fill="#e4d12f"/>
          <rect id="rect1487" width="21.941" height="29.536" transform="translate(-244.731 258.072)" fill="#e4d12f"/>
        </g>
      </g>
      <rect id="rect1579" width="12.658" height="21.941" transform="translate(-240.511 -164.721)" fill="#de8787"/>
    </g>
    <g id="g2176" transform="translate(858.371 294.407)" opacity="0.67">
      <rect id="rect2141" width="9.622" height="260.854" transform="translate(62.241 -823.105)" fill="#ffb380"/>
      <rect id="rect2139" width="58.799" height="86.595" transform="translate(37.652 -648.846)" fill="#ffb380"/>
      <rect id="rect2143" width="58.799" height="57.73" transform="translate(37.652 -625.86)" fill="#cc8f66"/>
      <rect id="rect2137" width="88.733" height="86.595" transform="translate(22.685 -612.497)" fill="#ffb380"/>
      <rect id="rect2145" width="88.733" height="61.472" transform="translate(22.685 -587.374)" fill="#cc8f66"/>
      <rect id="rect2135" width="116.529" height="86.595" transform="translate(8.787 -577.217)" fill="#ffb380"/>
      <rect id="rect2147" width="116.529" height="33.141" transform="translate(8.787 -523.764)" fill="#cc8f66"/>
      <rect id="rect2133" width="147.532" height="502.465" transform="translate(-6.714 -514.142)" fill="#ffb380"/>
      <g id="g2161" transform="translate(3.742 543.154)">
        <rect id="rect2149" width="14.967" height="434.044" rx="7.484" transform="translate(10.391 -1040.19)" fill="#ffee01"/>
        <rect id="rect2151" width="14.967" height="434.044" rx="7.484" transform="translate(40.681 -1040.19)" fill="#ffee01"/>
        <rect id="rect2153" width="14.967" height="434.044" rx="7.484" transform="translate(70.972 -1040.19)" fill="#ffee01"/>
        <rect id="rect2155" width="14.967" height="434.044" rx="7.484" transform="translate(101.262 -1040.19)" fill="#ffee01"/>
      </g>
    </g>
    <g id="g2131" transform="translate(1241.387 441.428)">
      <rect id="rect1999" width="42.143" height="34.886" transform="translate(243.054 -424.969)" fill="#745959"/>
      <rect id="rect1997" width="63.075" height="34.886" transform="translate(-7.849 -424.969)" fill="#745959"/>
      <rect id="rect1726" width="339.437" height="214.714" transform="translate(-30.146 -384)" fill="#916f6f"/>
      <rect id="rect1730" width="339.437" height="11.841" transform="translate(-30.146 -384)" opacity="0.321"/>
      <g id="g1791" transform="translate(-1.334)">
        <rect id="rect1732" width="11.164" height="18.978" transform="translate(-20.408 -362.174)" fill="#d8ca00"/>
        <rect id="rect1734" width="11.164" height="18.978" transform="translate(-3.104 -362.174)" fill="#d8ca00"/>
        <rect id="rect1736" width="11.164" height="18.978" transform="translate(14.199 -362.174)" fill="#d8ca00"/>
        <rect id="rect1738" width="11.164" height="18.978" transform="translate(31.503 -362.174)" fill="#d8ca00"/>
        <rect id="rect1740" width="11.164" height="18.978" transform="translate(48.807 -362.174)" fill="#d8ca00"/>
        <rect id="rect1742" width="11.164" height="18.978" transform="translate(66.11 -362.174)" fill="#d8ca00"/>
        <rect id="rect1744" width="11.164" height="18.978" transform="translate(83.414 -362.174)" fill="#d8ca00"/>
        <rect id="rect1746" width="11.164" height="18.978" transform="translate(100.717 -362.174)" fill="#d8ca00"/>
        <rect id="rect1748" width="11.164" height="18.978" transform="translate(118.021 -362.174)" fill="#d8ca00"/>
        <rect id="rect1750" width="11.164" height="18.978" transform="translate(135.325 -362.174)" fill="#d8ca00"/>
        <rect id="rect1752" width="11.164" height="18.978" transform="translate(152.629 -362.174)" fill="#d8ca00"/>
        <rect id="rect1754" width="11.164" height="18.978" transform="translate(169.932 -362.174)" fill="#d8ca00"/>
        <rect id="rect1756" width="11.164" height="18.978" transform="translate(187.236 -362.174)" fill="#d8ca00"/>
        <rect id="rect1758" width="11.164" height="18.978" transform="translate(204.539 -362.174)" fill="#d8ca00"/>
        <rect id="rect1760" width="11.164" height="18.978" transform="translate(221.843 -362.174)" fill="#d8ca00"/>
        <rect id="rect1762" width="11.164" height="18.978" transform="translate(239.146 -362.174)" fill="#d8ca00"/>
        <rect id="rect1764" width="11.164" height="18.978" transform="translate(256.45 -362.174)" fill="#d8ca00"/>
        <rect id="rect1766" width="11.164" height="18.978" transform="translate(273.754 -362.174)" fill="#d8ca00"/>
        <rect id="rect1768" width="11.164" height="18.978" transform="translate(291.058 -362.174)" fill="#d8ca00"/>
      </g>
      <g id="g1831" transform="translate(-1.334 28.467)">
        <rect id="rect1793" width="11.164" height="18.978" transform="translate(-20.408 -362.174)" fill="#d8ca00"/>
        <rect id="rect1795" width="11.164" height="18.978" transform="translate(-3.104 -362.174)" fill="#d8ca00"/>
        <rect id="rect1797" width="11.164" height="18.978" transform="translate(14.199 -362.174)" fill="#d8ca00"/>
        <rect id="rect1799" width="11.164" height="18.978" transform="translate(31.503 -362.174)" fill="#d8ca00"/>
        <rect id="rect1801" width="11.164" height="18.978" transform="translate(48.807 -362.174)" fill="#d8ca00"/>
        <rect id="rect1803" width="11.164" height="18.978" transform="translate(66.11 -362.174)" fill="#d8ca00"/>
        <rect id="rect1805" width="11.164" height="18.978" transform="translate(83.414 -362.174)" fill="#d8ca00"/>
        <rect id="rect1807" width="11.164" height="18.978" transform="translate(100.717 -362.174)" fill="#d8ca00"/>
        <rect id="rect1809" width="11.164" height="18.978" transform="translate(118.021 -362.174)" fill="#d8ca00"/>
        <rect id="rect1811" width="11.164" height="18.978" transform="translate(135.325 -362.174)" fill="#d8ca00"/>
        <rect id="rect1813" width="11.164" height="18.978" transform="translate(152.629 -362.174)" fill="#d8ca00"/>
        <rect id="rect1815" width="11.164" height="18.978" transform="translate(169.932 -362.174)" fill="#d8ca00"/>
        <rect id="rect1817" width="11.164" height="18.978" transform="translate(187.236 -362.174)" fill="#d8ca00"/>
        <rect id="rect1819" width="11.164" height="18.978" transform="translate(204.539 -362.174)" fill="#d8ca00"/>
        <rect id="rect1821" width="11.164" height="18.978" transform="translate(221.843 -362.174)" fill="#d8ca00"/>
        <rect id="rect1823" width="11.164" height="18.978" transform="translate(239.146 -362.174)" fill="#d8ca00"/>
        <rect id="rect1825" width="11.164" height="18.978" transform="translate(256.45 -362.174)" fill="#d8ca00"/>
        <rect id="rect1827" width="11.164" height="18.978" transform="translate(273.754 -362.174)" fill="#d8ca00"/>
        <rect id="rect1829" width="11.164" height="18.978" transform="translate(291.058 -362.174)" fill="#d8ca00"/>
      </g>
      <g id="g1871" transform="translate(-1.334 64.191)">
        <rect id="rect1833" width="11.164" height="18.978" transform="translate(-20.408 -362.174)" fill="#d8ca00"/>
        <rect id="rect1835" width="11.164" height="18.978" transform="translate(-3.104 -362.174)" fill="#d8ca00"/>
        <rect id="rect1837" width="11.164" height="18.978" transform="translate(14.199 -362.174)" fill="#d8ca00"/>
        <rect id="rect1839" width="11.164" height="18.978" transform="translate(31.503 -362.174)" fill="#d8ca00"/>
        <rect id="rect1841" width="11.164" height="18.978" transform="translate(48.807 -362.174)" fill="#d8ca00"/>
        <rect id="rect1843" width="11.164" height="18.978" transform="translate(66.11 -362.174)" fill="#d8ca00"/>
        <rect id="rect1845" width="11.164" height="18.978" transform="translate(83.414 -362.174)" fill="#d8ca00"/>
        <rect id="rect1847" width="11.164" height="18.978" transform="translate(100.717 -362.174)" fill="#d8ca00"/>
        <rect id="rect1849" width="11.164" height="18.978" transform="translate(118.021 -362.174)" fill="#d8ca00"/>
        <rect id="rect1851" width="11.164" height="18.978" transform="translate(135.325 -362.174)" fill="#d8ca00"/>
        <rect id="rect1853" width="11.164" height="18.978" transform="translate(152.629 -362.174)" fill="#d8ca00"/>
        <rect id="rect1855" width="11.164" height="18.978" transform="translate(169.932 -362.174)" fill="#d8ca00"/>
        <rect id="rect1857" width="11.164" height="18.978" transform="translate(187.236 -362.174)" fill="#d8ca00"/>
        <rect id="rect1859" width="11.164" height="18.978" transform="translate(204.539 -362.174)" fill="#d8ca00"/>
        <rect id="rect1861" width="11.164" height="18.978" transform="translate(221.843 -362.174)" fill="#d8ca00"/>
        <rect id="rect1863" width="11.164" height="18.978" transform="translate(239.146 -362.174)" fill="#d8ca00"/>
        <rect id="rect1865" width="11.164" height="18.978" transform="translate(256.45 -362.174)" fill="#d8ca00"/>
        <rect id="rect1867" width="11.164" height="18.978" transform="translate(273.754 -362.174)" fill="#d8ca00"/>
        <rect id="rect1869" width="11.164" height="18.978" transform="translate(291.058 -362.174)" fill="#d8ca00"/>
      </g>
      <g id="g1911" transform="translate(-1.334 92.658)">
        <rect id="rect1873" width="11.164" height="18.978" transform="translate(-20.408 -362.174)" fill="#d8ca00"/>
        <rect id="rect1875" width="11.164" height="18.978" transform="translate(-3.104 -362.174)" fill="#d8ca00"/>
        <rect id="rect1877" width="11.164" height="18.978" transform="translate(14.199 -362.174)" fill="#d8ca00"/>
        <rect id="rect1879" width="11.164" height="18.978" transform="translate(31.503 -362.174)" fill="#d8ca00"/>
        <rect id="rect1881" width="11.164" height="18.978" transform="translate(48.807 -362.174)" fill="#d8ca00"/>
        <rect id="rect1883" width="11.164" height="18.978" transform="translate(66.11 -362.174)" fill="#d8ca00"/>
        <rect id="rect1885" width="11.164" height="18.978" transform="translate(83.414 -362.174)" fill="#d8ca00"/>
        <rect id="rect1887" width="11.164" height="18.978" transform="translate(100.717 -362.174)" fill="#d8ca00"/>
        <rect id="rect1889" width="11.164" height="18.978" transform="translate(118.021 -362.174)" fill="#d8ca00"/>
        <rect id="rect1891" width="11.164" height="18.978" transform="translate(135.325 -362.174)" fill="#d8ca00"/>
        <rect id="rect1893" width="11.164" height="18.978" transform="translate(152.629 -362.174)" fill="#d8ca00"/>
        <rect id="rect1895" width="11.164" height="18.978" transform="translate(169.932 -362.174)" fill="#d8ca00"/>
        <rect id="rect1897" width="11.164" height="18.978" transform="translate(187.236 -362.174)" fill="#d8ca00"/>
        <rect id="rect1899" width="11.164" height="18.978" transform="translate(204.539 -362.174)" fill="#d8ca00"/>
        <rect id="rect1901" width="11.164" height="18.978" transform="translate(221.843 -362.174)" fill="#d8ca00"/>
        <rect id="rect1903" width="11.164" height="18.978" transform="translate(239.146 -362.174)" fill="#d8ca00"/>
        <rect id="rect1905" width="11.164" height="18.978" transform="translate(256.45 -362.174)" fill="#d8ca00"/>
        <rect id="rect1907" width="11.164" height="18.978" transform="translate(273.754 -362.174)" fill="#d8ca00"/>
        <rect id="rect1909" width="11.164" height="18.978" transform="translate(291.058 -362.174)" fill="#d8ca00"/>
      </g>
      <g id="g1951" transform="translate(-1.334 130.056)">
        <rect id="rect1913" width="11.164" height="18.978" transform="translate(-20.408 -362.174)" fill="#d8ca00"/>
        <rect id="rect1915" width="11.164" height="18.978" transform="translate(-3.104 -362.174)" fill="#d8ca00"/>
        <rect id="rect1917" width="11.164" height="18.978" transform="translate(14.199 -362.174)" fill="#d8ca00"/>
        <rect id="rect1919" width="11.164" height="18.978" transform="translate(31.503 -362.174)" fill="#d8ca00"/>
        <rect id="rect1921" width="11.164" height="18.978" transform="translate(48.807 -362.174)" fill="#d8ca00"/>
        <rect id="rect1923" width="11.164" height="18.978" transform="translate(66.11 -362.174)" fill="#d8ca00"/>
        <rect id="rect1925" width="11.164" height="18.978" transform="translate(83.414 -362.174)" fill="#d8ca00"/>
        <rect id="rect1927" width="11.164" height="18.978" transform="translate(100.717 -362.174)" fill="#d8ca00"/>
        <rect id="rect1929" width="11.164" height="18.978" transform="translate(118.021 -362.174)" fill="#d8ca00"/>
        <rect id="rect1931" width="11.164" height="18.978" transform="translate(135.325 -362.174)" fill="#d8ca00"/>
        <rect id="rect1933" width="11.164" height="18.978" transform="translate(152.629 -362.174)" fill="#d8ca00"/>
        <rect id="rect1935" width="11.164" height="18.978" transform="translate(169.932 -362.174)" fill="#d8ca00"/>
        <rect id="rect1937" width="11.164" height="18.978" transform="translate(187.236 -362.174)" fill="#d8ca00"/>
        <rect id="rect1939" width="11.164" height="18.978" transform="translate(204.539 -362.174)" fill="#d8ca00"/>
        <rect id="rect1941" width="11.164" height="18.978" transform="translate(221.843 -362.174)" fill="#d8ca00"/>
        <rect id="rect1943" width="11.164" height="18.978" transform="translate(239.146 -362.174)" fill="#d8ca00"/>
        <rect id="rect1945" width="11.164" height="18.978" transform="translate(256.45 -362.174)" fill="#d8ca00"/>
        <rect id="rect1947" width="11.164" height="18.978" transform="translate(273.754 -362.174)" fill="#d8ca00"/>
        <rect id="rect1949" width="11.164" height="18.978" transform="translate(291.058 -362.174)" fill="#d8ca00"/>
      </g>
      <g id="g1991" transform="translate(-1.334 158.524)">
        <rect id="rect1953" width="11.164" height="18.978" transform="translate(-20.408 -362.174)" fill="#d8ca00"/>
        <rect id="rect1955" width="11.164" height="18.978" transform="translate(-3.104 -362.174)" fill="#d8ca00"/>
        <rect id="rect1957" width="11.164" height="18.978" transform="translate(14.199 -362.174)" fill="#d8ca00"/>
        <rect id="rect1959" width="11.164" height="18.978" transform="translate(31.503 -362.174)" fill="#d8ca00"/>
        <rect id="rect1961" width="11.164" height="18.978" transform="translate(48.807 -362.174)" fill="#d8ca00"/>
        <rect id="rect1963" width="11.164" height="18.978" transform="translate(66.11 -362.174)" fill="#d8ca00"/>
        <rect id="rect1965" width="11.164" height="18.978" transform="translate(83.414 -362.174)" fill="#d8ca00"/>
        <rect id="rect1967" width="11.164" height="18.978" transform="translate(100.717 -362.174)" fill="#d8ca00"/>
        <rect id="rect1969" width="11.164" height="18.978" transform="translate(118.021 -362.174)" fill="#d8ca00"/>
        <rect id="rect1971" width="11.164" height="18.978" transform="translate(135.325 -362.174)" fill="#d8ca00"/>
        <rect id="rect1973" width="11.164" height="18.978" transform="translate(152.629 -362.174)" fill="#d8ca00"/>
        <rect id="rect1975" width="11.164" height="18.978" transform="translate(169.932 -362.174)" fill="#d8ca00"/>
        <rect id="rect1977" width="11.164" height="18.978" transform="translate(187.236 -362.174)" fill="#d8ca00"/>
        <rect id="rect1979" width="11.164" height="18.978" transform="translate(204.539 -362.174)" fill="#d8ca00"/>
        <rect id="rect1981" width="11.164" height="18.978" transform="translate(221.843 -362.174)" fill="#d8ca00"/>
        <rect id="rect1983" width="11.164" height="18.978" transform="translate(239.146 -362.174)" fill="#d8ca00"/>
        <rect id="rect1985" width="11.164" height="18.978" transform="translate(256.45 -362.174)" fill="#d8ca00"/>
        <rect id="rect1987" width="11.164" height="18.978" transform="translate(273.754 -362.174)" fill="#d8ca00"/>
        <rect id="rect1989" width="11.164" height="18.978" transform="translate(291.058 -362.174)" fill="#d8ca00"/>
      </g>
      <rect id="rect1993" width="331.622" height="5.143" transform="translate(-26.238 -309.762)" fill="#745959"/>
      <rect id="rect1995" width="331.622" height="5.143" transform="translate(-26.238 -243.617)" fill="#745959"/>
      <rect id="rect1728" width="371.012" height="14.998" transform="translate(-45.933 -395.841)" fill="#916f6f"/>
      <rect id="rect2001" width="3.907" height="30.142" transform="translate(261.753 -452.6)" fill="#745959"/>
    </g>
    <g id="g1724" transform="translate(1370.907 140.193)" opacity="0.83">
      <g id="g1637">
        <path id="path1631" d="M254.139-255.426H172.89L311.87-425.409l3.207,105.838Z" fill="#9c582b"/>
        <path id="path1633" d="M389.912-255.426h81.25L332.182-425.409l-3.207,105.838Z" fill="#9c582b"/>
      </g>
      <path id="rect1628" d="M230.62-274.67,320.957-377.3l90.337,102.63V130.509H230.62Z" fill="#c87137"/>
      <path id="path1639" d="M243.449-274.67l77.508-88.73,77.508,88.733v21.382H243.449Z" fill="#b96833"/>
      <g id="g1677">
        <rect id="rect1641" width="143.63" height="11.339" transform="translate(249.141 -202.181)" fill="#d2c400"/>
        <rect id="rect1643" width="143.63" height="11.339" transform="translate(249.141 -176.409)" fill="#d2c400"/>
        <rect id="rect1645" width="143.63" height="11.339" transform="translate(249.141 -150.638)" fill="#d2c400"/>
        <rect id="rect1647" width="143.63" height="11.339" transform="translate(249.141 -124.867)" fill="#d2c400"/>
        <rect id="rect1649" width="143.63" height="11.339" transform="translate(249.141 -99.096)" fill="#d2c400"/>
        <rect id="rect1651" width="143.63" height="11.339" transform="translate(249.141 -73.325)" fill="#d2c400"/>
        <rect id="rect1653" width="143.63" height="11.339" transform="translate(249.141 -47.554)" fill="#d2c400"/>
        <rect id="rect1655" width="143.63" height="11.339" transform="translate(249.141 -21.783)" fill="#d2c400"/>
        <rect id="rect1657" width="143.63" height="11.339" transform="translate(249.141 3.988)" fill="#d2c400"/>
        <rect id="rect1659" width="143.63" height="11.339" transform="translate(249.141 29.759)" fill="#d2c400"/>
        <rect id="rect1661" width="143.63" height="11.339" transform="translate(249.141 55.53)" fill="#d2c400"/>
        <rect id="rect1663" width="143.63" height="11.339" transform="translate(249.141 81.301)" fill="#d2c400"/>
      </g>
      <g id="g1697" transform="translate(0.955)">
        <rect id="rect1679" width="14.363" height="27.97" transform="translate(256.881 -241.49)" fill="#f1e651"/>
        <rect id="rect1681" width="14.363" height="27.97" transform="translate(279.256 -241.49)" fill="#f1e651"/>
        <rect id="rect1683" width="14.363" height="27.97" transform="translate(301.632 -241.49)" fill="#f1e651"/>
        <rect id="rect1685" width="14.363" height="27.97" transform="translate(324.009 -241.49)" fill="#f1e651"/>
        <rect id="rect1687" width="14.363" height="27.97" transform="translate(346.385 -241.49)" fill="#f1e651"/>
        <rect id="rect1689" width="14.363" height="27.97" transform="translate(368.76 -241.49)" fill="#f1e651"/>
      </g>
    </g>
    <g id="g1416" transform="translate(1000.096 -314.387)">
      <path id="path1394" d="M-479.6,123.246c.3-1.961-59.415-2.867-59.121-.9S-508.343-73.689-508.934-73.7s29.034,198.9,29.332,196.941Z" fill="#c1a694"/>
      <rect id="rect1341" width="68.792" height="453.571" transform="translate(-543.53 133.714)" fill="#917c6f"/>
      <rect id="rect1343" width="77.107" height="22.679" transform="translate(-547.687 114.815)" fill="#b09787"/>
      <g id="g1354" transform="translate(2.268)">
        <rect id="rect1345" width="8.315" height="142.875" transform="translate(-534.458 146.565)" fill="#f3e735"/>
        <rect id="rect1347" width="8.315" height="142.875" transform="translate(-496.661 146.565)" fill="#f3e735"/>
        <rect id="rect1349" width="8.315" height="142.875" transform="translate(-515.56 146.565)" fill="#f3e735"/>
      </g>
      <g id="g1392">
        <rect id="rect1356" width="51.405" height="9.827" transform="translate(-534.836 303.804)" fill="#f3e735"/>
        <rect id="rect1358" width="51.405" height="9.827" transform="translate(-534.836 325.726)" fill="#f3e735"/>
        <rect id="rect1360" width="51.405" height="9.827" transform="translate(-534.836 347.649)" fill="#f3e735"/>
        <rect id="rect1362" width="51.405" height="9.827" transform="translate(-534.836 369.571)" fill="#f3e735"/>
        <rect id="rect1364" width="51.405" height="9.827" transform="translate(-534.836 391.494)" fill="#f3e735"/>
        <rect id="rect1366" width="51.405" height="9.827" transform="translate(-534.836 413.417)" fill="#f3e735"/>
        <rect id="rect1368" width="51.405" height="9.827" transform="translate(-534.836 435.339)" fill="#f3e735"/>
        <rect id="rect1370" width="51.405" height="9.827" transform="translate(-534.836 457.262)" fill="#f3e735"/>
        <rect id="rect1372" width="51.405" height="9.827" transform="translate(-534.836 479.185)" fill="#f3e735"/>
        <rect id="rect1374" width="51.405" height="9.827" transform="translate(-534.836 501.107)" fill="#f3e735"/>
        <rect id="rect1376" width="51.405" height="9.827" transform="translate(-534.836 523.03)" fill="#f3e735"/>
        <rect id="rect1378" width="51.405" height="9.827" transform="translate(-534.836 544.952)" fill="#f3e735"/>
      </g>
    </g>
    <g id="g1339" transform="translate(1080.478 -108.012)">
      <g id="g1299">
        <rect id="rect1290" width="5.292" height="33.262" transform="translate(-83.911 50.56)" fill="#a05a2c"/>
        <rect id="rect1292" width="5.292" height="33.262" transform="translate(-74.839 50.56)" fill="#a05a2c"/>
        <rect id="rect1294" width="34.018" height="20.411" transform="translate(-28.726 64.923)" fill="#a05a2c"/>
      </g>
      <rect id="rect817" width="138.339" height="275.695" transform="translate(-101.833 103.382)" fill="#a05a2c"/>
      <rect id="rect1286" width="138.339" height="26.23" transform="translate(-101.833 103.382)" opacity="0.37"/>
      <rect id="rect1288" width="127.711" height="40.855" transform="translate(-96.519 78.435)" fill="#bb6933"/>
      <rect id="rect1284" width="163.997" height="15.909" transform="translate(-114.662 103.382)" fill="#a05a2c"/>
      <rect id="rect1301" width="127.756" height="11.111" transform="translate(-96.541 141.935)" fill="#bfb744"/>
      <rect id="rect1303" width="127.756" height="11.111" transform="translate(-96.541 162.43)" fill="#bfb744"/>
      <rect id="rect1305" width="127.756" height="11.111" transform="translate(-96.541 182.925)" fill="#bfb744"/>
      <rect id="rect1307" width="127.756" height="11.111" transform="translate(-96.541 203.419)" fill="#bfb744"/>
      <rect id="rect1309" width="127.756" height="11.111" transform="translate(-96.541 223.914)" fill="#bfb744"/>
      <rect id="rect1311" width="127.756" height="11.111" transform="translate(-96.541 244.409)" fill="#bfb744"/>
      <rect id="rect1313" width="127.756" height="11.111" transform="translate(-96.541 264.904)" fill="#bfb744"/>
      <rect id="rect1315" width="127.756" height="11.111" transform="translate(-96.541 285.398)" fill="#bfb744"/>
      <rect id="rect1317" width="127.756" height="11.111" transform="translate(-96.541 305.893)" fill="#bfb744"/>
      <rect id="rect1319" width="127.756" height="11.111" transform="translate(-96.541 326.388)" fill="#bfb744"/>
    </g>
    <g id="g1282" transform="translate(1145.49 -314.387)">
      <g id="g955" transform="translate(-94.139 41.592)">
        <path id="path941" d="M-553.479,544.073s4.176-31.265,3.534-38.291-9.316-30.914-9.316-30.914l1.606-.351s7.388,20.375,8.673,22.483l1.285,2.108s1.606.7,1.285-11.944-1.927-29.86-1.927-29.86l5.461-2.108s2.891,34.778,1.927,42.507a81.772,81.772,0,0,0-.642,13.349s4.818-.7,7.71-6.675,1.285-16.862,1.285-16.862l2.249-1.4s1.606,8.782.964,12.647.321,6.323-4.5,11.241-6.1,5.972-6.1,5.972-3.212,12.647-1.285,20.024,1.606,11.593,1.606,11.593Z" fill="#784421"/>
        <g id="g939" transform="translate(25.5 -18.745)">
          <circle id="path909" cx="18.629" cy="18.629" r="18.629" transform="translate(-603.368 474.839)" fill="#004244"/>
          <circle id="circle911" cx="15.783" cy="15.783" r="15.783" transform="translate(-598.71 457.762)" fill="#004244"/>
          <circle id="circle913" cx="11.902" cy="11.902" r="11.902" transform="translate(-602.333 441.203)" fill="#004244"/>
          <circle id="circle915" cx="15.783" cy="15.783" r="15.783" transform="translate(-578.529 483.636)" fill="#004244"/>
          <circle id="circle917" cx="15.783" cy="15.783" r="15.783" transform="translate(-575.424 458.797)" fill="#004244"/>
          <circle id="circle919" cx="11.902" cy="11.902" r="11.902" transform="translate(-556.796 474.838)" fill="#004244"/>
          <circle id="circle921" cx="14.23" cy="14.23" r="14.23" transform="translate(-566.11 450)" fill="#004244"/>
          <circle id="circle923" cx="15.783" cy="15.783" r="15.783" transform="translate(-586.291 431.889)" fill="#004244"/>
          <circle id="circle925" cx="11.902" cy="11.902" r="11.902" transform="translate(-593.536 423.609)" fill="#004244"/>
          <circle id="circle927" cx="9.314" cy="9.314" r="9.314" transform="translate(-562.488 438.099)" fill="#004244"/>
        </g>
      </g>
      <g id="g981" transform="translate(-1041.244 133.094) rotate(180)">
        <path id="path957" d="M-460.99-453.155s3.478,26.041,2.943,31.892-7.759,25.748-7.759,25.748l1.338.293s6.154-16.97,7.224-18.726l1.07-1.756s1.338-.585,1.07,9.948-1.605,24.87-1.605,24.87l4.548,1.756s2.408-28.967,1.605-35.4a68.1,68.1,0,0,1-.535-11.118s4.013.585,6.421,5.559,1.07,14.044,1.07,14.044l1.873,1.17s1.338-7.315.8-10.533.268-5.267-3.746-9.363-5.083-4.974-5.083-4.974-2.676-10.533-1.07-16.678a32.651,32.651,0,0,0,1.338-9.656Z" fill="#784421"/>
        <g id="g979" transform="translate(21.239 15.613)">
          <circle id="circle959" cx="15.516" cy="15.516" r="15.516" transform="translate(-502.541 -426.522)" fill="#004244"/>
          <circle id="circle961" cx="13.145" cy="13.145" r="13.145" transform="translate(-498.662 -407.558)" fill="#004244"/>
          <circle id="circle963" cx="9.913" cy="9.913" r="9.913" transform="translate(-501.679 -387.301)" fill="#004244"/>
          <circle id="circle965" cx="13.145" cy="13.145" r="13.145" transform="translate(-481.853 -429.108)" fill="#004244"/>
          <circle id="circle967" cx="13.145" cy="13.145" r="13.145" transform="translate(-479.268 -408.42)" fill="#004244"/>
          <circle id="circle969" cx="9.913" cy="9.913" r="9.913" transform="translate(-463.752 -415.316)" fill="#004244"/>
          <circle id="circle971" cx="11.852" cy="11.852" r="11.852" transform="translate(-471.51 -398.507)" fill="#004244"/>
          <circle id="circle973" cx="13.145" cy="13.145" r="13.145" transform="translate(-488.318 -386.008)" fill="#004244"/>
          <circle id="circle975" cx="9.913" cy="9.913" r="9.913" transform="translate(-494.353 -372.647)" fill="#004244"/>
          <circle id="circle977" cx="7.758" cy="7.758" r="7.758" transform="translate(-468.493 -380.406)" fill="#004244"/>
        </g>
      </g>
      <g id="g1007" transform="translate(161.371 41.592)">
        <path id="path983" d="M-553.479,544.073s4.176-31.265,3.534-38.291-9.316-30.914-9.316-30.914l1.606-.351s7.388,20.375,8.673,22.483l1.285,2.108s1.606.7,1.285-11.944-1.927-29.86-1.927-29.86l5.461-2.108s2.891,34.778,1.927,42.507a81.772,81.772,0,0,0-.642,13.349s4.818-.7,7.71-6.675,1.285-16.862,1.285-16.862l2.249-1.4s1.606,8.782.964,12.647.321,6.323-4.5,11.241-6.1,5.972-6.1,5.972-3.212,12.647-1.285,20.024,1.606,11.593,1.606,11.593Z" fill="#784421"/>
        <g id="g1005" transform="translate(25.5 -18.745)">
          <circle id="circle985" cx="18.629" cy="18.629" r="18.629" transform="translate(-603.368 474.839)" fill="#004244"/>
          <circle id="circle987" cx="15.783" cy="15.783" r="15.783" transform="translate(-598.71 457.762)" fill="#004244"/>
          <circle id="circle989" cx="11.902" cy="11.902" r="11.902" transform="translate(-602.333 441.203)" fill="#004244"/>
          <circle id="circle991" cx="15.783" cy="15.783" r="15.783" transform="translate(-578.529 483.636)" fill="#004244"/>
          <circle id="circle993" cx="15.783" cy="15.783" r="15.783" transform="translate(-575.424 458.797)" fill="#004244"/>
          <circle id="circle995" cx="11.902" cy="11.902" r="11.902" transform="translate(-556.796 474.838)" fill="#004244"/>
          <circle id="circle997" cx="14.23" cy="14.23" r="14.23" transform="translate(-566.11 450)" fill="#004244"/>
          <circle id="circle999" cx="15.783" cy="15.783" r="15.783" transform="translate(-586.291 431.889)" fill="#004244"/>
          <circle id="circle1001" cx="11.902" cy="11.902" r="11.902" transform="translate(-593.536 423.609)" fill="#004244"/>
          <circle id="circle1003" cx="9.314" cy="9.314" r="9.314" transform="translate(-562.488 438.099)" fill="#004244"/>
        </g>
      </g>
      <g id="g1033" transform="translate(-11.721 133.094) rotate(180)">
        <path id="path1009" d="M-460.99-453.155s3.478,26.041,2.943,31.892-7.759,25.748-7.759,25.748l1.338.293s6.154-16.97,7.224-18.726l1.07-1.756s1.338-.585,1.07,9.948-1.605,24.87-1.605,24.87l4.548,1.756s2.408-28.967,1.605-35.4a68.1,68.1,0,0,1-.535-11.118s4.013.585,6.421,5.559,1.07,14.044,1.07,14.044l1.873,1.17s1.338-7.315.8-10.533.268-5.267-3.746-9.363-5.083-4.974-5.083-4.974-2.676-10.533-1.07-16.678a32.651,32.651,0,0,0,1.338-9.656Z" fill="#784421"/>
        <g id="g1031" transform="translate(21.239 15.613)">
          <circle id="circle1011" cx="15.516" cy="15.516" r="15.516" transform="translate(-502.541 -426.522)" fill="#004244"/>
          <circle id="circle1013" cx="13.145" cy="13.145" r="13.145" transform="translate(-498.662 -407.558)" fill="#004244"/>
          <circle id="circle1015" cx="9.913" cy="9.913" r="9.913" transform="translate(-501.679 -387.301)" fill="#004244"/>
          <circle id="circle1017" cx="13.145" cy="13.145" r="13.145" transform="translate(-481.853 -429.108)" fill="#004244"/>
          <circle id="circle1019" cx="13.145" cy="13.145" r="13.145" transform="translate(-479.268 -408.42)" fill="#004244"/>
          <circle id="circle1021" cx="9.913" cy="9.913" r="9.913" transform="translate(-463.752 -415.316)" fill="#004244"/>
          <circle id="circle1023" cx="11.852" cy="11.852" r="11.852" transform="translate(-471.51 -398.507)" fill="#004244"/>
          <circle id="circle1025" cx="13.145" cy="13.145" r="13.145" transform="translate(-488.318 -386.008)" fill="#004244"/>
          <circle id="circle1027" cx="9.913" cy="9.913" r="9.913" transform="translate(-494.353 -372.647)" fill="#004244"/>
          <circle id="circle1029" cx="7.758" cy="7.758" r="7.758" transform="translate(-468.493 -380.406)" fill="#004244"/>
        </g>
      </g>
      <g id="g1059" transform="translate(-565.896 158.049) rotate(180)">
        <path id="path1035" d="M-435.77-428.364s3.288,24.616,2.782,30.148-7.334,24.339-7.334,24.339l1.265.277s5.817-16.042,6.829-17.7l1.012-1.659s1.265-.553,1.012,9.4-1.517,23.51-1.517,23.51l4.3,1.659s2.276-27.382,1.517-33.467a64.376,64.376,0,0,1-.506-10.51s3.794.553,6.07,5.255,1.012,13.276,1.012,13.276l1.77,1.106s1.265-6.915.759-9.957.253-4.978-3.541-8.851-4.8-4.7-4.8-4.7-2.529-9.957-1.012-15.765a30.863,30.863,0,0,0,1.265-9.127Z" fill="#784421"/>
        <g id="g1057" transform="translate(20.077 14.758)">
          <circle id="circle1037" cx="14.667" cy="14.667" r="14.667" transform="translate(-475.048 -403.188)" fill="#004244"/>
          <circle id="circle1039" cx="12.426" cy="12.426" r="12.426" transform="translate(-471.381 -385.261)" fill="#004244"/>
          <circle id="circle1041" cx="9.371" cy="9.371" r="9.371" transform="translate(-474.233 -366.112)" fill="#004244"/>
          <circle id="circle1043" cx="12.426" cy="12.426" r="12.426" transform="translate(-455.492 -405.632)" fill="#004244"/>
          <circle id="circle1045" cx="12.426" cy="12.426" r="12.426" transform="translate(-453.047 -386.076)" fill="#004244"/>
          <circle id="circle1047" cx="9.371" cy="9.371" r="9.371" transform="translate(-438.381 -392.594)" fill="#004244"/>
          <circle id="circle1049" cx="11.204" cy="11.204" r="11.204" transform="translate(-445.714 -376.705)" fill="#004244"/>
          <circle id="circle1051" cx="12.426" cy="12.426" r="12.426" transform="translate(-461.603 -364.89)" fill="#004244"/>
          <circle id="circle1053" cx="9.371" cy="9.371" r="9.371" transform="translate(-467.307 -352.26)" fill="#004244"/>
          <circle id="circle1055" cx="7.334" cy="7.334" r="7.334" transform="translate(-442.862 -359.594)" fill="#004244"/>
        </g>
      </g>
      <g id="g1085" transform="translate(-1185.961 158.049) rotate(180)">
        <path id="path1061" d="M-435.77-428.364s3.288,24.616,2.782,30.148-7.334,24.339-7.334,24.339l1.265.277s5.817-16.042,6.829-17.7l1.012-1.659s1.265-.553,1.012,9.4-1.517,23.51-1.517,23.51l4.3,1.659s2.276-27.382,1.517-33.467a64.376,64.376,0,0,1-.506-10.51s3.794.553,6.07,5.255,1.012,13.276,1.012,13.276l1.77,1.106s1.265-6.915.759-9.957.253-4.978-3.541-8.851-4.8-4.7-4.8-4.7-2.529-9.957-1.012-15.765a30.863,30.863,0,0,0,1.265-9.127Z" fill="#784421"/>
        <g id="g1083" transform="translate(20.077 14.758)">
          <circle id="circle1063" cx="14.667" cy="14.667" r="14.667" transform="translate(-475.048 -403.188)" fill="#004244"/>
          <circle id="circle1065" cx="12.426" cy="12.426" r="12.426" transform="translate(-471.381 -385.261)" fill="#004244"/>
          <circle id="circle1067" cx="9.371" cy="9.371" r="9.371" transform="translate(-474.233 -366.112)" fill="#004244"/>
          <circle id="circle1069" cx="12.426" cy="12.426" r="12.426" transform="translate(-455.492 -405.632)" fill="#004244"/>
          <circle id="circle1071" cx="12.426" cy="12.426" r="12.426" transform="translate(-453.047 -386.076)" fill="#004244"/>
          <circle id="circle1073" cx="9.371" cy="9.371" r="9.371" transform="translate(-438.381 -392.594)" fill="#004244"/>
          <circle id="circle1075" cx="11.204" cy="11.204" r="11.204" transform="translate(-445.714 -376.705)" fill="#004244"/>
          <circle id="circle1077" cx="12.426" cy="12.426" r="12.426" transform="translate(-461.603 -364.89)" fill="#004244"/>
          <circle id="circle1079" cx="9.371" cy="9.371" r="9.371" transform="translate(-467.307 -352.26)" fill="#004244"/>
          <circle id="circle1081" cx="7.334" cy="7.334" r="7.334" transform="translate(-442.862 -359.594)" fill="#004244"/>
        </g>
      </g>
      <g id="g1111" transform="translate(519.338 51.401)">
        <path id="path1087" d="M-543.564,534.326s4.1-30.7,3.47-37.605-9.149-30.36-9.149-30.36l1.577-.345s7.256,20.01,8.518,22.08l1.262,2.07s1.577.69,1.262-11.73-1.893-29.325-1.893-29.325l5.363-2.07s2.839,34.155,1.893,41.745a80.3,80.3,0,0,0-.631,13.11s4.732-.69,7.571-6.555,1.262-16.56,1.262-16.56l2.208-1.38s1.577,8.625.946,12.42.315,6.21-4.417,11.04-5.994,5.865-5.994,5.865-3.155,12.42-1.262,19.665S-530,537.776-530,537.776Z" fill="#784421"/>
        <g id="g1109" transform="translate(25.043 -18.409)">
          <circle id="circle1089" cx="18.295" cy="18.295" r="18.295" transform="translate(-592.559 466.332)" fill="#004244"/>
          <circle id="circle1091" cx="15.5" cy="15.5" r="15.5" transform="translate(-587.985 449.562)" fill="#004244"/>
          <circle id="circle1093" cx="11.689" cy="11.689" r="11.689" transform="translate(-591.542 433.299)" fill="#004244"/>
          <circle id="circle1095" cx="15.5" cy="15.5" r="15.5" transform="translate(-568.165 474.972)" fill="#004244"/>
          <circle id="circle1097" cx="15.5" cy="15.5" r="15.5" transform="translate(-565.116 450.578)" fill="#004244"/>
          <circle id="circle1099" cx="11.689" cy="11.689" r="11.689" transform="translate(-546.821 466.331)" fill="#004244"/>
          <circle id="circle1101" cx="13.975" cy="13.975" r="13.975" transform="translate(-555.969 441.938)" fill="#004244"/>
          <circle id="circle1103" cx="15.5" cy="15.5" r="15.5" transform="translate(-575.788 424.152)" fill="#004244"/>
          <circle id="circle1105" cx="11.689" cy="11.689" r="11.689" transform="translate(-582.903 416.02)" fill="#004244"/>
          <circle id="circle1107" cx="9.148" cy="9.148" r="9.148" transform="translate(-552.411 430.25)" fill="#004244"/>
        </g>
      </g>
      <g id="g1137" transform="translate(750.205 41.592)">
        <path id="path1113" d="M-553.479,544.073s4.176-31.265,3.534-38.291-9.316-30.914-9.316-30.914l1.606-.351s7.388,20.375,8.673,22.483l1.285,2.108s1.606.7,1.285-11.944-1.927-29.86-1.927-29.86l5.461-2.108s2.891,34.778,1.927,42.507a81.772,81.772,0,0,0-.642,13.349s4.818-.7,7.71-6.675,1.285-16.862,1.285-16.862l2.249-1.4s1.606,8.782.964,12.647.321,6.323-4.5,11.241-6.1,5.972-6.1,5.972-3.212,12.647-1.285,20.024,1.606,11.593,1.606,11.593Z" fill="#784421"/>
        <g id="g1135" transform="translate(25.5 -18.745)">
          <circle id="circle1115" cx="18.629" cy="18.629" r="18.629" transform="translate(-603.368 474.839)" fill="#004244"/>
          <circle id="circle1117" cx="15.783" cy="15.783" r="15.783" transform="translate(-598.71 457.762)" fill="#004244"/>
          <circle id="circle1119" cx="11.902" cy="11.902" r="11.902" transform="translate(-602.333 441.203)" fill="#004244"/>
          <circle id="circle1121" cx="15.783" cy="15.783" r="15.783" transform="translate(-578.529 483.636)" fill="#004244"/>
          <circle id="circle1123" cx="15.783" cy="15.783" r="15.783" transform="translate(-575.424 458.797)" fill="#004244"/>
          <circle id="circle1125" cx="11.902" cy="11.902" r="11.902" transform="translate(-556.796 474.838)" fill="#004244"/>
          <circle id="circle1127" cx="14.23" cy="14.23" r="14.23" transform="translate(-566.11 450)" fill="#004244"/>
          <circle id="circle1129" cx="15.783" cy="15.783" r="15.783" transform="translate(-586.291 431.889)" fill="#004244"/>
          <circle id="circle1131" cx="11.902" cy="11.902" r="11.902" transform="translate(-593.536 423.609)" fill="#004244"/>
          <circle id="circle1133" cx="9.314" cy="9.314" r="9.314" transform="translate(-562.488 438.099)" fill="#004244"/>
        </g>
      </g>
      <g id="g1163" transform="translate(-125.84 133.094) rotate(180)">
        <path id="path1139" d="M-460.99-453.155s3.478,26.041,2.943,31.892-7.759,25.748-7.759,25.748l1.338.293s6.154-16.97,7.224-18.726l1.07-1.756s1.338-.585,1.07,9.948-1.605,24.87-1.605,24.87l4.548,1.756s2.408-28.967,1.605-35.4a68.1,68.1,0,0,1-.535-11.118s4.013.585,6.421,5.559,1.07,14.044,1.07,14.044l1.873,1.17s1.338-7.315.8-10.533.268-5.267-3.746-9.363-5.083-4.974-5.083-4.974-2.676-10.533-1.07-16.678a32.651,32.651,0,0,0,1.338-9.656Z" fill="#784421"/>
        <g id="g1161" transform="translate(21.239 15.613)">
          <circle id="circle1141" cx="15.516" cy="15.516" r="15.516" transform="translate(-502.541 -426.522)" fill="#004244"/>
          <circle id="circle1143" cx="13.145" cy="13.145" r="13.145" transform="translate(-498.662 -407.558)" fill="#004244"/>
          <circle id="circle1145" cx="9.913" cy="9.913" r="9.913" transform="translate(-501.679 -387.301)" fill="#004244"/>
          <circle id="circle1147" cx="13.145" cy="13.145" r="13.145" transform="translate(-481.853 -429.108)" fill="#004244"/>
          <circle id="circle1149" cx="13.145" cy="13.145" r="13.145" transform="translate(-479.268 -408.42)" fill="#004244"/>
          <circle id="circle1151" cx="9.913" cy="9.913" r="9.913" transform="translate(-463.752 -415.316)" fill="#004244"/>
          <circle id="circle1153" cx="11.852" cy="11.852" r="11.852" transform="translate(-471.51 -398.507)" fill="#004244"/>
          <circle id="circle1155" cx="13.145" cy="13.145" r="13.145" transform="translate(-488.318 -386.008)" fill="#004244"/>
          <circle id="circle1157" cx="9.913" cy="9.913" r="9.913" transform="translate(-494.353 -372.647)" fill="#004244"/>
          <circle id="circle1159" cx="7.758" cy="7.758" r="7.758" transform="translate(-468.493 -380.406)" fill="#004244"/>
        </g>
      </g>
      <g id="g2661" transform="translate(1099.406 133.094)">
        <path id="path2637" d="M-460.99,453.155s3.478-26.041,2.943-31.892-7.759-25.748-7.759-25.748l1.338-.293s6.154,16.97,7.224,18.726l1.07,1.756s1.338.585,1.07-9.948-1.605-24.87-1.605-24.87l4.548-1.756s2.408,28.967,1.605,35.4a68.1,68.1,0,0,0-.535,11.118s4.013-.585,6.421-5.559,1.07-14.044,1.07-14.044l1.873-1.17s1.338,7.315.8,10.533.268,5.267-3.746,9.363-5.083,4.974-5.083,4.974-2.676,10.533-1.07,16.678a32.651,32.651,0,0,1,1.338,9.656Z" fill="#784421"/>
        <g id="g2659" transform="translate(21.239 -15.613)">
          <circle id="circle2639" cx="15.516" cy="15.516" r="15.516" transform="translate(-502.541 395.491)" fill="#004244"/>
          <circle id="circle2641" cx="13.145" cy="13.145" r="13.145" transform="translate(-498.662 381.267)" fill="#004244"/>
          <circle id="circle2643" cx="9.913" cy="9.913" r="9.913" transform="translate(-501.679 367.475)" fill="#004244"/>
          <circle id="circle2645" cx="13.145" cy="13.145" r="13.145" transform="translate(-481.853 402.817)" fill="#004244"/>
          <circle id="circle2647" cx="13.145" cy="13.145" r="13.145" transform="translate(-479.268 382.129)" fill="#004244"/>
          <circle id="circle2649" cx="9.913" cy="9.913" r="9.913" transform="translate(-463.752 395.49)" fill="#004244"/>
          <circle id="circle2651" cx="11.852" cy="11.852" r="11.852" transform="translate(-471.51 374.802)" fill="#004244"/>
          <circle id="circle2653" cx="13.145" cy="13.145" r="13.145" transform="translate(-488.318 359.718)" fill="#004244"/>
          <circle id="circle2655" cx="9.913" cy="9.913" r="9.913" transform="translate(-494.353 352.821)" fill="#004244"/>
          <circle id="circle2657" cx="7.758" cy="7.758" r="7.758" transform="translate(-468.493 364.89)" fill="#004244"/>
        </g>
      </g>
    </g>
    <rect id="rect815" width="2134.48" height="27.97" transform="translate(-6.089 267.501)" fill="#483737"/>
    <g id="g837" transform="translate(545.154 82.581)">
      <rect id="rect819" width="9.163" height="19.049" transform="translate(-110.197 167.494)"/>
      <rect id="rect821" width="2.935" height="70.41" transform="translate(-107.083 100.46)"/>
      <rect id="rect823" width="18.567" height="2.17" transform="translate(-114.537 104.8)"/>
      <circle id="path825" cx="5.184" cy="5.184" r="5.184" transform="translate(-99.587 100.701)" fill="#ffc814"/>
      <circle id="circle827" cx="5.184" cy="5.184" r="5.184" transform="translate(-122.605 100.701)" fill="#ffc814"/>
      <path id="circle829" d="M5.184,0A5.184,5.184,0,1,1,0,5.184,5.184,5.184,0,0,1,5.184,0Z" transform="translate(-110.799 90.67)" fill="#ffc814"/>
    </g>
    <g id="g851" transform="translate(788.69 82.581)">
      <rect id="rect839" width="9.163" height="19.049" transform="translate(-110.197 167.494)"/>
      <rect id="rect841" width="2.935" height="70.41" transform="translate(-107.083 100.46)"/>
      <rect id="rect843" width="18.567" height="2.17" transform="translate(-114.537 104.8)"/>
      <path id="circle845" d="M5.184,0A5.184,5.184,0,1,1,0,5.184,5.184,5.184,0,0,1,5.184,0Z" transform="translate(-99.587 100.701)" fill="#ffc814"/>
      <path id="circle847" d="M5.184,0A5.184,5.184,0,1,1,0,5.184,5.184,5.184,0,0,1,5.184,0Z" transform="translate(-122.605 100.701)" fill="#ffc814"/>
      <circle id="circle849" cx="5.184" cy="5.184" r="5.184" transform="translate(-110.799 90.67)" fill="#ffc814"/>
    </g>
    <g id="g865" transform="translate(1032.226 82.581)">
      <rect id="rect853" width="9.163" height="19.049" transform="translate(-110.197 167.494)"/>
      <rect id="rect855" width="2.935" height="70.41" transform="translate(-107.083 100.46)"/>
      <rect id="rect857" width="18.567" height="2.17" transform="translate(-114.537 104.8)"/>
      <path id="circle859" d="M5.184,0A5.184,5.184,0,1,1,0,5.184,5.184,5.184,0,0,1,5.184,0Z" transform="translate(-99.587 100.701)" fill="#ffc814"/>
      <path id="circle861" d="M5.184,0A5.184,5.184,0,1,1,0,5.184,5.184,5.184,0,0,1,5.184,0Z" transform="translate(-122.605 100.701)" fill="#ffc814"/>
      <circle id="circle863" cx="5.184" cy="5.184" r="5.184" transform="translate(-110.799 90.67)" fill="#ffc814"/>
    </g>
    <g id="g879" transform="translate(1275.762 82.581)">
      <rect id="rect867" width="9.163" height="19.049" transform="translate(-110.197 167.494)"/>
      <rect id="rect869" width="2.935" height="70.41" transform="translate(-107.083 100.46)"/>
      <rect id="rect871" width="18.567" height="2.17" transform="translate(-114.537 104.8)"/>
      <circle id="circle873" cx="5.184" cy="5.184" r="5.184" transform="translate(-99.587 100.701)" fill="#ffc814"/>
      <circle id="circle875" cx="5.184" cy="5.184" r="5.184" transform="translate(-122.605 100.701)" fill="#ffc814"/>
      <circle id="circle877" cx="5.184" cy="5.184" r="5.184" transform="translate(-110.799 90.67)" fill="#ffc814"/>
    </g>
    <g id="g893" transform="translate(1519.298 82.581)">
      <rect id="rect881" width="9.163" height="19.049" transform="translate(-110.197 167.494)"/>
      <rect id="rect883" width="2.935" height="70.41" transform="translate(-107.083 100.46)"/>
      <rect id="rect885" width="18.567" height="2.17" transform="translate(-114.537 104.8)"/>
      <circle id="circle887" cx="5.184" cy="5.184" r="5.184" transform="translate(-99.587 100.701)" fill="#ffc814"/>
      <circle id="circle889" cx="5.184" cy="5.184" r="5.184" transform="translate(-122.605 100.701)" fill="#ffc814"/>
      <circle id="circle891" cx="5.184" cy="5.184" r="5.184" transform="translate(-110.799 90.67)" fill="#ffc814"/>
    </g>
    <g id="g907" transform="translate(1762.834 82.581)">
      <rect id="rect895" width="9.163" height="19.049" transform="translate(-110.197 167.494)"/>
      <rect id="rect897" width="2.935" height="70.41" transform="translate(-107.083 100.46)"/>
      <rect id="rect899" width="18.567" height="2.17" transform="translate(-114.537 104.8)"/>
      <circle id="circle901" cx="5.184" cy="5.184" r="5.184" transform="translate(-99.587 100.701)" fill="#ffc814"/>
      <path id="circle903" d="M5.184,0A5.184,5.184,0,1,1,0,5.184,5.184,5.184,0,0,1,5.184,0Z" transform="translate(-122.605 100.701)" fill="#ffc814"/>
      <circle id="circle905" cx="5.184" cy="5.184" r="5.184" transform="translate(-110.799 90.67)" fill="#ffc814"/>
    </g>
    <rect id="rect2681" width="128.512" height="13.607" transform="translate(270.169 -442.232)" fill="#f1ece9" opacity="0.44"/>
    <circle id="Elipse_1" data-name="Elipse 1" cx="164.5" cy="164.5" r="164.5" transform="translate(1681.907 -791.717)" fill="#ecc033"/>
    <path id="Trazado_1" data-name="Trazado 1" d="M289.3,107.593c35.33-47.762-12.832,105.534-138.482,110.793S-38.222,70.406,1.687,111.8,253.968,155.355,289.3,107.593Z" transform="translate(1849.139 -472.075) rotate(-111)" fill="#e4af06"/>
  </g>
</svg>
