<svg xmlns="http://www.w3.org/2000/svg" xmlns:xlink="http://www.w3.org/1999/xlink" width="800" height="800" viewBox="0 0 800 800">
  <defs>
    <clipPath id="clip-GUT">
      <rect width="800" height="800"/>
    </clipPath>
  </defs>
  <g id="GUT" clip-path="url(#clip-GUT)">
    <path id="Trazado_1" data-name="Trazado 1" d="M576.494,0,565.758-59.283Q528.414-19.605,475.666-.233T352.9,19.139q-147.508,0-232.465-96.86T35.477-343.1q0-172.248,94.76-267.241T395.844-705.33q134.438,0,216.827,66.752t97.794,188.119H500.873q-12.6-41.078-40.845-62.551t-69.786-21.473q-66.285,0-99.194,50.881T258.139-331.893q0,93.359,33.143,139.572t100.828,46.213q48.547,0,82.39-22.64t41.778-60.917H416.85V-376.705H718.867V0Z" transform="translate(23 743)"/>
  </g>
</svg>
