<svg xmlns="http://www.w3.org/2000/svg" xmlns:xlink="http://www.w3.org/1999/xlink" width="104" height="104" viewBox="0 0 104 104">
  <defs>
    <clipPath id="clip-icon-user">
      <rect width="104" height="104"/>
    </clipPath>
  </defs>
  <g id="icon-user" clip-path="url(#clip-icon-user)">
    <circle id="Elipse_1" data-name="Elipse 1" cx="52" cy="52" r="52" fill="#ffae5d"/>
    <g id="users-svgrepo-com" transform="translate(14 9.5)">
      <path id="Trazado_1" data-name="Trazado 1" d="M48.968,57.2,37.562,51.112A3.386,3.386,0,0,1,35.818,48.1V43.783c.273-.357.561-.764.858-1.213a29.984,29.984,0,0,0,3.527-7.4,5.091,5.091,0,0,0,2.778-4.613v-5.1a5.29,5.29,0,0,0-1.194-3.348V15.326A12,12,0,0,0,39.29,7C36.837,4.015,32.858,2.5,27.46,2.5S18.083,4.015,15.631,7a12,12,0,0,0-2.5,8.322v6.784a5.29,5.29,0,0,0-1.194,3.348v5.1a5.208,5.208,0,0,0,1.787,3.965,27.51,27.51,0,0,0,4.182,9.231v4.221a3.412,3.412,0,0,1-1.644,2.959L5.614,57.141A11.646,11.646,0,0,0,0,67.245V72.65s13.73,7.106,27.46,7.106,27.46-7.106,27.46-7.106V67.494A11.547,11.547,0,0,0,48.968,57.2Z" fill="#464646"/>
      <path id="Trazado_2" data-name="Trazado 2" d="M62.069,57.238l-12.4-5.37a2.527,2.527,0,0,1-.9-.983l8.322-.006s.481.047,1.227.047a13.4,13.4,0,0,0,5.1-.9,3.788,3.788,0,0,0,1.585-5.65c-2.379-3.385-7.931-12.23-8.1-21.2,0-.154-.506-15.411-15.573-15.535a18.909,18.909,0,0,0-4.3.527A13.778,13.778,0,0,1,37.876,14v6.037a6.969,6.969,0,0,1,1.275,4.006v5.1a7.01,7.01,0,0,1-3.325,5.946,31,31,0,0,1-3.761,7.169q-.287.408-.565.77v3.648a1.431,1.431,0,0,0,.8,1.3l12.185,6.092a13.345,13.345,0,0,1,7.417,12s1.138,5.635,0,6.673-17.922,4.97-17.922,4.97,32.929.574,33.867,0,0-11.2,0-11.2A10.311,10.311,0,0,0,62.069,57.238Z" transform="translate(5.677 1.415)" fill="#464646"/>
    </g>
  </g>
</svg>
