<svg id="Componente_1_1" data-name="Componente 1 – 1" xmlns="http://www.w3.org/2000/svg" width="774" height="771.241" viewBox="0 0 774 771.241">
  <g id="Elipse_1" data-name="Elipse 1" transform="translate(587 35)" fill="#b9bc39" stroke="#414141" stroke-width="10">
    <circle cx="75" cy="75" r="75" stroke="none"/>
    <circle cx="75" cy="75" r="70" fill="none"/>
  </g>
  <rect id="Rectángulo_1" data-name="Rectángulo 1" width="168" height="600" transform="translate(141 161)" fill="#fce8cb"/>
  <g id="Trazado_24" data-name="Trazado 24" transform="translate(14.229 493.968)" fill="#b9bc39">
    <path d="M 72.41966247558594 183.5320281982422 C 60.27287292480469 183.5320281982422 48.90628814697266 180.1989135742188 38.6356201171875 173.6251983642578 C 33.86716461181641 170.5731658935547 29.31499671936035 166.7989501953125 25.10562133789063 162.4074096679688 C 21.06995391845703 158.1970825195313 17.2969970703125 153.3658294677734 13.8915376663208 148.0478668212891 C 10.60974597930908 142.9229431152344 7.638454914093018 137.2992858886719 5.060204982757568 131.3330383300781 C 2.55616307258606 125.5385360717773 0.4084964096546173 119.3892822265625 -1.323128581047058 113.0560302734375 C -3.022545337677002 106.840576171875 -4.32567024230957 100.4334487915039 -5.196295261383057 94.01265716552734 C -6.061378479003906 87.63257598876953 -6.500003814697266 81.23578643798828 -6.500003814697266 74.99999237060547 C -6.500003814697266 67.22353363037109 -5.052711963653564 57.01236724853516 -2.198336839675903 44.65011596679688 C 0.3945797383785248 33.42024230957031 4.155413150787354 20.37457466125488 8.979704856872559 5.875533103942871 C 17.34370422363281 -19.26171684265137 28.87753868103027 -48.62175750732422 41.45653915405273 -76.79617309570313 C 44.81116485595703 -84.30979919433594 47.57974624633789 -91.74713134765625 50.25716400146484 -98.93959045410156 C 53.82003784179688 -108.5105895996094 56.89703750610352 -116.7764282226563 60.47749710083008 -122.8582992553711 C 64.34999847412109 -129.4362945556641 68.32912445068359 -132.5000152587891 73 -132.5000152587891 C 76.16453552246094 -132.5000152587891 79.1962890625 -131.1745147705078 82.26853942871094 -128.4477996826172 C 85.08541107177734 -125.9477615356445 87.89299774169922 -122.3013000488281 90.85174560546875 -117.3000946044922 C 96.42512512207031 -107.8793411254883 101.7613677978516 -94.90525817871094 107.4109115600586 -81.16942596435547 C 109.0700378417969 -77.13558959960938 110.7856597900391 -72.96442413330078 112.5392913818359 -68.80571746826172 C 116.2128295898438 -60.09405136108398 120.047248840332 -51.41754913330078 123.75537109375 -43.02667617797852 C 142.6762847900391 -0.212175041437149 160.5478668212891 40.22790908813477 156.7595367431641 82.95582580566406 L 156.7575836181641 82.97786712646484 L 156.7575836181641 82.99999237060547 C 156.7575836181641 89.29278564453125 156.2891998291016 95.61386871337891 155.3654937744141 101.7876586914063 C 154.4430389404297 107.9527435302734 153.0582122802734 114.026741027832 151.2494506835938 119.8409881591797 C 149.4267883300781 125.6999053955078 147.1563262939453 131.3502349853516 144.5011138916016 136.6351165771484 C 141.8028259277344 142.0057373046875 138.6780395507813 147.0563201904297 135.2135009765625 151.6465759277344 C 127.9642868041992 161.2513275146484 119.2766647338867 168.8539123535156 109.3920822143555 174.2431182861328 C 98.83586883544922 179.99853515625 87.09133148193359 183.1130676269531 74.48466491699219 183.500244140625 C 73.79716491699219 183.5213317871094 73.10237121582031 183.5320281982422 72.41966247558594 183.5320281982422 Z" stroke="none"/>
    <path d="M 73 -132.0000152587891 C 68.52412414550781 -132.0000152587891 64.68191528320313 -129.0145568847656 60.90837097167969 -122.6046295166016 C 57.35024261474609 -116.5607147216797 54.28037261962891 -108.3140106201172 50.72574615478516 -98.76513671875 C 48.04557800292969 -91.56538391113281 45.27420806884766 -84.12046813964844 41.91312408447266 -76.59234619140625 C 29.340576171875 -48.43246459960938 17.81307983398438 -19.08876037597656 9.45416259765625 6.033409118652344 C 4.634780883789063 20.51757431030273 0.8782501220703125 33.54798889160156 -1.711166381835938 44.76261520385742 C -4.557052612304688 57.08803176879883 -6 67.26136779785156 -6 74.99999237060547 C -6 81.21336364746094 -5.562881469726563 87.58757019042969 -4.700790405273438 93.94549560546875 C -3.833175659179688 100.3445281982422 -2.534454345703125 106.7299041748047 -0.8408355712890625 112.9241638183594 C 0.8846282958984375 119.2348251342773 3.0244140625 125.361701965332 5.5191650390625 131.1347045898438 C 8.086746215820313 137.0762329101563 11.0452880859375 142.6759490966797 14.3126220703125 147.7781982421875 C 17.70057678222656 153.0689086914063 21.45332336425781 157.8744506835938 25.46658325195313 162.0614013671875 C 29.64858245849609 166.4244079589844 34.16999816894531 170.1733245849609 38.90516662597656 173.2040710449219 C 49.09403991699219 179.7254486083984 60.36995697021484 183.0320281982422 72.41966247558594 183.0320281982422 C 73.09799957275391 183.0320281982422 73.78758239746094 183.0214080810547 74.46929168701172 183.0004425048828 C 86.996826171875 182.6157073974609 98.66600036621094 179.5216064453125 109.1527099609375 173.8041076660156 C 118.9744567871094 168.4491577148438 127.6082916259766 160.8929138183594 134.8144073486328 151.3453216552734 C 138.2607879638672 146.7791137695313 141.3695373535156 141.7543640136719 144.0543365478516 136.4106597900391 C 146.6972961425781 131.1501159667969 148.9574584960938 125.5253219604492 150.7720336914063 119.6924896240234 C 152.5732421875 113.9025344848633 153.9523315429688 107.8535766601563 154.8710021972656 101.7136535644531 C 155.7910766601563 95.56428527832031 156.2575836181641 89.26807403564453 156.2575836181641 82.99999237060547 L 156.2575836181641 82.95574188232422 L 156.2614898681641 82.91165924072266 C 160.0384521484375 40.31215667724609 142.1921691894531 -0.07067489624023438 123.2980346679688 -42.82459259033203 C 119.5890350341797 -51.21733856201172 115.7537841796875 -59.89584350585938 112.0785827636719 -68.61146545410156 C 110.3240356445313 -72.77230072021484 108.6079559326172 -76.94459533691406 106.948371887207 -80.97950744628906 C 101.3058700561523 -94.69813537597656 95.97633361816406 -107.6559295654297 90.42133331298828 -117.0455932617188 C 87.48941040039063 -122.0014190673828 84.71403503417969 -125.6087951660156 81.93657684326172 -128.0738830566406 C 78.95991516113281 -130.7157592773438 76.0367431640625 -132.0000152587891 73 -132.0000152587891 M 73 -133.0000152587891 C 88.63512420654297 -133.0000152587891 99.30803680419922 -101.469970703125 113 -69.00000762939453 C 135.2244567871094 -16.29567718505859 161.809326171875 31.66161727905273 157.2575836181641 82.99999237060547 C 157.2575836181641 133.8102111816406 127.1234588623047 182.3838195800781 74.5 183.9999847412109 C 73.80301666259766 184.0213928222656 73.10828399658203 184.0320434570313 72.41964721679688 184.0320434570313 C 21.11476135253906 184.0320434570313 -7 125.1372375488281 -7 74.99999237060547 C -7 42.17686462402344 18.34745788574219 -26.26304626464844 41 -77.00001525878906 C 53.28878784179688 -104.5245971679688 58.43441009521484 -133.0000152587891 73 -133.0000152587891 Z" stroke="none" fill="#707070"/>
  </g>
  <path id="Trazado_25" data-name="Trazado 25" d="M58.869-133C71.742-133,80.53-104.357,91.8-74.861c18.3,47.878,40.188,91.444,36.44,138.081,0,46.157-24.811,90.283-68.139,91.751S-7,102.11-7,55.953c0-29.817,20.87-91.99,39.521-138.081C42.639-107.132,46.876-133,58.869-133Z" transform="translate(14.229 517.968)" fill="#d7e057"/>
  <g id="Trazado_21" data-name="Trazado 21" transform="translate(508 362)" fill="#8ac6dd">
    <path d="M 127.5 399.5 L 0.5 399.5 L 0.5 0.5 L 127.5 0.5 L 127.5 187.5625 L 127.5 399.5 Z" stroke="none"/>
    <path d="M 1 1 L 1 399 L 127 399 L 127 187.5625 L 127 1 L 1 1 M 0 0 L 128 0 C 128 0 128 87.5625 128 187.5625 C 128 287.5625 128 400 128 400 L 0 400 L 0 0 Z" stroke="none" fill="#707070"/>
  </g>
  <g id="Trazado_22" data-name="Trazado 22" transform="translate(611 491)" fill="#b9bc39">
    <path d="M 72.41966247558594 183.5320281982422 C 60.27287292480469 183.5320281982422 48.90628814697266 180.1989135742188 38.6356201171875 173.6251983642578 C 33.86716461181641 170.5731658935547 29.31499671936035 166.7989501953125 25.10562133789063 162.4074096679688 C 21.06995391845703 158.1970825195313 17.2969970703125 153.3658294677734 13.8915376663208 148.0478668212891 C 10.60974597930908 142.9229431152344 7.638454914093018 137.2992858886719 5.060204982757568 131.3330383300781 C 2.55616307258606 125.5385360717773 0.4084964096546173 119.3892822265625 -1.323128581047058 113.0560302734375 C -3.022545337677002 106.840576171875 -4.32567024230957 100.4334487915039 -5.196295261383057 94.01265716552734 C -6.061378479003906 87.63257598876953 -6.500003814697266 81.23578643798828 -6.500003814697266 74.99999237060547 C -6.500003814697266 67.22353363037109 -5.052711963653564 57.01236724853516 -2.198336839675903 44.65011596679688 C 0.3945797383785248 33.42024230957031 4.155413150787354 20.37457466125488 8.979704856872559 5.875533103942871 C 17.34370422363281 -19.26171684265137 28.87753868103027 -48.62175750732422 41.45653915405273 -76.79617309570313 C 44.81116485595703 -84.30979919433594 47.57974624633789 -91.74713134765625 50.25716400146484 -98.93959045410156 C 53.82003784179688 -108.5105895996094 56.89703750610352 -116.7764282226563 60.47749710083008 -122.8582992553711 C 64.34999847412109 -129.4362945556641 68.32912445068359 -132.5000152587891 73 -132.5000152587891 C 76.16453552246094 -132.5000152587891 79.1962890625 -131.1745147705078 82.26853942871094 -128.4477996826172 C 85.08541107177734 -125.9477615356445 87.89299774169922 -122.3013000488281 90.85174560546875 -117.3000946044922 C 96.42512512207031 -107.8793411254883 101.7613677978516 -94.90525817871094 107.4109115600586 -81.16942596435547 C 109.0700378417969 -77.13558959960938 110.7856597900391 -72.96442413330078 112.5392913818359 -68.80571746826172 C 116.2128295898438 -60.09405136108398 120.047248840332 -51.41754913330078 123.75537109375 -43.02667617797852 C 142.6762847900391 -0.212175041437149 160.5478668212891 40.22790908813477 156.7595367431641 82.95582580566406 L 156.7575836181641 82.97786712646484 L 156.7575836181641 82.99999237060547 C 156.7575836181641 89.29278564453125 156.2891998291016 95.61386871337891 155.3654937744141 101.7876586914063 C 154.4430389404297 107.9527435302734 153.0582122802734 114.026741027832 151.2494506835938 119.8409881591797 C 149.4267883300781 125.6999053955078 147.1563262939453 131.3502349853516 144.5011138916016 136.6351165771484 C 141.8028259277344 142.0057373046875 138.6780395507813 147.0563201904297 135.2135009765625 151.6465759277344 C 127.9642868041992 161.2513275146484 119.2766647338867 168.8539123535156 109.3920822143555 174.2431182861328 C 98.83586883544922 179.99853515625 87.09133148193359 183.1130676269531 74.48466491699219 183.500244140625 C 73.79716491699219 183.5213317871094 73.10237121582031 183.5320281982422 72.41966247558594 183.5320281982422 Z" stroke="none"/>
    <path d="M 73 -132.0000152587891 C 68.52412414550781 -132.0000152587891 64.68191528320313 -129.0145568847656 60.90837097167969 -122.6046295166016 C 57.35024261474609 -116.5607147216797 54.28037261962891 -108.3140106201172 50.72574615478516 -98.76513671875 C 48.04557800292969 -91.56538391113281 45.27420806884766 -84.12046813964844 41.91312408447266 -76.59234619140625 C 29.340576171875 -48.43246459960938 17.81307983398438 -19.08876037597656 9.45416259765625 6.033409118652344 C 4.634780883789063 20.51757431030273 0.8782501220703125 33.54798889160156 -1.711166381835938 44.76261520385742 C -4.557052612304688 57.08803176879883 -6 67.26136779785156 -6 74.99999237060547 C -6 81.21336364746094 -5.562881469726563 87.58757019042969 -4.700790405273438 93.94549560546875 C -3.833175659179688 100.3445281982422 -2.534454345703125 106.7299041748047 -0.8408355712890625 112.9241638183594 C 0.8846282958984375 119.2348251342773 3.0244140625 125.361701965332 5.5191650390625 131.1347045898438 C 8.086746215820313 137.0762329101563 11.0452880859375 142.6759490966797 14.3126220703125 147.7781982421875 C 17.70057678222656 153.0689086914063 21.45332336425781 157.8744506835938 25.46658325195313 162.0614013671875 C 29.64858245849609 166.4244079589844 34.16999816894531 170.1733245849609 38.90516662597656 173.2040710449219 C 49.09403991699219 179.7254486083984 60.36995697021484 183.0320281982422 72.41966247558594 183.0320281982422 C 73.09799957275391 183.0320281982422 73.78758239746094 183.0214080810547 74.46929168701172 183.0004425048828 C 86.996826171875 182.6157073974609 98.66600036621094 179.5216064453125 109.1527099609375 173.8041076660156 C 118.9744567871094 168.4491577148438 127.6082916259766 160.8929138183594 134.8144073486328 151.3453216552734 C 138.2607879638672 146.7791137695313 141.3695373535156 141.7543640136719 144.0543365478516 136.4106597900391 C 146.6972961425781 131.1501159667969 148.9574584960938 125.5253219604492 150.7720336914063 119.6924896240234 C 152.5732421875 113.9025344848633 153.9523315429688 107.8535766601563 154.8710021972656 101.7136535644531 C 155.7910766601563 95.56428527832031 156.2575836181641 89.26807403564453 156.2575836181641 82.99999237060547 L 156.2575836181641 82.95574188232422 L 156.2614898681641 82.91165924072266 C 160.0384521484375 40.31215667724609 142.1921691894531 -0.07067489624023438 123.2980346679688 -42.82459259033203 C 119.5890350341797 -51.21733856201172 115.7537841796875 -59.89584350585938 112.0785827636719 -68.61146545410156 C 110.3240356445313 -72.77230072021484 108.6079559326172 -76.94459533691406 106.948371887207 -80.97950744628906 C 101.3058700561523 -94.69813537597656 95.97633361816406 -107.6559295654297 90.42133331298828 -117.0455932617188 C 87.48941040039063 -122.0014190673828 84.71403503417969 -125.6087951660156 81.93657684326172 -128.0738830566406 C 78.95991516113281 -130.7157592773438 76.0367431640625 -132.0000152587891 73 -132.0000152587891 M 73 -133.0000152587891 C 88.63512420654297 -133.0000152587891 99.30803680419922 -101.469970703125 113 -69.00000762939453 C 135.2244567871094 -16.29567718505859 161.809326171875 31.66161727905273 157.2575836181641 82.99999237060547 C 157.2575836181641 133.8102111816406 127.1234588623047 182.3838195800781 74.5 183.9999847412109 C 73.80301666259766 184.0213928222656 73.10828399658203 184.0320434570313 72.41964721679688 184.0320434570313 C 21.11476135253906 184.0320434570313 -7 125.1372375488281 -7 74.99999237060547 C -7 42.17686462402344 18.34745788574219 -26.26304626464844 41 -77.00001525878906 C 53.28878784179688 -104.5245971679688 58.43441009521484 -133.0000152587891 73 -133.0000152587891 Z" stroke="none" fill="#707070"/>
  </g>
  <path id="Trazado_23" data-name="Trazado 23" d="M58.869-133C71.742-133,80.53-104.357,91.8-74.861c18.3,47.878,40.188,91.444,36.44,138.081,0,46.157-24.811,90.283-68.139,91.751S-7,102.11-7,55.953c0-29.817,20.87-91.99,39.521-138.081C42.639-107.132,46.876-133,58.869-133Z" transform="translate(611 515)" fill="#d7e057"/>
  <path id="Trazado_20" data-name="Trazado 20" d="M20.11,224l96.76,104.667L192,424H8V240Z" transform="translate(308 -202)" fill="#ee6b79"/>
  <path id="Trazado_19" data-name="Trazado 19" d="M0,216l184-2.25V760H0Z" transform="translate(316 6)" fill="#ee6b79"/>
  <path id="Trazado_1" data-name="Trazado 1" d="M414.041-476.937c-2.4,2.4-2.748,11.337-.515,14.772a4.625,4.625,0,0,0,4.638,1.718c2.748-.515,3.264-2.061,3.264-9.1C421.427-478.483,418.506-481.4,414.041-476.937Z" transform="translate(243.918 479.002)" fill="#414141"/>
  <path id="Trazado_2" data-name="Trazado 2" d="M351.614-465.422a24.078,24.078,0,0,0-9.1,8.073c-3.264,5.325-3.435,8.588-3.435,65.272V-332.3l-78.5.172c-84.853,0-87.6.344-93.957,8.932-3.435,4.638-3.607,7.214-4.122,60.29-.344,48.1-.172,55.825,2.061,57.714,1.546,1.2,3.951,1.718,5.325,1.031,2.233-.859,2.577-8.417,2.577-56,0-52.733.172-55.138,3.435-58.4S181.564-322,259.2-322h79.872V274.038H172.46v-99.8l7.042-8.932c3.951-4.981,10.134-15.116,13.913-22.673l6.527-13.741L258,128.035l57.886-.859V77.364l-53.42-.515-53.42-.344-1.2-13.4c-.515-7.214-1.546-15.287-2.061-17.864l-1.031-4.81,55.481-.344,55.653-.515V-10.238H195.649l-.515,7.73c-.515,7.386-.859,7.042-11.165-18.894l-10.65-26.624-.859-56.683c-.859-53.763-1.031-56.683-4.122-57.2a4.625,4.625,0,0,0-4.638,1.718c-.859,1.2-1.546,21.127-1.546,44.316v42.083L151.333-96.637c-5.84-12.367-12.711-25.422-15.459-28.685-8.76-10.993-24.563-11.165-32.808-.344C94.478-114.5,58.063-32.911,46.555.927,34.187,36.827,30.924,52.8,31.1,76.505c0,17.349.859,24.735,4.466,38.132,9.791,37.1,33.151,68.192,58.745,77.811l7.73,3.092v78.5l-35.556.344c-33.323.515-35.728.687-36.243,3.779a4.625,4.625,0,0,0,1.718,4.638c1.2.859,174.344,1.546,384.588,1.546,337.867,0,382.7-.344,384.588-2.577,1.718-2.061,1.718-3.092,0-5.153s-7.9-2.577-35.384-2.577H732.423V195.884l12.024-5.668c22.5-10.478,43.457-37.789,52.9-69.051,4.809-16.146,7.73-41.568,6.527-56.512C801.3,36.827,786.874-7.318,762.139-63.486c-16.833-37.789-28.513-61.149-32.636-64.928-8.245-7.214-21.986-6.7-29.544,1.031-2.061,2.233-9.1,14.772-15.631,28L672.476-75.509l-.172-22.33c-.172-23.876-1.2-27.139-9.791-31.605-2.577-1.2-23.017-1.889-63.9-1.889H538.326v-66.818c0-36.758-.515-69.222-1.031-72.143-.859-3.951-16.318-22.673-55.137-66.3-29.544-33.495-54.966-60.978-56.168-60.978-3.435,0-6.7,4.638-5.153,7.214.687,1.2,13.054,15.287,27.311,31.434,14.257,15.974,37.617,42.6,52.046,58.916L526.3-270.466V272.32H351.1V-89.766c0-279.294.515-362.6,2.061-364.148,4.81-4.81,9.275-2.061,22.845,13.4,9.963,11.508,14.428,15.459,17.005,15.116,7.042-1.031,4.809-7.042-8.588-21.986-11.852-13.4-20.956-20.784-25.593-20.612A42.288,42.288,0,0,0,351.614-465.422ZM126.77-120.684c8.417,7.386,50.671,103.4,61.836,140.678,10.993,36.758,12.539,63.211,5.5,91.38-9.963,39.163-31.777,65.959-60.462,74.375C97.4,196.227,59.094,164.278,45.18,111.717,40.2,93.51,39.856,62.077,44.15,44.385c7.73-32.292,24.906-77.124,49.3-129.341C112.342-125.494,116.292-129.788,126.77-120.684Zm593.8-2.061c5.5,3.092,31.262,57.027,50.5,106.5,25.593,65.272,29.029,98.595,14.772,140.506-9.275,26.968-25.593,47.236-46.377,57.542-9.619,4.638-13.054,5.5-24.219,5.5s-14.6-.687-24.735-5.84C649.8,161.53,627.3,100.9,639.669,44.9c6.871-31.262,23.876-76.093,50.672-133.464C706.143-122.23,710.952-127.727,720.571-122.746Zm-60.634,3.779C661.311-117.592,662-107.286,662-84.1V-51.29l-6.184,15.459c-3.435,8.417-8.76,22.158-11.852,30.4l-5.5,15.287L602.91,9.516c-24.906,0-36.415.515-38.132,1.889-3.092,2.577-3.435,42.77-.344,45.862,1.374,1.374,10.993,2.061,31.777,2.061h29.716v29.2H596.211c-20.784,0-30.4.687-31.777,2.061s-2.061,8.932-2.061,22.845.687,21.471,2.061,22.845c2.748,2.748,69.394,2.92,71.112.172.687-1.031,3.951,3.264,7.558,10.306,3.607,6.7,9.275,15.631,12.711,19.753L662,174.069v99.969H538.326V-121.028H598.1C642.245-121.028,658.391-120.513,659.937-118.967ZM162.154,228.52v45.518H136.389V234.875l.172-38.991,12.367-6.184c6.871-3.435,12.539-6.355,12.883-6.527C161.982,183.173,162.154,203.441,162.154,228.52Zm523.892-38.3,12.024,5.668v78.154H672.3v-44.66c0-24.563.515-44.66,1.031-44.66S679.519,187.3,686.046,190.215Z" transform="translate(-30.149 486.897)" fill="#414141"/>
  <path id="Trazado_5" data-name="Trazado 5" d="M369.558-458.134c-1.546,4.466,10.306,15.287,13.913,12.367,3.435-2.92,3.092-4.981-2.233-10.478C376.085-461.741,371.275-462.428,369.558-458.134Z" transform="translate(213.338 491.976)" fill="#414141"/>
  <path id="Trazado_6" data-name="Trazado 6" d="M456.57-456.432c-8.588,8.932-3.779,15.8,5.668,7.73,3.435-2.92,5.153-5.668,4.81-8.073C466.361-462.1,461.895-461.928,456.57-456.432Z" transform="translate(272.672 490.664)" fill="#414141"/>
  <path id="Trazado_8" data-name="Trazado 8" d="M352.471-415.4c-3.264,3.951.859,7.73,8.588,7.73,6.871,0,11.337-3.435,9.619-7.73C369.476-418.832,355.391-419,352.471-415.4Z" transform="translate(200.366 522.755)" fill="#414141"/>
  <path id="Trazado_9" data-name="Trazado 9" d="M469.208-417.057c-2.233,2.233-1.2,7.214,1.546,8.245,3.779,1.546,11.508,1.2,14.085-.515a4.625,4.625,0,0,0,1.718-4.638c-.344-2.576-2.233-3.435-8.245-3.779C474.018-418.087,469.9-417.744,469.208-417.057Z" transform="translate(284.081 522.869)" fill="#414141"/>
  <path id="Trazado_11" data-name="Trazado 11" d="M373.964-373.044c-5.5,5.668-5.668,6.184-3.092,8.932,2.748,2.577,3.264,2.577,7.214,0,5.153-3.435,8.588-9.1,7.214-12.539C383.754-380.6,380.147-379.4,373.964-373.044Z" transform="translate(213.226 549.328)" fill="#414141"/>
  <path id="Trazado_12" data-name="Trazado 12" d="M453.073-377.827c-3.951,3.951,6.184,17.52,11.508,15.459,4.122-1.718,3.264-6.871-2.061-12.024C457.711-379.029,455.134-380.06,453.073-377.827Z" transform="translate(272.734 549.301)" fill="#414141"/>
  <path id="Trazado_13" data-name="Trazado 13" d="M413.838-359.858c-4.122,7.73-.515,18.723,5.5,16.318,4.294-1.546,3.607-18.379-.859-19.238C416.93-363.121,414.869-361.747,413.838-359.858Z" transform="translate(243.948 560.876)" fill="#414141"/>
  <path id="Trazado_16" data-name="Trazado 16" d="M126.546-302.185c-.322,1.009-.483,10.662-.322,21.323l.483,19.306H239.48v-41.782l-56.064-.432C138.307-304.058,127.191-303.77,126.546-302.185Z" transform="translate(41.839 610.613)" fill="#707070" stroke="#414141" stroke-linejoin="round" stroke-width="8"/>
  <circle id="Elipse_2" data-name="Elipse 2" cx="57" cy="57" r="57" transform="translate(598 47)" fill="#d7e057"/>
  <path id="Trazado_26" data-name="Trazado 26" d="M126.546-302.185c-.322,1.009-.483,10.662-.322,21.323l.483,19.306H239.48v-41.782l-56.064-.432C138.307-304.058,127.191-303.77,126.546-302.185Z" transform="translate(41.839 696.613)" fill="#707070" stroke="#414141" stroke-linejoin="round" stroke-width="8"/>
  <path id="Trazado_27" data-name="Trazado 27" d="M126.546-302.185c-.322,1.009-.483,10.662-.322,21.323l.483,19.306H239.48v-41.782l-56.064-.432C138.307-304.058,127.191-303.77,126.546-302.185Z" transform="translate(42.52 784.555)" fill="#707070" stroke="#414141" stroke-linejoin="round" stroke-width="8"/>
  <path id="Trazado_28" data-name="Trazado 28" d="M126.542-302.185c-.318,1.009-.478,10.662-.318,21.323l.478,19.306h111.46v-41.782l-55.411-.432C138.165-304.058,127.179-303.77,126.542-302.185Z" transform="translate(45.839 871.869)" fill="#707070" stroke="#414141" stroke-linejoin="round" stroke-width="8"/>
  <path id="Trazado_29" data-name="Trazado 29" d="M126.546-302.185c-.322,1.009-.483,10.662-.322,21.323l.483,19.306H239.48v-41.782l-56.064-.432C138.307-304.058,127.191-303.77,126.546-302.185Z" transform="translate(41.839 960.869)" fill="#707070" stroke="#414141" stroke-linejoin="round" stroke-width="8"/>
  <path id="Trazado_30" data-name="Trazado 30" d="M126.546-302.185c-.322,1.009-.483,10.662-.322,21.323l.483,19.306H239.48v-41.782l-56.064-.432C138.307-304.058,127.191-303.77,126.546-302.185Z" transform="translate(41.839 519.869)" fill="#707070" stroke="#414141" stroke-linejoin="round" stroke-width="8"/>
  <path id="Trazado_31" data-name="Trazado 31" d="M126.274-281.335c-.095,13.5-.142,142.694-.095,285.388l.142,258.391H159.48V-296.761L143-302.546C129.732-306.4,126.464-302.546,126.274-281.335Z" transform="translate(229.839 437.869)" fill="#707070" stroke="#414141" stroke-linejoin="round" stroke-width="8"/>
  <path id="Trazado_32" data-name="Trazado 32" d="M126.274-285.473c-.095,11.02-.142,116.489-.095,232.978l.142,210.939H159.48V-298.066L143-302.789C129.732-305.937,126.464-302.789,126.274-285.473Z" transform="translate(302.839 541.869)" fill="#707070" stroke="#414141" stroke-linejoin="round" stroke-width="8"/>
  <path id="Trazado_33" data-name="Trazado 33" d="M126.383-302.185c-.186,1.009-.279,10.662-.186,21.323l.279,19.306h65v-41.782l-32.316-.432C133.162-304.058,126.754-303.77,126.383-302.185Z" transform="translate(411.52 724.869)" fill="#707070" stroke="#414141" stroke-linejoin="round" stroke-width="8"/>
  <path id="Trazado_34" data-name="Trazado 34" d="M126.383-302.185c-.186,1.009-.279,10.662-.186,21.323l.279,19.306h65v-41.782l-32.316-.432C133.162-304.058,126.754-303.77,126.383-302.185Z" transform="translate(409.52 963.555)" fill="#707070" stroke="#414141" stroke-linejoin="round" stroke-width="8"/>
  <path id="Trazado_35" data-name="Trazado 35" d="M126.383-302.185c-.186,1.009-.279,10.662-.186,21.323l.279,19.306h65v-41.782l-32.316-.432C133.162-304.058,126.754-303.77,126.383-302.185Z" transform="translate(409.52 803.555)" fill="#707070" stroke="#414141" stroke-linejoin="round" stroke-width="8"/>
  <path id="Trazado_36" data-name="Trazado 36" d="M126.383-302.185c-.186,1.009-.279,10.662-.186,21.323l.279,19.306h65v-41.782l-32.316-.432C133.162-304.058,126.754-303.77,126.383-302.185Z" transform="translate(409.52 883.555)" fill="#707070" stroke="#414141" stroke-linejoin="round" stroke-width="8"/>
  <path id="Trazado_37" data-name="Trazado 37" d="M126.218-300.872c-.048,1.8-.072,18.977-.048,37.953l.072,34.363h16.805v-74.368l-8.354-.769C127.971-304.206,126.314-303.693,126.218-300.872Z" transform="translate(-46.404 989.869)" fill="#707070"/>
  <path id="Trazado_38" data-name="Trazado 38" d="M126.218-300.872c-.048,1.8-.072,18.977-.048,37.953l.072,34.363h16.805v-74.368l-8.354-.769C127.971-304.206,126.314-303.693,126.218-300.872Z" transform="translate(549.839 989.869)" fill="#707070"/>
</svg>
