<svg width="512" height="512" viewBox="0 0 512 512" fill="none" xmlns="http://www.w3.org/2000/svg">
<mask id="path-1-inside-1_3_14" fill="white">
<path d="M0 70C0 31.3401 31.3401 0 70 0H442C480.66 0 512 31.3401 512 70V442C512 480.66 480.66 512 442 512H5C2.23858 512 0 509.761 0 507V70Z"/>
</mask>
<path d="M0 70C0 31.3401 31.3401 0 70 0H442C480.66 0 512 31.3401 512 70V442C512 480.66 480.66 512 442 512H5C2.23858 512 0 509.761 0 507V70Z" fill="#0097A7" stroke="#F5F5F5" stroke-width="50" mask="url(#path-1-inside-1_3_14)"/>
<path d="M267.324 368.77H317.241V382.28V406.551C317.241 406.551 319.76 417.771 328.69 417.771H339.681C348.611 417.771 351.129 406.551 351.129 406.551V386.859V382.28V368.77C379.98 366.023 380.209 343.354 380.209 343.354V243.063C380.209 239.399 379.293 223.6 379.293 223.6L372.195 143.688C371.05 120.79 353.877 115.524 353.877 115.524C317.241 96.9767 282.208 94 282.208 94H262.974H249.235H229.772C229.772 94 194.739 96.9767 158.332 115.753C158.332 115.753 140.93 121.019 139.785 143.917L132.916 223.829C132.916 223.829 132 239.399 132 243.292V343.583C132 343.583 132.458 366.252 161.08 368.999V382.509V387.088V406.78C161.08 406.78 163.599 418 172.529 418H183.29C192.221 418 194.739 406.78 194.739 406.78V382.509V368.999H244.656H267.324V368.77Z" fill="#F5F5F5"/>
<path d="M167.033 318.396C176.192 318.396 183.977 311.069 183.977 301.91C183.977 292.522 176.192 285.194 167.033 285.194C157.645 285.194 149.86 292.522 149.86 301.91C149.86 311.069 157.645 318.396 167.033 318.396Z" fill="#0097A7"/>
<path d="M345.176 318.396C335.788 318.396 328.232 311.069 328.232 301.91C328.232 292.522 336.017 285.194 345.176 285.194C354.335 285.194 362.349 292.522 362.349 301.91C362.12 311.069 354.335 318.396 345.176 318.396Z" fill="#0097A7"/>
<path d="M269.398 225H341.209C354.714 225 356 210.446 356 210.446C356 210.446 352.785 179.519 351.07 164.359C349.14 149.199 334.778 150.008 334.778 150.008H268.969H243.031H177.222C177.222 150.008 162.86 149.199 160.93 164.359C159.215 179.317 156 210.446 156 210.446C156 210.446 157.286 225 170.791 225H242.388H269.398Z" fill="#0097A7"/>
</svg>
