<svg xmlns="http://www.w3.org/2000/svg" xmlns:xlink="http://www.w3.org/1999/xlink" width="1920" height="960" viewBox="0 0 1920 960">
  <defs>
    <clipPath id="clip-path">
      <rect id="Rectángulo_2" data-name="Rectángulo 2" width="1920" height="960"/>
    </clipPath>
  </defs>
  <g id="Mesa_de_trabajo_1" data-name="Mesa de trabajo – 1" clip-path="url(#clip-path)">
    <rect id="Rectángulo_1" data-name="Rectángulo 1" width="1920" height="960" fill="#fff"/>
    <g id="_1554564806" data-name="1554564806" transform="translate(14 -26.726)">
      <path id="rect5359" d="M0,0H1920V960H0Z" transform="translate(-14 27)" fill="#040348"/>
      <g id="g4092" transform="translate(1603.326 64.726)">
        <path id="use4032" d="M145.03-75.953C55.713-77.3-21.531,9.528-11.844,98.033c8.149,82.508,91.04,149.3,173.689,138.266,68.981-7.28,131.152-64.048,138.292-134.1,9.663-72.85-37.508-148.844-107.81-170.942A136.106,136.106,0,0,0,145.03-75.953Z" transform="translate(-72.718 76.011)" fill="rgba(255,252,238,0.12)"/>
        <path id="use4004" d="M141.973-19.536c-66.714,2.26-115.79,79.843-91.685,141.572,15.994,46.122,68.409,73.15,115.951,64.932,39.877-5.617,75.775-35.908,83.837-76.141C263.5,55.224,225.708-9,168.13-18.087a139.735,139.735,0,0,0-26.157-1.449Z" transform="translate(-80.74 76.011)" fill="rgba(255,245,205,0.17)"/>
        <path id="use3778" d="M147.071,16.732C98.686,16.554,64.18,75.754,88.087,118.181c19.152,40.118,79.428,50.926,110.81,18.494,33.324-30.721,25.2-93.181-16.361-112.1a70.5,70.5,0,0,0-35.465-7.843Z" transform="translate(-83.769 76.011)" fill="#ffe580"/>
        <path id="path5357" d="M146.355,21.414C92.618,20.052,62.9,98.537,104.446,132.7c31.231,30.448,94.493,18.951,106.2-25.68C224.367,66.113,191.9,16.811,146.355,21.414Z" transform="translate(-82.434 76.011)" fill="#ffee81"/>
        <path id="path5357-2" data-name="path5357" d="M153.17,118.947c-13,18.856-75.316-5.5-47.977,16.405,33.049,32.357,99.993,20.139,112.382-27.29C234.634,63.427,162.668,98.415,153.17,118.947Z" transform="translate(9.595 327.471) rotate(-100)" fill="#fcdb56"/>
      </g>
      <g id="g4150" transform="translate(294 430.534)" opacity="0.73">
        <path id="path5345" d="M235.6,380.378S501.91,161.1,523.286,145.953c21.376-15.07,17.813-22.73,64.128,16.566C631.948,201.888,904.493,447,904.493,447Z" transform="translate(319.14 32.65)" fill="#80a4a4"/>
        <path id="path5347" d="M536.563,133.723c-6.939.52-12.143,5.481-20.816,11.9C494.931,160.367,235.6,373.9,235.6,373.9l300.963,30.01Z" transform="translate(318.959 32.636)" fill="#628989"/>
        <path id="path5349" d="M427.074,133.731c-6.115.459-10.7,4.83-18.344,10.486-3.057,2.6-16.815,12.841-33.63,26.9,0,5.2,0,10.242,1.529,12.688,4.586,6.267,25.987-5.809,25.987-5.809s3.057,16.2,24.458,16.2c16.815,0,18.344-20.79,18.344-20.79s29.044,18.8,38.216,9.019c1.529-1.223,1.529-2.9,1.529-5.044-10.7-8.255-16.815-14.828-21.4-18.955C442.36,139.479,433.188,133.273,427.074,133.731Z" transform="translate(435.096 24.067)" fill="#e7e7e7"/>
        <path id="path5351" d="M428.006,133.723c-6.224.459-10.892,4.832-18.673,10.491-3.112,2.6-17.117,12.846-34.233,26.914,0,5.2,0,10.246,1.556,12.693,4.668,6.27,26.453-5.811,26.453-5.811s3.112,16.21,24.9,16.21h1.556v-60.5Z" transform="translate(429.8 24.052)" fill="#e7e7e7"/>
        <path id="path4811" d="M285.082,102.973c-5.461.6-9.753,7.781-18.075,17.014C248.8,140.166,39.965,414.893,21.5,438.479v9.072l587.24,91.925S365.574,197.982,324.092,143.17C301.206,112.327,292.1,102.207,285.082,102.973Z" transform="translate(-88.849 -68.235) rotate(-6.024)" fill="#87a9a9"/>
        <path id="path5328" d="M449.058,102.953c-8.829.683-15.556,8.788-29.01,19.216C391.878,144.048,73.186,426.32,20,473.449v19.58l430.74,46.446V102.953Z" transform="translate(-245.84 -102.933)" fill="#628989"/>
        <path id="path5335" d="M240.965,102.971c-5.911.571-10.415,7.353-19.422,16.077-4.222,4.057-18.718,19.677-38.562,41.374-.563,7.753-.422,15.563,1.83,19.373,5.489,9.524,29.414-8.953,29.414-8.953s2.956,24.764,28.007,24.764c19,0,19.844-31.735,19.844-31.735S296.7,192.748,305.7,177.7c1.407-1.9,2.815-4.572,1.407-7.81-9.992-12.591-18.578-22.8-23.785-28.935C258.557,111.81,248.565,102.247,240.965,102.971Z" transform="translate(-32.267 -122.326) rotate(3)" fill="#f2f2f2"/>
        <path id="path5340" d="M249.657,102.953c-6.793.57-11.968,7.332-22.319,16.032-4.852,4.046-21.511,19.622-44.315,41.258-.647,7.731-.485,15.519,2.1,19.318,6.308,9.5,33.8-8.928,33.8-8.928s3.4,24.694,32.185,24.694h.162V102.953Z" transform="translate(-46.755 -109.774)" fill="#e7e7e7"/>
      </g>
      <path id="rect5363" d="M1920,219.083c-18.638,1.732-37.276,3.96-59.02,6.928-102.508,14.85-416.243,83.65-627.471,96.023-208.122,12.127-588.332-71.275-770.361-76.223C280.84,240.861,3.106,277.735,3.106,277.735L0,279.963v172H1920Z" transform="translate(-14 534.763)" fill="#96cb78" opacity="0.97"/>
      <path id="use3927" d="M0,281.807c18.638,1.432,37.276,3.271,59.02,5.724,102.508,12.263,416.243,69.079,627.471,79.3,208.122,10.014,588.332-58.861,770.361-62.95,182.308-4.086,460.042,26.365,460.042,26.365l3.106,1.839V474.127H0Z" transform="translate(-14 512.599)" fill="#77b155"/>
    </g>
    <path id="use3927-2" data-name="use3927" d="M0,281.807c18.638,1.432,37.276,3.271,59.02,5.724,102.508,12.263,416.243,69.079,627.471,79.3,208.122,10.014,588.332-58.861,770.361-62.95,182.308-4.086,460.042,26.365,460.042,26.365l3.106,1.839V474.127H0Z" transform="translate(-7 485.873)" fill="#5f9e3a"/>
    <g id="bus-svgrepo-com" transform="translate(388.572 619.295)" opacity="0.84">
      <g id="Grupo_3" data-name="Grupo 3" transform="translate(114.949 293.631)">
        <g id="Grupo_2" data-name="Grupo 2" transform="translate(314.457)">
          <line id="Línea_2" data-name="Línea 2" y2="24.245" transform="translate(12.473 11.354)" fill="#387f9e"/>
          <path id="Trazado_2" data-name="Trazado 2" d="M289.167,291.492c-6.888,0-12.473-5.084-12.473-11.354V255.892c0-6.271,5.585-11.354,12.473-11.354s12.473,5.084,12.473,11.354v24.245C301.64,286.408,296.056,291.492,289.167,291.492Z" transform="translate(-276.694 -244.538)" fill="#387f9e"/>
        </g>
        <g id="Grupo_17" data-name="Grupo 17" transform="translate(-2.544)">
          <line id="Línea_2-2" data-name="Línea 2" y2="24.245" transform="translate(12.473 11.354)" fill="#387f9e"/>
          <path id="Trazado_2-2" data-name="Trazado 2" d="M289.167,291.492c-6.888,0-12.473-5.084-12.473-11.354V255.892c0-6.271,5.585-11.354,12.473-11.354s12.473,5.084,12.473,11.354v24.245C301.64,286.408,296.056,291.492,289.167,291.492Z" transform="translate(-276.694 -244.538)" fill="#387f9e"/>
        </g>
      </g>
      <path id="Trazado_3" data-name="Trazado 3" d="M44.168,331.186c-6.219,0-11.26-7.575-11.26-16.919V78.175c0-9.344,5.042-16.919,11.26-16.919s11.26,7.575,11.26,16.919V314.267C55.429,323.611,50.387,331.186,44.168,331.186Z" transform="translate(-8.204 2.631)" fill="#83cfe0"/>
      <path id="Trazado_4" data-name="Trazado 4" d="M44.168,331.186c-6.219,0-11.26-7.575-11.26-16.919V78.175c0-9.344,5.042-16.919,11.26-16.919Z" transform="translate(-8.204 2.631)" fill="#649aa6"/>
      <path id="Trazado_5" data-name="Trazado 5" d="M490.154,254.2H125.372c-8.026,0-14.532-2.711-14.532-6.056V231.789c0-3.344,6.507-6.056,14.532-6.056H490.154c8.026,0,14.532,2.711,14.532,6.056v16.358C504.686,251.491,498.179,254.2,490.154,254.2Z" transform="translate(-19.026 53.664)" fill="#f79f4b"/>
      <path id="Trazado_6" data-name="Trazado 6" d="M230.517,254.166H119.672c-4.877,0-8.832-2.708-8.832-6.048V231.781c0-3.34,3.954-6.048,8.832-6.048H230.517Z" transform="translate(-22.026 53.664)" fill="#ca8540"/>
      <path id="Trazado_26" data-name="Trazado 26" d="M44.168,331.186c-6.219,0-11.26-7.575-11.26-16.919V78.175c0-9.344,5.042-16.919,11.26-16.919s11.26,7.575,11.26,16.919V314.267C55.429,323.611,50.387,331.186,44.168,331.186Z" transform="translate(489.796 2.631)" fill="#83cfe0"/>
      <path id="Trazado_27" data-name="Trazado 27" d="M44.168,331.186c-6.219,0-11.26-7.575-11.26-16.919V78.175c0-9.344,5.042-16.919,11.26-16.919Z" transform="translate(489.796 2.631)" fill="#649aa6"/>
      <path id="Trazado_7" data-name="Trazado 7" d="M576,94.761v1.927H15c0-30.928,38.944-56,86.986-56H489.012C537.054,40.688,576,63.832,576,94.761Z" transform="translate(1.919)" fill="#858ea4"/>
      <path id="Trazado_8" data-name="Trazado 8" d="M296,96.688H15c0-30.928,39.014-56,87.141-56H296Z" transform="translate(-7.081)" fill="#707789"/>
      <path id="Trazado_9" data-name="Trazado 9" d="M60.668,299.293H11.26a11.363,11.363,0,1,1,0-22.725H60.668a11.363,11.363,0,1,1,0,22.726Z" transform="translate(0 41.292)" fill="#29556e"/>
      <path id="Trazado_28" data-name="Trazado 28" d="M60.668,299.293H11.26a11.363,11.363,0,1,1,0-22.725H60.668a11.363,11.363,0,1,1,0,22.726Z" transform="translate(498 41.292)" fill="#29556e"/>
    </g>
    <g id="lamppost-svgrepo-com" transform="translate(34.832 568)">
      <path id="Trazado_10" data-name="Trazado 10" d="M196.668,378.371a15,15,0,0,1-15-15v-243.5a15,15,0,0,1,30,0v243.5a15,15,0,0,1-15,15Z" fill="#858ea4"/>
      <path id="Trazado_11" data-name="Trazado 11" d="M196.668,378.371a15,15,0,0,1-15-15v-243.5a15,15,0,0,1,15-15Z" fill="#707789"/>
      <path id="Trazado_12" data-name="Trazado 12" d="M224.168,123.9h-56l-18-82.9,46-41,46,41Z" fill="#cfb85c"/>
      <path id="Trazado_13" data-name="Trazado 13" d="M196.168,123.9h-28l-18-82.9,46-41Z" fill="#ae984f"/>
      <g id="Grupo_6" data-name="Grupo 6">
        <g id="Grupo_5" data-name="Grupo 5">
          <g id="Grupo_4" data-name="Grupo 4">
            <path id="Trazado_14" data-name="Trazado 14" d="M150.168,41l2.823,13h86.355l2.822-13Z" fill="#13324c"/>
          </g>
        </g>
      </g>
      <g id="Grupo_9" data-name="Grupo 9">
        <g id="Grupo_8" data-name="Grupo 8">
          <g id="Grupo_7" data-name="Grupo 7">
            <path id="Trazado_15" data-name="Trazado 15" d="M150.168,41l2.823,13h43.177V41Z" fill="#29556e"/>
          </g>
        </g>
      </g>
      <g id="Grupo_10" data-name="Grupo 10">
        <path id="Trazado_16" data-name="Trazado 16" d="M236.168,392.336h-80a15,15,0,1,1,0-30h80a15,15,0,0,1,0,30Z" fill="#387f9e"/>
        <path id="Trazado_17" data-name="Trazado 17" d="M196.668,392.336h-40.5a15,15,0,1,1,0-30h40.616Z" fill="#29556e"/>
      </g>
    </g>
    <g id="bench-svgrepo-com" transform="translate(1160 778.705)" opacity="0.81">
      <g id="Grupo_13" data-name="Grupo 13" transform="translate(3.887 136.335)">
        <g id="Grupo_12" data-name="Grupo 12">
          <g id="Grupo_11" data-name="Grupo 11">
            <path id="Trazado_18" data-name="Trazado 18" d="M15.6,228.517a9.4,9.4,0,0,1-9.4-9.4v-26.18a9.4,9.4,0,0,1,18.8,0v26.18a9.4,9.4,0,0,1-9.4,9.4Z" transform="translate(-6.203 -183.537)" fill="#29556e"/>
          </g>
          <path id="Trazado_19" data-name="Trazado 19" d="M285.6,228.517a9.4,9.4,0,0,1-9.4-9.4v-26.18a9.4,9.4,0,1,1,18.8,0v26.18A9.4,9.4,0,0,1,285.6,228.517Z" transform="translate(-106.995 -183.537)" fill="#387f9e"/>
        </g>
      </g>
      <g id="Grupo_16" data-name="Grupo 16" transform="translate(20.811 83.76)">
        <g id="Grupo_15" data-name="Grupo 15">
          <g id="Grupo_14" data-name="Grupo 14">
            <path id="Trazado_20" data-name="Trazado 20" d="M42.608,155.707a9.4,9.4,0,0,1-9.4-9.4V109.044a9.4,9.4,0,1,1,18.8,0v37.262a9.4,9.4,0,0,1-9.4,9.4Z" transform="translate(-33.208 -99.644)" fill="#29556e"/>
          </g>
          <path id="Trazado_21" data-name="Trazado 21" d="M258.6,155.707a9.4,9.4,0,0,1-9.4-9.4V109.044a9.4,9.4,0,1,1,18.8,0v37.262a9.4,9.4,0,0,1-9.4,9.4Z" transform="translate(-113.838 -99.644)" fill="#387f9e"/>
        </g>
      </g>
      <path id="Trazado_22" data-name="Trazado 22" d="M190.769,98.774H5.014A5.014,5.014,0,0,1,0,93.76V62.108a5.014,5.014,0,0,1,5.014-5.014H190.769a5.014,5.014,0,0,1,5.014,5.014V93.76a5.013,5.013,0,0,1-5.015,5.014Z" fill="#f79f4b"/>
      <path id="Trazado_23" data-name="Trazado 23" d="M97.892,98.774H5.014A5.014,5.014,0,0,1,0,93.76V62.108a5.014,5.014,0,0,1,5.014-5.014H97.892Z" fill="#ca8540"/>
      <path id="Trazado_24" data-name="Trazado 24" d="M190.769,192.847H5.014A5.014,5.014,0,0,1,0,187.834V167.308a5.014,5.014,0,0,1,5.014-5.014H190.769a5.014,5.014,0,0,1,5.014,5.014v20.526a5.013,5.013,0,0,1-5.014,5.013Z" transform="translate(0 -39.272)" fill="#f79f4b"/>
      <path id="Trazado_25" data-name="Trazado 25" d="M97.892,192.847H5.014A5.014,5.014,0,0,1,0,187.834V167.308a5.014,5.014,0,0,1,5.014-5.014H97.892Z" transform="translate(0 -39.272)" fill="#ca8540"/>
    </g>
    <g id="bench-svgrepo-com-2" data-name="bench-svgrepo-com" transform="translate(1545 778.705)" opacity="0.79">
      <g id="Grupo_13-2" data-name="Grupo 13" transform="translate(3.887 136.335)">
        <g id="Grupo_12-2" data-name="Grupo 12">
          <g id="Grupo_11-2" data-name="Grupo 11">
            <path id="Trazado_18-2" data-name="Trazado 18" d="M15.6,228.517a9.4,9.4,0,0,1-9.4-9.4v-26.18a9.4,9.4,0,0,1,18.8,0v26.18a9.4,9.4,0,0,1-9.4,9.4Z" transform="translate(-6.203 -183.537)" fill="#29556e"/>
          </g>
          <path id="Trazado_19-2" data-name="Trazado 19" d="M285.6,228.517a9.4,9.4,0,0,1-9.4-9.4v-26.18a9.4,9.4,0,1,1,18.8,0v26.18A9.4,9.4,0,0,1,285.6,228.517Z" transform="translate(-106.995 -183.537)" fill="#387f9e"/>
        </g>
      </g>
      <g id="Grupo_16-2" data-name="Grupo 16" transform="translate(20.811 83.76)">
        <g id="Grupo_15-2" data-name="Grupo 15">
          <g id="Grupo_14-2" data-name="Grupo 14">
            <path id="Trazado_20-2" data-name="Trazado 20" d="M42.608,155.707a9.4,9.4,0,0,1-9.4-9.4V109.044a9.4,9.4,0,1,1,18.8,0v37.262a9.4,9.4,0,0,1-9.4,9.4Z" transform="translate(-33.208 -99.644)" fill="#29556e"/>
          </g>
          <path id="Trazado_21-2" data-name="Trazado 21" d="M258.6,155.707a9.4,9.4,0,0,1-9.4-9.4V109.044a9.4,9.4,0,1,1,18.8,0v37.262a9.4,9.4,0,0,1-9.4,9.4Z" transform="translate(-113.838 -99.644)" fill="#387f9e"/>
        </g>
      </g>
      <path id="Trazado_22-2" data-name="Trazado 22" d="M190.769,98.774H5.014A5.014,5.014,0,0,1,0,93.76V62.108a5.014,5.014,0,0,1,5.014-5.014H190.769a5.014,5.014,0,0,1,5.014,5.014V93.76a5.013,5.013,0,0,1-5.015,5.014Z" fill="#f79f4b"/>
      <path id="Trazado_23-2" data-name="Trazado 23" d="M97.892,98.774H5.014A5.014,5.014,0,0,1,0,93.76V62.108a5.014,5.014,0,0,1,5.014-5.014H97.892Z" fill="#ca8540"/>
      <path id="Trazado_24-2" data-name="Trazado 24" d="M190.769,192.847H5.014A5.014,5.014,0,0,1,0,187.834V167.308a5.014,5.014,0,0,1,5.014-5.014H190.769a5.014,5.014,0,0,1,5.014,5.014v20.526a5.013,5.013,0,0,1-5.014,5.013Z" transform="translate(0 -39.272)" fill="#f79f4b"/>
      <path id="Trazado_25-2" data-name="Trazado 25" d="M97.892,192.847H5.014A5.014,5.014,0,0,1,0,187.834V167.308a5.014,5.014,0,0,1,5.014-5.014H97.892Z" transform="translate(0 -39.272)" fill="#ca8540"/>
    </g>
    <g id="bus-stop-svgrepo-com" transform="translate(875.483 746.889)" opacity="0.61">
      <g id="Grupo_18" data-name="Grupo 18" transform="translate(130.773 33.913)">
        <path id="Trazado_29" data-name="Trazado 29" d="M197.737,87.762H175.794a3.658,3.658,0,0,1,0-7.315h21.943a3.658,3.658,0,1,1,0,7.315" transform="translate(-172.137 -80.447)" fill="#bdc3c7"/>
        <path id="Trazado_30" data-name="Trazado 30" d="M197.737,246.659H175.794a3.658,3.658,0,0,1,0-7.315h21.943a3.658,3.658,0,1,1,0,7.315" transform="translate(-172.137 -173.516)" fill="#bdc3c7"/>
      </g>
      <path id="Trazado_31" data-name="Trazado 31" d="M152.716,492.318h-51.2a14.629,14.629,0,0,1,14.627-14.628h21.944a14.629,14.629,0,0,1,14.628,14.627" transform="translate(0 -279.208)" fill="#2f3744"/>
      <path id="Trazado_32" data-name="Trazado 32" d="M145.655,8.314V198.482h14.628V8.314a7.314,7.314,0,1,0-14.628,0" transform="translate(-25.853)" fill="#464f5d"/>
      <path id="Trazado_33" data-name="Trazado 33" d="M233.931,144.507h73.142V27.48H233.931Z" transform="translate(-77.558 -15.51)" fill="#f3d55b"/>
      <g id="Grupo_19" data-name="Grupo 19" transform="translate(167.344 26.598)">
        <path id="Trazado_34" data-name="Trazado 34" d="M272.9,124.333a3.656,3.656,0,0,1-3.657-3.657V84.105a3.658,3.658,0,1,1,7.315,0v36.571a3.656,3.656,0,0,1-3.657,3.657" transform="translate(-265.584 -73.133)" fill="#c4ac49"/>
        <path id="Trazado_35" data-name="Trazado 35" d="M361.174,124.333a3.656,3.656,0,0,1-3.657-3.657V84.105a3.657,3.657,0,1,1,7.314,0v36.571a3.656,3.656,0,0,1-3.657,3.657" transform="translate(-317.289 -73.133)" fill="#c4ac49"/>
        <path id="Trazado_36" data-name="Trazado 36" d="M310.982,211.349H281.725a3.657,3.657,0,1,1,0-7.315h29.257a3.658,3.658,0,1,1,0,7.315" transform="translate(-270.754 -145.52)" fill="#c4ac49"/>
        <path id="Trazado_37" data-name="Trazado 37" d="M307.955,255.487H264.07a3.657,3.657,0,0,1,0-7.315h43.885a3.658,3.658,0,1,1,0,7.315" transform="translate(-260.413 -171.372)" fill="#c4ac49"/>
        <path id="Trazado_38" data-name="Trazado 38" d="M276.556,92.047h29.257V70.1H276.556Zm32.914,7.314H272.9a3.654,3.654,0,0,1-3.657-3.657V66.447A3.656,3.656,0,0,1,272.9,62.79h36.571a3.656,3.656,0,0,1,3.657,3.657V95.7a3.654,3.654,0,0,1-3.657,3.657Z" transform="translate(-265.584 -62.79)" fill="#c4ac49"/>
        <path id="Trazado_39" data-name="Trazado 39" d="M317.036,99.364a3.656,3.656,0,0,1-3.657-3.657V66.45a3.657,3.657,0,0,1,7.314,0V95.707a3.656,3.656,0,0,1-3.657,3.657" transform="translate(-291.436 -62.792)" fill="#c4ac49"/>
      </g>
    </g>
    <g id="lamppost-svgrepo-com-2" data-name="lamppost-svgrepo-com" transform="translate(1251.832 568)">
      <path id="Trazado_10-2" data-name="Trazado 10" d="M196.668,378.371a15,15,0,0,1-15-15v-243.5a15,15,0,0,1,30,0v243.5a15,15,0,0,1-15,15Z" fill="#858ea4"/>
      <path id="Trazado_11-2" data-name="Trazado 11" d="M196.668,378.371a15,15,0,0,1-15-15v-243.5a15,15,0,0,1,15-15Z" fill="#707789"/>
      <path id="Trazado_12-2" data-name="Trazado 12" d="M224.168,123.9h-56l-18-82.9,46-41,46,41Z" fill="#cfc45c"/>
      <path id="Trazado_13-2" data-name="Trazado 13" d="M196.168,123.9h-28l-18-82.9,46-41Z" fill="#aea84f"/>
      <g id="Grupo_6-2" data-name="Grupo 6">
        <g id="Grupo_5-2" data-name="Grupo 5">
          <g id="Grupo_4-2" data-name="Grupo 4">
            <path id="Trazado_14-2" data-name="Trazado 14" d="M150.168,41l2.823,13h86.355l2.822-13Z" fill="#13324c"/>
          </g>
        </g>
      </g>
      <g id="Grupo_9-2" data-name="Grupo 9">
        <g id="Grupo_8-2" data-name="Grupo 8">
          <g id="Grupo_7-2" data-name="Grupo 7">
            <path id="Trazado_15-2" data-name="Trazado 15" d="M150.168,41l2.823,13h43.177V41Z" fill="#29556e"/>
          </g>
        </g>
      </g>
      <g id="Grupo_10-2" data-name="Grupo 10">
        <path id="Trazado_16-2" data-name="Trazado 16" d="M236.168,392.336h-80a15,15,0,1,1,0-30h80a15,15,0,0,1,0,30Z" fill="#387f9e"/>
        <path id="Trazado_17-2" data-name="Trazado 17" d="M196.668,392.336h-40.5a15,15,0,1,1,0-30h40.616Z" fill="#29556e"/>
      </g>
    </g>
    <g id="Trazado_1" data-name="Trazado 1" transform="translate(111 601.8)" fill="#ffe856" opacity="0.56">
      <path d="M 222.4110260009766 357.7001037597656 L 0.6166049242019653 357.7001037597656 L 73.79509735107422 11.1197452545166 L 165.395263671875 11.1197452545166 L 222.4110260009766 357.7001037597656 Z" stroke="none"/>
      <path d="M 74.20051574707031 11.6197509765625 L 1.233169555664063 357.2001037597656 L 221.8220672607422 357.2001037597656 L 164.9707641601563 11.6197509765625 L 74.20051574707031 11.6197509765625 M 73.38963317871094 10.6197509765625 L 165.8196868896484 10.6197509765625 L 223 358.2001037597656 L 0 358.2001037597656 L 73.38963317871094 10.6197509765625 Z" stroke="none" fill="#707070"/>
    </g>
    <g id="Trazado_2-3" data-name="Trazado 2" transform="translate(1328 601.8)" fill="#ffe856" opacity="0.56">
      <path d="M 222.4110260009766 357.7001037597656 L 0.6166049242019653 357.7001037597656 L 73.79509735107422 11.1197452545166 L 165.395263671875 11.1197452545166 L 222.4110260009766 357.7001037597656 Z" stroke="none"/>
      <path d="M 74.20051574707031 11.6197509765625 L 1.233169555664063 357.2001037597656 L 221.8220672607422 357.2001037597656 L 164.9707641601563 11.6197509765625 L 74.20051574707031 11.6197509765625 M 73.38963317871094 10.6197509765625 L 165.8196868896484 10.6197509765625 L 223 358.2001037597656 L 0 358.2001037597656 L 73.38963317871094 10.6197509765625 Z" stroke="none" fill="#707070"/>
    </g>
    <g id="Elipse_1" data-name="Elipse 1" transform="translate(884 232)" fill="#fff" stroke="#707070" stroke-width="1">
      <circle cx="5.5" cy="5.5" r="5.5" stroke="none"/>
      <circle cx="5.5" cy="5.5" r="5" fill="none"/>
    </g>
    <g id="Elipse_2" data-name="Elipse 2" transform="translate(971 271)" fill="#fff" stroke="#707070" stroke-width="1">
      <circle cx="6.5" cy="6.5" r="6.5" stroke="none"/>
      <circle cx="6.5" cy="6.5" r="6" fill="none"/>
    </g>
    <g id="Elipse_3" data-name="Elipse 3" transform="translate(746 232)" fill="#fff" stroke="#707070" stroke-width="1">
      <circle cx="5.5" cy="5.5" r="5.5" stroke="none"/>
      <circle cx="5.5" cy="5.5" r="5" fill="none"/>
    </g>
    <g id="Elipse_4" data-name="Elipse 4" transform="translate(841 348)" fill="#fff" stroke="#707070" stroke-width="1">
      <circle cx="6.5" cy="6.5" r="6.5" stroke="none"/>
      <circle cx="6.5" cy="6.5" r="6" fill="none"/>
    </g>
    <g id="Elipse_5" data-name="Elipse 5" transform="translate(221 76)" fill="#fff" stroke="#707070" stroke-width="1">
      <circle cx="5.5" cy="5.5" r="5.5" stroke="none"/>
      <circle cx="5.5" cy="5.5" r="5" fill="none"/>
    </g>
    <g id="Elipse_6" data-name="Elipse 6" transform="translate(308 115)" fill="#fff" stroke="#707070" stroke-width="1">
      <circle cx="6.5" cy="6.5" r="6.5" stroke="none"/>
      <circle cx="6.5" cy="6.5" r="6" fill="none"/>
    </g>
    <g id="Elipse_7" data-name="Elipse 7" transform="translate(83 76)" fill="#fff" stroke="#707070" stroke-width="1">
      <circle cx="5.5" cy="5.5" r="5.5" stroke="none"/>
      <circle cx="5.5" cy="5.5" r="5" fill="none"/>
    </g>
    <g id="Elipse_8" data-name="Elipse 8" transform="translate(178 192)" fill="#fff" stroke="#707070" stroke-width="1">
      <circle cx="6.5" cy="6.5" r="6.5" stroke="none"/>
      <circle cx="6.5" cy="6.5" r="6" fill="none"/>
    </g>
    <g id="Elipse_9" data-name="Elipse 9" transform="translate(197 450) rotate(180)" fill="#fff" stroke="#707070" stroke-width="1">
      <circle cx="5.5" cy="5.5" r="5.5" stroke="none"/>
      <circle cx="5.5" cy="5.5" r="5" fill="none"/>
    </g>
    <g id="Elipse_10" data-name="Elipse 10" transform="translate(286 491) rotate(180)" fill="#fff" stroke="#707070" stroke-width="1">
      <circle cx="6.5" cy="6.5" r="6.5" stroke="none"/>
      <circle cx="6.5" cy="6.5" r="6" fill="none"/>
    </g>
    <g id="Elipse_11" data-name="Elipse 11" transform="translate(59 450) rotate(180)" fill="#fff" stroke="#707070" stroke-width="1">
      <circle cx="5.5" cy="5.5" r="5.5" stroke="none"/>
      <circle cx="5.5" cy="5.5" r="5" fill="none"/>
    </g>
    <g id="Elipse_12" data-name="Elipse 12" transform="translate(156 568) rotate(180)" fill="#fff" stroke="#707070" stroke-width="1">
      <circle cx="6.5" cy="6.5" r="6.5" stroke="none"/>
      <circle cx="6.5" cy="6.5" r="6" fill="none"/>
    </g>
    <g id="Elipse_13" data-name="Elipse 13" transform="translate(516 258) rotate(180)" fill="#fff" stroke="#707070" stroke-width="1">
      <ellipse cx="7" cy="7.5" rx="7" ry="7.5" stroke="none"/>
      <ellipse cx="7" cy="7.5" rx="6.5" ry="7" fill="none"/>
    </g>
    <g id="Elipse_14" data-name="Elipse 14" transform="translate(637 313) rotate(180)" fill="#fff" stroke="#707070" stroke-width="1">
      <ellipse cx="9" cy="8.5" rx="9" ry="8.5" stroke="none"/>
      <ellipse cx="9" cy="8.5" rx="8.5" ry="8" fill="none"/>
    </g>
    <g id="Elipse_15" data-name="Elipse 15" transform="translate(330 258) rotate(180)" fill="#fff" stroke="#707070" stroke-width="1">
      <circle cx="7.5" cy="7.5" r="7.5" stroke="none"/>
      <circle cx="7.5" cy="7.5" r="7" fill="none"/>
    </g>
    <g id="Elipse_16" data-name="Elipse 16" transform="translate(461 417) rotate(180)" fill="#fff" stroke="#707070" stroke-width="1">
      <ellipse cx="9" cy="8.5" rx="9" ry="8.5" stroke="none"/>
      <ellipse cx="9" cy="8.5" rx="8.5" ry="8" fill="none"/>
    </g>
    <g id="Elipse_17" data-name="Elipse 17" transform="translate(930 465) rotate(180)" fill="#fff" stroke="#707070" stroke-width="1">
      <ellipse cx="7" cy="7.5" rx="7" ry="7.5" stroke="none"/>
      <ellipse cx="7" cy="7.5" rx="6.5" ry="7" fill="none"/>
    </g>
    <g id="Elipse_18" data-name="Elipse 18" transform="translate(1051 520) rotate(180)" fill="#fff" stroke="#707070" stroke-width="1">
      <ellipse cx="9" cy="8.5" rx="9" ry="8.5" stroke="none"/>
      <ellipse cx="9" cy="8.5" rx="8.5" ry="8" fill="none"/>
    </g>
    <g id="Elipse_19" data-name="Elipse 19" transform="translate(744 465) rotate(180)" fill="#fff" stroke="#707070" stroke-width="1">
      <circle cx="7.5" cy="7.5" r="7.5" stroke="none"/>
      <circle cx="7.5" cy="7.5" r="7" fill="none"/>
    </g>
    <g id="Elipse_20" data-name="Elipse 20" transform="translate(875 624) rotate(180)" fill="#fff" stroke="#707070" stroke-width="1">
      <ellipse cx="9" cy="8.5" rx="9" ry="8.5" stroke="none"/>
      <ellipse cx="9" cy="8.5" rx="8.5" ry="8" fill="none"/>
    </g>
    <g id="Elipse_21" data-name="Elipse 21" transform="translate(571.017 90.297) rotate(150)" fill="#fff" stroke="#707070" stroke-width="1">
      <ellipse cx="4.5" cy="5" rx="4.5" ry="5" stroke="none"/>
      <ellipse cx="4.5" cy="5" rx="4" ry="4.5" fill="none"/>
    </g>
    <g id="Elipse_22" data-name="Elipse 22" transform="translate(657.433 81.974) rotate(150)" fill="#fff" stroke="#707070" stroke-width="1">
      <circle cx="5.5" cy="5.5" r="5.5" stroke="none"/>
      <circle cx="5.5" cy="5.5" r="5" fill="none"/>
    </g>
    <g id="Elipse_23" data-name="Elipse 23" transform="translate(466.228 150.797) rotate(150)" fill="#fff" stroke="#707070" stroke-width="1">
      <circle cx="5" cy="5" r="5" stroke="none"/>
      <circle cx="5" cy="5" r="4.5" fill="none"/>
    </g>
    <g id="Elipse_24" data-name="Elipse 24" transform="translate(591.84 198.363) rotate(150)" fill="#fff" stroke="#707070" stroke-width="1">
      <circle cx="5.5" cy="5.5" r="5.5" stroke="none"/>
      <circle cx="5.5" cy="5.5" r="5" fill="none"/>
    </g>
    <g id="Elipse_25" data-name="Elipse 25" transform="matrix(-0.966, 0.259, -0.259, -0.966, 1035.156, 90.635)" fill="#fff" stroke="#707070" stroke-width="1">
      <circle cx="4" cy="4" r="4" stroke="none"/>
      <circle cx="4" cy="4" r="3.5" fill="none"/>
    </g>
    <g id="Elipse_26" data-name="Elipse 26" transform="matrix(-0.966, 0.259, -0.259, -0.966, 1105.706, 102.789)" fill="#fff" stroke="#707070" stroke-width="1">
      <ellipse cx="5" cy="4.5" rx="5" ry="4.5" stroke="none"/>
      <ellipse cx="5" cy="4.5" rx="4.5" ry="4" fill="none"/>
    </g>
    <g id="Elipse_27" data-name="Elipse 27" transform="matrix(-0.966, 0.259, -0.259, -0.966, 937.598, 116.776)" fill="#fff" stroke="#707070" stroke-width="1">
      <circle cx="4" cy="4" r="4" stroke="none"/>
      <circle cx="4" cy="4" r="3.5" fill="none"/>
    </g>
    <g id="Elipse_28" data-name="Elipse 28" transform="matrix(-0.966, 0.259, -0.259, -0.966, 1028.437, 181.469)" fill="#fff" stroke="#707070" stroke-width="1">
      <ellipse cx="5" cy="4.5" rx="5" ry="4.5" stroke="none"/>
      <ellipse cx="5" cy="4.5" rx="4.5" ry="4" fill="none"/>
    </g>
    <g id="Elipse_29" data-name="Elipse 29" transform="translate(1319 337) rotate(180)" fill="#fff" stroke="#707070" stroke-width="1">
      <ellipse cx="7" cy="7.5" rx="7" ry="7.5" stroke="none"/>
      <ellipse cx="7" cy="7.5" rx="6.5" ry="7" fill="none"/>
    </g>
    <g id="Elipse_30" data-name="Elipse 30" transform="translate(1440 392) rotate(180)" fill="#fff" stroke="#707070" stroke-width="1">
      <ellipse cx="9" cy="8.5" rx="9" ry="8.5" stroke="none"/>
      <ellipse cx="9" cy="8.5" rx="8.5" ry="8" fill="none"/>
    </g>
    <g id="Elipse_31" data-name="Elipse 31" transform="translate(1133 337) rotate(180)" fill="#fff" stroke="#707070" stroke-width="1">
      <circle cx="7.5" cy="7.5" r="7.5" stroke="none"/>
      <circle cx="7.5" cy="7.5" r="7" fill="none"/>
    </g>
    <g id="Elipse_32" data-name="Elipse 32" transform="translate(1264 496) rotate(180)" fill="#fff" stroke="#707070" stroke-width="1">
      <ellipse cx="9" cy="8.5" rx="9" ry="8.5" stroke="none"/>
      <ellipse cx="9" cy="8.5" rx="8.5" ry="8" fill="none"/>
    </g>
    <g id="Elipse_33" data-name="Elipse 33" transform="translate(1360 68) rotate(180)" fill="#fff" stroke="#707070" stroke-width="1">
      <ellipse cx="5.5" cy="6.5" rx="5.5" ry="6.5" stroke="none"/>
      <ellipse cx="5.5" cy="6.5" rx="5" ry="6" fill="none"/>
    </g>
    <g id="Elipse_34" data-name="Elipse 34" transform="translate(1460 112) rotate(180)" fill="#fff" stroke="#707070" stroke-width="1">
      <ellipse cx="8" cy="7" rx="8" ry="7" stroke="none"/>
      <ellipse cx="8" cy="7" rx="7.5" ry="6.5" fill="none"/>
    </g>
    <g id="Elipse_35" data-name="Elipse 35" transform="translate(1211 68) rotate(180)" fill="#fff" stroke="#707070" stroke-width="1">
      <circle cx="6.5" cy="6.5" r="6.5" stroke="none"/>
      <circle cx="6.5" cy="6.5" r="6" fill="none"/>
    </g>
    <g id="Elipse_36" data-name="Elipse 36" transform="translate(1317 196) rotate(180)" fill="#fff" stroke="#707070" stroke-width="1">
      <ellipse cx="7.5" cy="7" rx="7.5" ry="7" stroke="none"/>
      <ellipse cx="7.5" cy="7" rx="7" ry="6.5" fill="none"/>
    </g>
    <g id="Elipse_37" data-name="Elipse 37" transform="translate(1703 574) rotate(180)" fill="#fff" stroke="#707070" stroke-width="1">
      <ellipse cx="5.5" cy="6.5" rx="5.5" ry="6.5" stroke="none"/>
      <ellipse cx="5.5" cy="6.5" rx="5" ry="6" fill="none"/>
    </g>
    <g id="Elipse_38" data-name="Elipse 38" transform="translate(1803 618) rotate(180)" fill="#fff" stroke="#707070" stroke-width="1">
      <ellipse cx="8" cy="7" rx="8" ry="7" stroke="none"/>
      <ellipse cx="8" cy="7" rx="7.5" ry="6.5" fill="none"/>
    </g>
    <g id="Elipse_39" data-name="Elipse 39" transform="translate(1554 574) rotate(180)" fill="#fff" stroke="#707070" stroke-width="1">
      <circle cx="6.5" cy="6.5" r="6.5" stroke="none"/>
      <circle cx="6.5" cy="6.5" r="6" fill="none"/>
    </g>
    <g id="Elipse_40" data-name="Elipse 40" transform="translate(1660 702) rotate(180)" fill="#fff" stroke="#707070" stroke-width="1">
      <ellipse cx="7.5" cy="7" rx="7.5" ry="7" stroke="none"/>
      <ellipse cx="7.5" cy="7" rx="7" ry="6.5" fill="none"/>
    </g>
    <g id="Elipse_41" data-name="Elipse 41" transform="translate(1705 326) rotate(180)" fill="#fff" stroke="#707070" stroke-width="1">
      <ellipse cx="5.5" cy="6.5" rx="5.5" ry="6.5" stroke="none"/>
      <ellipse cx="5.5" cy="6.5" rx="5" ry="6" fill="none"/>
    </g>
    <g id="Elipse_42" data-name="Elipse 42" transform="translate(1805 370) rotate(180)" fill="#fff" stroke="#707070" stroke-width="1">
      <ellipse cx="8" cy="7" rx="8" ry="7" stroke="none"/>
      <ellipse cx="8" cy="7" rx="7.5" ry="6.5" fill="none"/>
    </g>
    <g id="Elipse_43" data-name="Elipse 43" transform="translate(1556 326) rotate(180)" fill="#fff" stroke="#707070" stroke-width="1">
      <circle cx="6.5" cy="6.5" r="6.5" stroke="none"/>
      <circle cx="6.5" cy="6.5" r="6" fill="none"/>
    </g>
    <g id="Elipse_44" data-name="Elipse 44" transform="translate(1662 454) rotate(180)" fill="#fff" stroke="#707070" stroke-width="1">
      <ellipse cx="7.5" cy="7" rx="7.5" ry="7" stroke="none"/>
      <ellipse cx="7.5" cy="7" rx="7" ry="6.5" fill="none"/>
    </g>
  </g>
</svg>
