<svg width="445" height="277" viewBox="0 0 445 277" fill="none" xmlns="http://www.w3.org/2000/svg">
<g clip-path="url(#clip0_1_55)">
<path d="M370.08 123.871V47.9942C370.08 38.6357 377.22 31.0406 386.04 31.0406H434.08C434.08 13.7789 420.91 -0.210999 404.66 -0.210999H41.87C25.62 -0.210999 12.44 13.7789 12.44 31.0406V195.637H34.15C34.76 194.107 35.43 192.599 36.17 191.133C45.19 173.181 62.69 162.027 81.84 162.027C100.99 162.027 118.5 173.181 127.52 191.133C128.26 192.599 128.93 194.107 129.54 195.637H294.6C295.21 194.107 295.88 192.599 296.62 191.133C305.64 173.181 323.14 162.027 342.29 162.027C361.44 162.027 378.95 173.181 387.97 191.133C388.71 192.599 389.39 194.107 390 195.637H434.08V140.825H386.04C377.22 140.825 370.08 133.24 370.08 123.871Z" fill="#008DB3"/>
<path d="M434.08 31.0405V140.825H386.04C377.22 140.825 370.08 133.24 370.08 123.871V47.9941C370.08 43.8089 371.5 39.9847 373.88 37.021C376.8 33.3563 381.16 31.0405 386.04 31.0405H434.08Z" fill="#96E0DE"/>
<path d="M138.58 31.0405V140.825H60.45C51.63 140.825 44.49 133.24 44.49 123.871V47.9941C44.49 45.6678 44.93 43.4583 45.72 41.44C48.14 35.3321 53.82 31.0405 60.45 31.0405H138.58Z" fill="#96E0DE"/>
<path d="M240.58 31.0405H153.58V140.825H240.58V31.0405Z" fill="#96E0DE"/>
<path d="M346.08 47.9941V123.871C346.08 124.253 346.07 124.636 346.04 125.008C345.49 133.846 338.57 140.825 330.12 140.825H255.58V31.0405H330.12C338.93 31.0405 346.08 38.6357 346.08 47.9941Z" fill="#96E0DE"/>
<path d="M445.52 207.789V207.8C445.52 214.513 440.4 219.952 434.08 219.952H393.97C394.02 218.975 394.05 217.987 394.05 216.999C394.05 209.638 392.65 202.351 390 195.637H434.08C440.4 195.637 445.52 201.076 445.52 207.789Z" fill="#CCCCCC"/>
<path d="M30.09 216.999C30.09 217.987 30.12 218.985 30.17 219.952H12.44C6.12 219.952 1 214.513 1 207.8V207.789C1 201.076 6.12 195.637 12.44 195.637H34.15C31.48 202.372 30.09 209.67 30.09 216.999Z" fill="#CCCCCC"/>
<path d="M290.54 216.999C290.54 217.987 290.57 218.985 290.62 219.952H133.52C133.57 218.975 133.6 217.987 133.6 216.999C133.6 209.638 132.2 202.351 129.54 195.637H294.6C291.93 202.372 290.54 209.67 290.54 216.999Z" fill="#CCCCCC"/>
<path d="M342.006 193.502C354.139 193.502 364 204.226 364 217.403C364 230.579 354.139 241.304 342.006 241.304C329.861 241.304 320 230.579 320 217.403C320 204.226 329.861 193.502 342.006 193.502Z" fill="#E6E6E6"/>
<path d="M81.5 193.502C93.9045 193.502 104 204.226 104 217.403C104 230.579 93.9045 241.304 81.5 241.304C69.0955 241.304 59 230.579 59 217.403C59 204.226 69.0955 193.502 81.5 193.502Z" fill="#E6E6E6"/>
<path d="M394 216.865C394 218.09 393.963 219.314 393.889 220.513C392.134 249.917 369.356 273.171 341.506 273.171C313.644 273.171 290.866 249.917 289.111 220.513C289.037 219.314 289 218.09 289 216.865C289 207.292 291.223 198.272 295.164 190.384C303.993 172.647 321.43 160.572 341.506 160.572C361.693 160.572 379.216 172.792 387.995 190.7C391.827 198.509 394 207.41 394 216.865ZM363.032 216.865C363.032 204.132 353.38 193.768 341.506 193.768C329.62 193.768 319.968 204.132 319.968 216.865C319.968 229.598 329.62 239.962 341.506 239.962C353.38 239.962 363.032 229.598 363.032 216.865Z" fill="#666666"/>
<path d="M128.777 190.384C132.756 198.272 135 207.292 135 216.865C135 218.09 134.963 219.314 134.888 220.526C133.116 249.917 110.121 273.171 81.9938 273.171C53.8792 273.171 30.8842 249.917 29.1116 220.526C29.0372 219.314 29 218.09 29 216.865C29 207.292 31.2561 198.272 35.2229 190.384C44.1358 172.647 61.7384 160.572 81.9938 160.572C102.262 160.572 119.864 172.647 128.777 190.384ZM103.737 216.865C103.737 204.132 93.9809 193.768 81.9938 193.768C70.0067 193.768 60.2508 204.132 60.2508 216.865C60.2508 229.598 70.0067 239.962 81.9938 239.962C93.9809 239.962 103.737 229.598 103.737 216.865Z" fill="#666666"/>
<path d="M434.077 176.414H433.077C422.584 176.414 414.077 167.378 414.077 156.232H434.077V176.414Z" fill="#F7CF52"/>
<path d="M240.58 129.83V140.825H153.58V37.4141L240.58 129.83Z" fill="#76CDCE"/>
<path d="M138.58 140.081V140.825H60.45C51.63 140.825 44.49 133.24 44.49 123.871V47.9941C44.49 45.6678 44.93 43.4583 45.72 41.44L138.58 140.081Z" fill="#76CDCE"/>
<path d="M346.04 125.008C345.49 133.846 338.57 140.825 330.12 140.825H255.58V31.0405H257.58L346.04 125.008Z" fill="#76CDCE"/>
<path d="M434.08 100.969V140.825H386.04C377.22 140.825 370.08 133.24 370.08 123.871V47.9942C370.08 43.8089 371.5 39.9848 373.88 37.0211L434.08 100.969Z" fill="#76CDCE"/>
</g>
<defs>
<clipPath id="clip0_1_55">
<rect width="445" height="277" fill="white"/>
</clipPath>
</defs>
</svg>
