<svg width="1919" height="941" viewBox="0 0 1919 941" fill="none" xmlns="http://www.w3.org/2000/svg">
<g clip-path="url(#clip0_1_2)">
<rect width="1919" height="941" fill="url(#paint0_linear_1_2)"/>
<path d="M1359.83 682.466H1350.85C1344.92 660.554 1316.48 622.994 1282.16 622.994C1279.1 622.994 1276.09 623.391 1273.13 623.954C1259.84 589.676 1233.18 551 1202.42 551C1178.88 551 1157.78 573.679 1143.22 599.639C1141.47 599.382 1139.71 599.232 1137.92 599.232C1107.24 599.232 1082.41 638.556 1082.41 654.473C1082.41 656.253 1082.82 657.98 1083.42 659.68C1077.27 667.81 1072.46 676.256 1069.2 683.951C1055.23 687.914 1045 699.809 1045 714.036V715.382C1045 732.853 1060.3 747 1079.17 747H1359.87C1378.75 747 1390 732.853 1390 715.382V714.036C1390 696.575 1378.75 682.428 1359.87 682.428" fill="#CAD4D9"/>
<path d="M155.455 535.827L164.437 535.916C170.152 557.885 198.223 595.722 232.544 596.059C235.606 596.089 238.613 595.722 241.579 595.188C254.538 629.595 280.808 668.531 311.574 668.833C335.114 669.064 356.427 646.594 371.25 620.777C372.994 621.052 374.754 621.219 376.543 621.237C407.217 621.538 432.438 582.459 432.594 566.544C432.612 564.763 432.221 563.033 431.636 561.327C437.866 553.258 442.757 544.859 446.088 537.196C460.094 533.371 470.445 521.577 470.585 507.351L470.598 506.005C470.769 488.534 455.609 474.238 436.737 474.053L156.051 471.296C137.174 471.11 125.786 485.146 125.614 502.617L125.601 503.963C125.43 521.423 136.54 535.679 155.417 535.865" fill="#CAD4D9"/>
<path fill-rule="evenodd" clip-rule="evenodd" d="M1123.6 688.782C1117.37 655.939 1129.87 631.012 1158.31 615.723C1196.34 595.286 1233.11 599.832 1268.59 626.753C1287.67 605.14 1310.86 595.656 1338.09 609.874C1361.65 622.158 1368.94 643.81 1365.77 670.355C1371.78 670.897 1377.2 671.156 1382.56 671.979C1420.9 677.807 1441.86 724.756 1420.4 757.792C1417.73 761.907 1410.85 765.458 1405.93 765.458C1302.58 765.911 1199.2 765.696 1095.83 766C1086.4 766.049 1082.3 761.802 1079.45 753.704C1073.77 737.642 1077.9 719.746 1092.45 707.799C1101.29 700.552 1112.06 695.703 1123.58 688.782" fill="white"/>
<path fill-rule="evenodd" clip-rule="evenodd" d="M1549.6 194.782C1543.37 161.939 1555.87 137.012 1584.31 121.723C1622.34 101.286 1659.11 105.832 1694.59 132.753C1713.67 111.14 1736.86 101.656 1764.09 115.874C1787.65 128.158 1794.94 149.81 1791.77 176.355C1797.78 176.897 1803.2 177.156 1808.56 177.979C1846.9 183.807 1867.86 230.756 1846.4 263.792C1843.73 267.907 1836.85 271.458 1831.93 271.458C1728.58 271.911 1625.2 271.696 1521.83 272C1512.4 272.049 1508.3 267.802 1505.45 259.704C1499.77 243.642 1503.9 225.746 1518.45 213.799C1527.29 206.552 1538.06 201.703 1549.58 194.782" fill="white"/>
<path d="M340.835 154.466H331.852C325.921 132.554 297.481 94.9938 263.158 94.9938C260.095 94.9938 257.092 95.3906 254.132 95.9537C240.836 61.6755 214.184 23 183.417 23C159.876 23 138.785 45.6787 124.215 71.6394C122.469 71.382 120.707 71.2318 118.918 71.2318C88.2428 71.2318 63.4069 110.556 63.4069 126.473C63.4069 128.253 63.8152 129.98 64.4169 131.68C58.2657 139.81 53.4575 148.256 50.2019 155.951C36.2341 159.914 26 171.809 26 186.036V187.382C26 204.853 41.3001 219 60.1728 219H340.872C359.751 219 371 204.853 371 187.382V186.036C371 168.575 359.751 154.428 340.872 154.428" fill="#CAD4D9"/>
<path d="M1548.8 201.125C1557.17 184.711 1573.93 173.671 1591.78 170.218C1608.2 167.138 1625.88 169.858 1640.08 178.858C1653.28 186.698 1663.02 200.151 1666.04 215.258C1677.44 212.191 1689.36 209.671 1701.17 211.965C1717.28 214.445 1733.06 223.005 1741.66 237.205C1745.85 243.711 1747.64 251.431 1748.14 259.071C1759.29 259.431 1770.8 261.791 1779.89 268.578C1784.76 272.498 1789 278.551 1787.72 285.111C1786.44 292.898 1779.54 298.165 1772.88 301.418C1756.2 308.898 1736.14 308.445 1719.81 300.231C1708.28 305.498 1695.52 307.565 1682.9 306.418C1674.1 321.551 1658.1 331.858 1640.98 334.898C1619.97 339.338 1597.25 332.525 1581.73 317.765C1566.48 325.711 1547.78 326.818 1531.8 320.378C1519.5 315.538 1508.77 305.658 1504.64 292.898C1501 281.591 1503.58 268.711 1510.9 259.418C1519.01 248.565 1531.97 242.245 1545.16 240.178C1541.68 227.258 1542.33 213.018 1548.8 201.125Z" fill="#E7E7E7"/>
<path d="M805.795 416.125C814.169 399.711 830.929 388.671 848.782 385.218C865.195 382.138 882.875 384.858 897.075 393.858C910.275 401.698 920.022 415.151 923.035 430.258C934.435 427.191 946.355 424.671 958.169 426.965C974.275 429.445 990.062 438.005 998.662 452.205C1002.85 458.711 1004.64 466.431 1005.14 474.071C1016.29 474.431 1027.8 476.791 1036.89 483.578C1041.76 487.498 1046 493.551 1044.72 500.111C1043.44 507.898 1036.54 513.165 1029.88 516.418C1013.2 523.898 993.142 523.445 976.809 515.231C965.275 520.498 952.515 522.565 939.902 521.418C931.102 536.551 915.102 546.858 897.982 549.898C876.969 554.338 854.249 547.525 838.729 532.765C823.475 540.711 804.782 541.818 788.795 535.378C776.502 530.538 765.769 520.658 761.635 507.898C757.995 496.591 760.582 483.711 767.902 474.418C776.009 463.565 788.969 457.245 802.155 455.178C798.675 442.258 799.329 428.018 805.795 416.125Z" fill="#E7E7E7"/>
<path d="M115.858 478.531C126.436 457.822 147.611 443.894 170.167 439.537C190.903 435.651 213.24 439.082 231.18 450.437C247.857 460.329 260.171 477.303 263.978 496.362C278.381 492.493 293.441 489.314 308.366 492.207C328.715 495.336 348.659 506.136 359.525 524.052C364.814 532.261 367.071 542.001 367.711 551.64C381.794 552.095 396.332 555.072 407.82 563.635C413.969 568.58 419.325 576.218 417.708 584.494C416.091 594.319 407.382 600.963 398.959 605.068C377.886 614.505 352.551 613.933 331.915 603.571C317.344 610.216 301.223 612.823 285.288 611.376C274.17 630.47 253.955 643.473 232.326 647.309C205.778 652.911 177.073 644.314 157.465 625.692C138.194 635.718 114.577 637.115 94.3799 628.989C78.8485 622.883 65.2881 610.418 60.066 594.319C55.4673 580.053 58.7353 563.803 67.9833 552.078C78.2253 538.384 94.5989 530.411 111.259 527.803C106.862 511.502 107.688 493.536 115.858 478.531Z" fill="#FBFBFB"/>
<path d="M1714.04 467.587C1720.44 455.025 1733.26 446.575 1746.92 443.932C1759.48 441.575 1773.01 443.657 1783.87 450.545C1793.97 456.545 1801.43 466.842 1803.73 478.405C1812.45 476.057 1821.57 474.129 1830.61 475.884C1842.93 477.782 1855.01 484.334 1861.59 495.202C1864.79 500.182 1866.16 506.091 1866.55 511.938C1875.08 512.214 1883.88 514.02 1890.84 519.214C1894.56 522.215 1897.8 526.848 1896.82 531.869C1895.84 537.828 1890.57 541.859 1885.47 544.349C1872.71 550.074 1857.37 549.727 1844.87 543.441C1836.05 547.472 1826.29 549.054 1816.64 548.176C1809.9 559.759 1797.66 567.647 1784.56 569.974C1768.49 573.372 1751.11 568.158 1739.23 556.861C1727.56 562.943 1713.26 563.79 1701.03 558.861C1691.62 555.156 1683.41 547.595 1680.25 537.828C1677.47 529.174 1679.45 519.316 1685.05 512.204C1691.25 503.897 1701.16 499.06 1711.25 497.478C1708.59 487.589 1709.09 476.69 1714.04 467.587Z" fill="#FBFBFB"/>
<path d="M853.483 392.226C863.444 372.695 883.384 359.558 904.624 355.449C924.151 351.784 945.185 355.021 962.078 365.73C977.782 375.059 989.378 391.067 992.963 409.043C1006.53 405.394 1020.71 402.395 1034.76 405.124C1053.92 408.075 1072.7 418.261 1082.94 435.158C1087.92 442.9 1090.04 452.086 1090.64 461.177C1103.91 461.606 1117.6 464.414 1128.41 472.49C1134.2 477.154 1139.25 484.357 1137.73 492.163C1136.2 501.428 1128 507.695 1120.07 511.567C1100.23 520.467 1076.37 519.928 1056.94 510.154C1043.22 516.421 1028.04 518.881 1013.03 517.516C1002.56 535.524 983.525 547.788 963.157 551.405C938.157 556.688 911.127 548.581 892.663 531.018C874.516 540.474 852.277 541.79 833.258 534.127C818.632 528.368 805.863 516.612 800.946 501.428C796.615 487.974 799.692 472.648 808.401 461.59C818.045 448.675 833.464 441.155 849.152 438.696C845.012 423.322 845.789 406.378 853.483 392.226Z" fill="#FBFBFB"/>
<path d="M1014.8 84.1245C1023.17 67.7112 1039.93 56.6712 1057.78 53.2178C1074.2 50.1378 1091.88 52.8579 1106.08 61.8579C1119.28 69.6979 1129.02 83.1512 1132.04 98.2579C1143.44 95.1912 1155.36 92.6712 1167.17 94.9645C1183.28 97.4445 1199.06 106.005 1207.66 120.205C1211.85 126.711 1213.64 134.431 1214.14 142.071C1225.29 142.431 1236.8 144.791 1245.89 151.578C1250.76 155.498 1255 161.551 1253.72 168.111C1252.44 175.898 1245.54 181.165 1238.88 184.418C1222.2 191.898 1202.14 191.445 1185.81 183.231C1174.28 188.498 1161.52 190.565 1148.9 189.418C1140.1 204.551 1124.1 214.858 1106.98 217.898C1085.97 222.338 1063.25 215.525 1047.73 200.765C1032.48 208.711 1013.78 209.818 997.795 203.378C985.502 198.538 974.769 188.658 970.635 175.898C966.995 164.591 969.582 151.711 976.902 142.418C985.009 131.565 997.969 125.245 1011.16 123.178C1007.68 110.258 1008.33 96.0178 1014.8 84.1245Z" fill="#FBFBFB"/>
<path d="M559.375 204.322C564.929 193.428 576.046 186.1 587.888 183.808C598.774 181.764 610.501 183.569 619.92 189.543C628.675 194.746 635.14 203.676 637.139 213.702C644.7 211.667 652.606 209.994 660.442 211.517C671.125 213.163 681.596 218.844 687.3 228.269C690.077 232.588 691.262 237.712 691.599 242.782C698.992 243.021 706.624 244.588 712.656 249.092C715.884 251.694 718.696 255.712 717.847 260.066C716.998 265.234 712.426 268.73 708.004 270.889C696.94 275.854 683.639 275.553 672.806 270.101C665.156 273.597 656.692 274.969 648.326 274.208C642.489 284.252 631.877 291.093 620.521 293.11C606.583 296.057 591.514 291.535 581.219 281.739C571.102 287.013 558.703 287.747 548.099 283.473C539.945 280.261 532.826 273.703 530.085 265.234C527.67 257.729 529.386 249.181 534.241 243.012C539.618 235.809 548.214 231.614 556.961 230.242C554.653 221.667 555.086 212.216 559.375 204.322Z" fill="#FBFBFB"/>
<path d="M227.375 31.3218C232.929 20.4279 244.046 13.1004 255.888 10.8083C266.774 8.76405 278.501 10.5694 287.92 16.5429C296.675 21.7465 303.14 30.6758 305.139 40.7024C312.7 38.667 320.606 36.9944 328.442 38.5166C339.125 40.1626 349.596 45.8441 355.3 55.269C358.077 59.5876 359.262 64.7115 359.599 69.7824C366.992 70.0213 374.624 71.5877 380.656 76.0922C383.884 78.694 386.696 82.7117 385.847 87.0658C384.998 92.2339 380.426 95.7296 376.004 97.8889C364.94 102.854 351.639 102.553 340.806 97.1013C333.156 100.597 324.692 101.969 316.326 101.208C310.489 111.252 299.877 118.093 288.521 120.11C274.583 123.057 259.514 118.535 249.219 108.739C239.102 114.013 226.703 114.747 216.099 110.473C207.945 107.261 200.826 100.703 198.085 92.2339C195.67 84.7294 197.386 76.1807 202.241 70.0125C207.618 62.8089 216.214 58.6141 224.961 57.2424C222.653 48.6671 223.086 39.2157 227.375 31.3218Z" fill="#FBFBFB"/>
<path d="M89.7323 214.599C93.5231 207.14 101.111 202.123 109.193 200.553C116.624 199.154 124.628 200.39 131.056 204.48C137.032 208.043 141.445 214.156 142.809 221.021C147.97 219.628 153.366 218.483 158.714 219.525C166.006 220.652 173.153 224.542 177.046 230.995C178.942 233.952 179.751 237.46 179.98 240.932C185.026 241.096 190.235 242.168 194.352 245.252C196.555 247.034 198.475 249.785 197.895 252.766C197.316 256.304 194.195 258.698 191.177 260.176C183.626 263.575 174.547 263.369 167.153 259.637C161.932 262.03 156.155 262.969 150.445 262.448C146.461 269.326 139.217 274.009 131.467 275.391C121.954 277.409 111.668 274.312 104.642 267.605C97.7364 271.216 89.2736 271.719 82.0361 268.792C76.4707 266.593 71.6116 262.103 69.7403 256.304C68.0924 251.166 69.2635 245.313 72.5774 241.09C76.2474 236.157 82.1146 233.285 88.0844 232.346C86.509 226.475 86.8047 220.004 89.7323 214.599Z" fill="#FBFBFB"/>
<circle cx="256" cy="224" r="130" fill="#FFE871"/>
</g>
<defs>
<linearGradient id="paint0_linear_1_2" x1="959.5" y1="0" x2="959.5" y2="941" gradientUnits="userSpaceOnUse">
<stop stop-color="#2582FB"/>
<stop offset="1" stop-color="#E0F4FF"/>
</linearGradient>
<clipPath id="clip0_1_2">
<rect width="1919" height="941" fill="white"/>
</clipPath>
</defs>
</svg>
