<svg xmlns="http://www.w3.org/2000/svg" xmlns:xlink="http://www.w3.org/1999/xlink" width="800" height="800" viewBox="0 0 800 800">
  <defs>
    <clipPath id="clip-exprebus-full">
      <rect width="800" height="800"/>
    </clipPath>
  </defs>
  <g id="exprebus-full" clip-path="url(#clip-exprebus-full)">
    <line id="Línea_2" data-name="Línea 2" y1="1" x2="660" transform="translate(60 657)" fill="none" stroke="#f3dc0a" stroke-linecap="round" stroke-width="40"/>
    <line id="Línea_1" data-name="Línea 1" x2="310" y2="540" transform="translate(393 84)" fill="none" stroke="#f3dc0a" stroke-width="20"/>
    <path id="Trazado_7" data-name="Trazado 7" d="M754.718,385.635c-4.226,1.194-54.97,25.559-81.93,25.209s-45.866,6.847-45.866,6.847" transform="translate(-303.146 -222.692)" fill="none" stroke="#f3dc0a" stroke-linecap="round" stroke-width="45"/>
    <path id="Trazado_6" data-name="Trazado 6" d="M475,917.739c8.329-107.965,231.448-231.2,189.931-251.25S575,582.739,575,582.739" transform="translate(-306 -265.739)" fill="none" stroke="#f3dc0a" stroke-linecap="round" stroke-linejoin="round" stroke-width="40"/>
    <path id="Trazado_5" data-name="Trazado 5" d="M916,867c-19.7-57.172-165.687-58.6-160.666-107.5s60.25-73.346,40.167-136.912-115.479-48.9-120.5-97.795S775.417,427,775.417,427" transform="translate(-306 -225)" fill="none" stroke="#f3dc0a" stroke-width="40"/>
    <g id="Trazado_2" data-name="Trazado 2" transform="translate(26 3)" fill="none" stroke-linecap="round">
      <path d="M352.757,38.32a25,25,0,0,1,43.487,0l331.57,584.343A25,25,0,0,1,706.07,660H42.93a25,25,0,0,1-21.743-37.338Z" stroke="none"/>
      <path d="M 374.5000305175781 81.0518798828125 L 68.68768310546875 619.9999389648438 L 680.3121948242188 619.9999389648438 L 374.5000305175781 81.0518798828125 M 374.4999389648438 25.6573486328125 C 382.9767456054688 25.6573486328125 391.4535217285156 29.87811279296875 396.2434692382813 38.31964111328125 L 727.8135986328125 622.6621704101563 C 737.270263671875 639.3281860351563 725.2321166992188 659.9999389648438 706.0701293945313 659.9999389648438 L 42.92987060546875 659.9999389648438 C 23.76788330078125 659.9999389648438 11.7296142578125 639.3281860351563 21.186279296875 622.6621704101563 L 352.7565307617188 38.31964111328125 C 357.54638671875 29.87811279296875 366.0231628417969 25.6573486328125 374.4999389648438 25.6573486328125 Z" stroke="none" fill="#03bc0a"/>
    </g>
    <path id="Trazado_1" data-name="Trazado 1" d="M475,902.739c8.329-103.131,231.448-220.848,189.931-240s-89.931-80-89.931-80" transform="translate(-305 -280.739)" fill="none" stroke="#03bc0a" stroke-linecap="round" stroke-linejoin="round" stroke-width="40"/>
    <path id="Trazado_3" data-name="Trazado 3" d="M915,876.922C895.384,818.461,750,817,755,767s60-75,40-140S680,577,675,527,775,427,775,427" transform="translate(-295 -245)" fill="none" stroke="#03bc0a" stroke-width="40"/>
    <path id="Trazado_4" data-name="Trazado 4" d="M754.718,385.635c-4.226,1.194-54.97,25.559-81.93,25.209s-45.866,6.847-45.866,6.847" transform="translate(-301.146 -235.692)" fill="none" stroke="#03bc0a" stroke-linecap="round" stroke-width="45"/>
    <g id="exprebus" transform="translate(37.789 827.3)">
      <g id="exprebus_1_" data-name="exprebus (1)" transform="translate(0.211 -126.3)">
        <path id="Trazado_7-2" data-name="Trazado 7" d="M147.367-118.607c-4.253,3.991-9.356,8.767-11.384,10.534l-3.795,3.14-8.309-4.58c-4.645-2.552-9.552-5.169-10.992-5.757-3.271-1.374-8.963-.981-12.431.785-3.14,1.636-3.926,3.991-3.271,10.076l.393,4.253,7,6.673,7,6.673-2.944,3.01a32.586,32.586,0,0,1-5.757,4.711c-2.486,1.5-3.01,1.57-4.776.851-3.01-1.309-8.767-.916-24.8,1.636a192.8,192.8,0,0,1-25.582,2.748c-11.973.458-14.328.131-14.328-1.7,0-1.047.851-1.374,5.43-1.963,2.944-.458,9.814-.916,15.179-1.047,12.5-.327,13.281-.523,15.506-4.645,2.29-4.122,2.355-7.459.2-11.122L68.07-97.147l3.664-.72c3.271-.72,3.729-.981,4.645-3.14,1.5-3.533,1.374-9.552-.262-11.777a22.431,22.431,0,0,0-10.534-7.131c-3.14-.916-6.739-1.112-23.03-1.178h-19.3l-4.907,2.355c-5.169,2.552-11.384,7.393-14.067,11.122-2.944,3.926-1.963,9.16,2.879,15.244C8.271-91,8.991-89.558,8.729-89.1c-.262.393-1.767,2.486-3.337,4.645-7.72,10.4-7.2,14.852,2.682,24.731,7.2,7.2,11.253,8.244,31.339,8.309,21.394,0,44.1-2.224,54.631-5.3l4.776-1.439,3.14,2.617c9.945,8.375,16.553,6.477,24.666-7.131,3.271-5.561,6.8-9.683,8.244-9.683.981,0,2.028.654,8.178,4.972a48.965,48.965,0,0,0,14.2,7.131c4.253,1.243,11.384,1.439,13.347.458,1.766-.981,4.711-6.673,5.169-10.141.393-2.486.131-3.533-1.767-7-2.552-4.776-4.384-6.412-12.693-11.122-4.122-2.355-6.215-3.86-6.085-4.514.262-1.178,5.5-5.234,9.945-7.655l3.271-1.767,1.374,1.9a17.39,17.39,0,0,0,8.7,7A16.4,16.4,0,0,1,182.827-91c.523.523,1.439,3.795,2.028,7.328,3.926,22.114,12.627,33.3,24.927,32.059,3.991-.393,7.131-1.9,8.178-3.795a31.835,31.835,0,0,0,1.243-7.262c.327-3.271.851-6.215,1.178-6.543s8.113-2.486,17.272-4.711c10.664-2.682,18.581-4.972,21.852-6.477,4.056-1.832,5.234-2.159,5.627-1.5.262.523,1.374,4.645,2.486,9.225a89.034,89.034,0,0,0,3.337,11.45c1.57,3.6,6.739,8.9,9.356,9.552,2.028.458,9.748-.785,12.169-2.028,2.617-1.309,3.206-2.355,4.122-6.935l.851-4.187,2.29.2a69.27,69.27,0,0,1,9.356,2.552c6.673,2.159,11.711,4.187,26.563,10.6,3.4,1.5,9.356,3.926,13.281,5.365,6.608,2.421,7.131,2.486,8.9,1.57,2.224-1.112,4.187-3.664,6.019-7.851,1.57-3.533,2.224-3.664,9.16-1.309,7.2,2.486,15.506,3.01,36.769,2.29,25.254-.916,35.265-2.29,42.4-5.888,3.337-1.7,9.094-7.459,9.094-9.094a25.125,25.125,0,0,0-1.047-4.645c-1.309-4.384-4.318-7.589-7.851-8.244-3.337-.589-17.73.916-19.562,2.094-2.29,1.5-11.646,2.748-23.88,3.14-6.281.262-12.5.589-13.739.785-2.879.393-5.365-1.112-4.056-2.486.851-.851,17.338-2.355,26.89-2.421,5.823-.065,9.879-1.832,12.235-5.3,1.9-2.748,1.963-4.645.2-8.44l-1.309-2.944,3.01-2.552a20.584,20.584,0,0,0,4.318-5.234c2.813-5.43.131-11.973-6.477-15.7-3.14-1.7-4.384-2.028-11.122-2.486-4.253-.262-14.459-.523-22.768-.523-14.132-.065-15.375,0-18.319,1.309-7.655,3.4-14.2,8.963-15.31,13.02-.981,3.664.2,12.562,1.963,15.048l1.5,2.094-3.337,3.337c-4.056,4.122-5.234,6.87-5.823,13.216-.327,4.056-.589,4.907-1.5,4.907-1.57,0-11.319-4.972-13.739-6.935-2.355-2.028-2.486-3.4-.458-6.673,4.056-6.346,4.645-12.889,1.7-18.712-3.206-6.477-6.739-9.029-20.74-14.983-19.235-8.309-27.675-10.206-43.835-10.272h-7.328l-2.813,3.795a39.122,39.122,0,0,0-4.318,8.178c-1.832,5.3-1.374,5.234-13.347,2.159a132.93,132.93,0,0,0-14.525-2.944c-10.4-1.243-36.311-2.159-48.742-1.7l-12.1.458-4.842-4.972L165.424-126H154.956ZM56.49-103.1a15.145,15.145,0,0,1,4.645,2.552c1.112,1.178.981,1.243-2.224,1.963-9.16,1.963-21.721-.72-18.516-3.926C42.489-104.606,51.648-104.867,56.49-103.1Zm239.983.327a36.938,36.938,0,0,0,5.169,2.094c5.823,2.028,10.4,4.318,10.468,5.169,0,1.112-2.748,2.748-5.627,3.271a10.729,10.729,0,0,0-3.206.916c-.327.327-3.337.72-6.608.981l-5.954.458-1.5-2.486c-2.813-4.58-3.86-7.066-3.926-9.356v-2.224l5.1.327A22.874,22.874,0,0,1,296.472-102.774Zm113.318,1.309a19.374,19.374,0,0,0,5.169.981c2.29,0,3.729.851,2.617,1.57-1.243.72-13.151.981-16.814.262-4.122-.785-5.757-1.57-5.365-2.748C395.985-103.232,404.556-103.3,409.79-101.465ZM224.766-97.147A39.5,39.5,0,0,1,230-95.839a11.624,11.624,0,0,0,2.813.916c1.112.2,2.094.654,2.094.916a6.811,6.811,0,0,1-2.094,1.57c-2.552,1.309-10.076,2.421-19.366,2.879-5.823.262-7,.131-8.047-.851-1.439-1.309-1.636-4.842-.393-6.87.72-1.243,1.309-1.309,7.982-1.047A112.934,112.934,0,0,1,224.766-97.147Z" transform="translate(-0.079 126)" fill="#03bc0a" stroke="#131313" stroke-width="7"/>
        <path id="Trazado_8" data-name="Trazado 8" d="M744.088-125.452c-16.749,2.682-37.947,6.477-40.433,7.2-3.337.981-7.655,6.87-7.655,10.4,0,2.682,1.047,4.122,8.505,11.45,7.655,7.524,7.786,7.655,15.375,25.582,6.608,15.571,7.786,17.338,13.216,20.936,5.5,3.6,7.851,4.122,17.534,4.056,7.524,0,9.029-.393,30.75-7.066,18.646-5.757,20.348-6.412,25.712-10.468l4.122-3.075,3.729,2.682c8.505,6.215,17.665,8.9,28.853,8.44,5.757-.2,6.739-.458,11.842-2.944a83.247,83.247,0,0,0,10.4-6.346c2.682-2.028,5.234-3.664,5.692-3.664s1.178,1.178,1.57,2.682c1.439,5.365,8.767,10.664,16.16,11.711,8.7,1.178,54.434-2.944,65.753-5.954,3.4-.851,6.346-3.6,8.113-7.459,2.028-4.253,1.963-7.72-.131-11.973-1.57-3.14-6.215-7.982-7.72-7.982a86.193,86.193,0,0,1-10.534-3.991,27.064,27.064,0,0,0-5.888-1.178,43.552,43.552,0,0,1-6.543-1.309,101.515,101.515,0,0,0-10.4-2.159c-5.038-.916-8.571-1.832-8.767-2.355-.327-.981,4.122-1.047,8.178-.131,6.543,1.5,26.17,4.318,26.694,3.86a32.121,32.121,0,0,0,1.047-5.757c.916-6.8.327-7.917-6.15-10.861-9.291-4.253-23.88-6.87-38.078-6.87-10.337,0-15.637.916-22.637,3.86l-4.711,1.963-2.028-1.7c-6.412-5.365-15.244-4.384-18.319,2.028a52.456,52.456,0,0,0-2.094,10.4c-1.047,8.7-3.141,14.328-6.477,17.6-3.141,3.14-9.225,4.056-14.067,2.094-3.337-1.374-3.729-2.879-2.682-9.748,1.636-9.945,1.636-12.954.131-16.291-1.963-4.514-5.169-5.692-11.711-4.253-4.449.916-6.87,3.533-10.73,11.515-2.421,5.038-3.533,6.739-4.449,6.739-2.224,0-11.842-3.337-12.169-4.187-.2-.523.262-1.9.981-3.075,2.355-3.86,1.374-12.3-1.766-15.9-1.7-1.9-8.244-4.645-15.7-6.543-5.627-1.374-8.636-1.7-18.646-1.963C751.416-125.583,745.2-125.583,744.088-125.452Zm9.487,19.235c0,.327,1.57.654,3.533.654s3.795.262,3.991.654a3.6,3.6,0,0,0,2.355.654c1.636,0,1.832.131,1.112.785-1.374,1.243-3.664,2.486-4.645,2.486a9.863,9.863,0,0,0-3.075,1.047,30.882,30.882,0,0,1-8.963,2.682c-1.178.2-2.159.589-2.159.916s-.981.589-2.224.589-2.486.262-2.682.654a3.991,3.991,0,0,1-2.552.654c-1.832,0-2.224-.327-3.206-2.486-1.243-2.879-1.439-5.1-.458-5.692a1.688,1.688,0,0,0,.654-1.439c0-2.224,2.028-2.748,10.337-2.813C750.5-106.871,753.575-106.609,753.575-106.217ZM891.362-82.663A186.321,186.321,0,0,0,914.2-77.953c1.243.131,1.963.589,1.963,1.178,0,.851-1.57.981-9.421,1.178l-9.421.2-4.645-2.486c-4.253-2.29-5.1-2.486-9.879-2.486-3.729,0-5.234-.262-5.169-.851.065-.393.131-1.309.2-1.963a9.229,9.229,0,0,1,1.374-3.206l1.243-2.094,3.729,2.224A56.716,56.716,0,0,0,891.362-82.663Zm-126.73,5.1c.2.327,1.832.785,3.6.981,4.122.589,9.618,2.552,9.356,3.4-.131.327-1.7.916-3.468,1.309a21.417,21.417,0,0,0-3.86,1.047,20.4,20.4,0,0,1-4.907.916,19.21,19.21,0,0,0-4.907.981c-.392.327-2.944.785-5.757,1.047-6.019.523-7,0-7-3.926a6.163,6.163,0,0,1,2.028-4.907l1.963-2.224,6.281.393C761.426-78.345,764.436-77.887,764.632-77.56Z" transform="translate(-240.686 125.844)" fill="#03bc0a" stroke="#131313" stroke-width="7"/>
      </g>
    </g>
  </g>
</svg>
