<svg width="1919" height="941" viewBox="0 0 1919 941" fill="none" xmlns="http://www.w3.org/2000/svg">
<g clip-path="url(#clip0_1_2)">
<rect width="1919" height="941" fill="url(#paint0_linear_1_2)"/>
<g clip-path="url(#clip1_1_2)">
<path d="M68 801.39C68 797.739 70.9594 794.78 74.61 794.78C78.2606 794.78 81.22 797.739 81.22 801.39C81.22 805.041 78.2606 808 74.61 808C70.9594 808 68 805.041 68 801.39Z" fill="#8EB0D6"/>
<path d="M240.77 769.98C240.77 766.329 243.729 763.37 247.38 763.37C251.031 763.37 253.99 766.329 253.99 769.98C253.99 773.631 251.031 776.59 247.38 776.59C243.729 776.59 240.77 773.631 240.77 769.98Z" fill="#8EB0D6"/>
<path d="M228.78 609.61C228.78 605.959 231.739 603 235.39 603C239.041 603 242 605.959 242 609.61C242 613.261 239.041 616.22 235.39 616.22C231.739 616.22 228.78 613.261 228.78 609.61Z" fill="#8EB0D6"/>
<path d="M527.61 611.68C527.61 608.029 530.569 605.07 534.22 605.07C537.871 605.07 540.83 608.029 540.83 611.68C540.83 615.331 537.871 618.29 534.22 618.29C530.569 618.29 527.61 615.331 527.61 611.68Z" fill="#8EB0D6"/>
<path d="M420.56 722.04C420.56 718.389 423.519 715.43 427.17 715.43C430.821 715.43 433.78 718.389 433.78 722.04C433.78 725.691 430.821 728.65 427.17 728.65C423.519 728.65 420.56 725.691 420.56 722.04Z" fill="#8EB0D6"/>
<path d="M379.64 858.84C379.64 855.189 382.599 852.23 386.25 852.23C389.901 852.23 392.86 855.189 392.86 858.84C392.86 862.491 389.901 865.45 386.25 865.45C382.599 865.45 379.64 862.491 379.64 858.84Z" fill="#8EB0D6"/>
<path d="M743.78 914.64C743.78 910.989 746.739 908.03 750.39 908.03C754.041 908.03 757 910.989 757 914.64C757 918.291 754.041 921.25 750.39 921.25C746.739 921.25 743.78 918.291 743.78 914.64Z" fill="#8EB0D6"/>
<path d="M105.61 895.63C105.61 891.979 108.569 889.02 112.22 889.02C115.871 889.02 118.83 891.979 118.83 895.63C118.83 899.281 115.871 902.24 112.22 902.24C108.569 902.24 105.61 899.281 105.61 895.63Z" fill="#8EB0D6"/>
<path d="M1179 198.39C1179 194.739 1181.96 191.78 1185.61 191.78C1189.26 191.78 1192.22 194.739 1192.22 198.39C1192.22 202.041 1189.26 205 1185.61 205C1181.96 205 1179 202.041 1179 198.39Z" fill="#8EB0D6"/>
<path d="M1351.77 166.98C1351.77 163.329 1354.73 160.37 1358.38 160.37C1362.03 160.37 1364.99 163.329 1364.99 166.98C1364.99 170.631 1362.03 173.59 1358.38 173.59C1354.73 173.59 1351.77 170.631 1351.77 166.98Z" fill="#8EB0D6"/>
<path d="M1339.78 6.61C1339.78 2.9594 1342.74 0 1346.39 0C1350.04 0 1353 2.9594 1353 6.61C1353 10.2606 1350.04 13.22 1346.39 13.22C1342.74 13.22 1339.78 10.2606 1339.78 6.61Z" fill="#8EB0D6"/>
<path d="M1638.61 8.68001C1638.61 5.02941 1641.57 2.07001 1645.22 2.07001C1648.87 2.07001 1651.83 5.02941 1651.83 8.68001C1651.83 12.3306 1648.87 15.29 1645.22 15.29C1641.57 15.29 1638.61 12.3306 1638.61 8.68001Z" fill="#8EB0D6"/>
<path d="M1531.56 119.04C1531.56 115.389 1534.52 112.43 1538.17 112.43C1541.82 112.43 1544.78 115.389 1544.78 119.04C1544.78 122.691 1541.82 125.65 1538.17 125.65C1534.52 125.65 1531.56 122.691 1531.56 119.04Z" fill="#8EB0D6"/>
<path d="M1490.64 255.84C1490.64 252.189 1493.6 249.23 1497.25 249.23C1500.9 249.23 1503.86 252.189 1503.86 255.84C1503.86 259.491 1500.9 262.45 1497.25 262.45C1493.6 262.45 1490.64 259.491 1490.64 255.84Z" fill="#8EB0D6"/>
<path d="M1854.78 311.64C1854.78 307.989 1857.74 305.03 1861.39 305.03C1865.04 305.03 1868 307.989 1868 311.64C1868 315.291 1865.04 318.25 1861.39 318.25C1857.74 318.25 1854.78 315.291 1854.78 311.64Z" fill="#8EB0D6"/>
<path d="M1216.61 292.63C1216.61 288.979 1219.57 286.02 1223.22 286.02C1226.87 286.02 1229.83 288.979 1229.83 292.63C1229.83 296.281 1226.87 299.24 1223.22 299.24C1219.57 299.24 1216.61 296.281 1216.61 292.63Z" fill="#8EB0D6"/>
<path d="M1044 821.39C1044 817.739 1046.96 814.78 1050.61 814.78C1054.26 814.78 1057.22 817.739 1057.22 821.39C1057.22 825.041 1054.26 828 1050.61 828C1046.96 828 1044 825.041 1044 821.39Z" fill="#8EB0D6"/>
<path d="M1216.77 789.98C1216.77 786.329 1219.73 783.37 1223.38 783.37C1227.03 783.37 1229.99 786.329 1229.99 789.98C1229.99 793.631 1227.03 796.59 1223.38 796.59C1219.73 796.59 1216.77 793.631 1216.77 789.98Z" fill="#8EB0D6"/>
<path d="M1204.78 629.61C1204.78 625.959 1207.74 623 1211.39 623C1215.04 623 1218 625.959 1218 629.61C1218 633.261 1215.04 636.22 1211.39 636.22C1207.74 636.22 1204.78 633.261 1204.78 629.61Z" fill="#8EB0D6"/>
<path d="M1503.61 631.68C1503.61 628.029 1506.57 625.07 1510.22 625.07C1513.87 625.07 1516.83 628.029 1516.83 631.68C1516.83 635.331 1513.87 638.29 1510.22 638.29C1506.57 638.29 1503.61 635.331 1503.61 631.68Z" fill="#8EB0D6"/>
<path d="M1396.56 742.04C1396.56 738.389 1399.52 735.43 1403.17 735.43C1406.82 735.43 1409.78 738.389 1409.78 742.04C1409.78 745.691 1406.82 748.65 1403.17 748.65C1399.52 748.65 1396.56 745.691 1396.56 742.04Z" fill="#8EB0D6"/>
<path d="M1355.64 878.84C1355.64 875.189 1358.6 872.23 1362.25 872.23C1365.9 872.23 1368.86 875.189 1368.86 878.84C1368.86 882.491 1365.9 885.45 1362.25 885.45C1358.6 885.45 1355.64 882.491 1355.64 878.84Z" fill="#8EB0D6"/>
<path d="M1719.78 934.64C1719.78 930.989 1722.74 928.03 1726.39 928.03C1730.04 928.03 1733 930.989 1733 934.64C1733 938.291 1730.04 941.25 1726.39 941.25C1722.74 941.25 1719.78 938.291 1719.78 934.64Z" fill="#8EB0D6"/>
<path d="M1081.61 915.63C1081.61 911.979 1084.57 909.02 1088.22 909.02C1091.87 909.02 1094.83 911.979 1094.83 915.63C1094.83 919.281 1091.87 922.24 1088.22 922.24C1084.57 922.24 1081.61 919.281 1081.61 915.63Z" fill="#8EB0D6"/>
<path d="M561 237.39C561 233.739 563.959 230.78 567.61 230.78C571.261 230.78 574.22 233.739 574.22 237.39C574.22 241.041 571.261 244 567.61 244C563.959 244 561 241.041 561 237.39Z" fill="#8EB0D6"/>
<path d="M733.77 205.98C733.77 202.329 736.729 199.37 740.38 199.37C744.031 199.37 746.99 202.329 746.99 205.98C746.99 209.631 744.031 212.59 740.38 212.59C736.729 212.59 733.77 209.631 733.77 205.98Z" fill="#8EB0D6"/>
<path d="M721.78 45.61C721.78 41.9594 724.739 39 728.39 39C732.041 39 735 41.9594 735 45.61C735 49.2606 732.041 52.22 728.39 52.22C724.739 52.22 721.78 49.2606 721.78 45.61Z" fill="#8EB0D6"/>
<path d="M1020.61 47.68C1020.61 44.0294 1023.57 41.07 1027.22 41.07C1030.87 41.07 1033.83 44.0294 1033.83 47.68C1033.83 51.3306 1030.87 54.29 1027.22 54.29C1023.57 54.29 1020.61 51.3306 1020.61 47.68Z" fill="#8EB0D6"/>
<path d="M61.61 71.68C61.61 68.0294 64.5694 65.07 68.22 65.07C71.8706 65.07 74.83 68.0294 74.83 71.68C74.83 75.3306 71.8706 78.29 68.22 78.29C64.5694 78.29 61.61 75.3306 61.61 71.68Z" fill="#8EB0D6"/>
<path d="M61.61 219.68C61.61 216.029 64.5694 213.07 68.22 213.07C71.8706 213.07 74.83 216.029 74.83 219.68C74.83 223.331 71.8706 226.29 68.22 226.29C64.5694 226.29 61.61 223.331 61.61 219.68Z" fill="#8EB0D6"/>
<path d="M1746.61 491.68C1746.61 488.029 1749.57 485.07 1753.22 485.07C1756.87 485.07 1759.83 488.029 1759.83 491.68C1759.83 495.331 1756.87 498.29 1753.22 498.29C1749.57 498.29 1746.61 495.331 1746.61 491.68Z" fill="#8EB0D6"/>
<path d="M1648.61 621.68C1648.61 618.029 1651.57 615.07 1655.22 615.07C1658.87 615.07 1661.83 618.029 1661.83 621.68C1661.83 625.331 1658.87 628.29 1655.22 628.29C1651.57 628.29 1648.61 625.331 1648.61 621.68Z" fill="#8EB0D6"/>
<path d="M1726.61 139.68C1726.61 136.029 1729.57 133.07 1733.22 133.07C1736.87 133.07 1739.83 136.029 1739.83 139.68C1739.83 143.331 1736.87 146.29 1733.22 146.29C1729.57 146.29 1726.61 143.331 1726.61 139.68Z" fill="#8EB0D6"/>
<path d="M1810.61 54.68C1810.61 51.0294 1813.57 48.07 1817.22 48.07C1820.87 48.07 1823.83 51.0294 1823.83 54.68C1823.83 58.3306 1820.87 61.29 1817.22 61.29C1813.57 61.29 1810.61 58.3306 1810.61 54.68Z" fill="#8EB0D6"/>
<path d="M913.56 158.04C913.56 154.389 916.519 151.43 920.17 151.43C923.821 151.43 926.78 154.389 926.78 158.04C926.78 161.691 923.821 164.65 920.17 164.65C916.519 164.65 913.56 161.691 913.56 158.04Z" fill="#8EB0D6"/>
<path d="M1007.64 276.84C1007.64 273.189 1010.6 270.23 1014.25 270.23C1017.9 270.23 1020.86 273.189 1020.86 276.84C1020.86 280.491 1017.9 283.45 1014.25 283.45C1010.6 283.45 1007.64 280.491 1007.64 276.84Z" fill="#8EB0D6"/>
<path d="M968.64 403.84C968.64 400.189 971.599 397.23 975.25 397.23C978.901 397.23 981.86 400.189 981.86 403.84C981.86 407.491 978.901 410.45 975.25 410.45C971.599 410.45 968.64 407.491 968.64 403.84Z" fill="#8EB0D6"/>
<path d="M1236.78 350.64C1236.78 346.989 1239.74 344.03 1243.39 344.03C1247.04 344.03 1250 346.989 1250 350.64C1250 354.291 1247.04 357.25 1243.39 357.25C1239.74 357.25 1236.78 354.291 1236.78 350.64Z" fill="#8EB0D6"/>
<path d="M598.61 331.63C598.61 327.979 601.569 325.02 605.22 325.02C608.871 325.02 611.83 327.979 611.83 331.63C611.83 335.281 608.871 338.24 605.22 338.24C601.569 338.24 598.61 335.281 598.61 331.63Z" fill="#8EB0D6"/>
<path d="M1230 483.39C1230 479.739 1232.96 476.78 1236.61 476.78C1240.26 476.78 1243.22 479.739 1243.22 483.39C1243.22 487.041 1240.26 490 1236.61 490C1232.96 490 1230 487.041 1230 483.39Z" fill="#8EB0D6"/>
<path d="M1402.77 451.98C1402.77 448.329 1405.73 445.37 1409.38 445.37C1413.03 445.37 1415.99 448.329 1415.99 451.98C1415.99 455.631 1413.03 458.59 1409.38 458.59C1405.73 458.59 1402.77 455.631 1402.77 451.98Z" fill="#8EB0D6"/>
<path d="M1390.78 291.61C1390.78 287.959 1393.74 285 1397.39 285C1401.04 285 1404 287.959 1404 291.61C1404 295.261 1401.04 298.22 1397.39 298.22C1393.74 298.22 1390.78 295.261 1390.78 291.61Z" fill="#8EB0D6"/>
<path d="M1689.61 293.68C1689.61 290.029 1692.57 287.07 1696.22 287.07C1699.87 287.07 1702.83 290.029 1702.83 293.68C1702.83 297.331 1699.87 300.29 1696.22 300.29C1692.57 300.29 1689.61 297.331 1689.61 293.68Z" fill="#8EB0D6"/>
<path d="M1582.56 404.04C1582.56 400.389 1585.52 397.43 1589.17 397.43C1592.82 397.43 1595.78 400.389 1595.78 404.04C1595.78 407.691 1592.82 410.65 1589.17 410.65C1585.52 410.65 1582.56 407.691 1582.56 404.04Z" fill="#8EB0D6"/>
<path d="M1541.64 540.84C1541.64 537.189 1544.6 534.23 1548.25 534.23C1551.9 534.23 1554.86 537.189 1554.86 540.84C1554.86 544.491 1551.9 547.45 1548.25 547.45C1544.6 547.45 1541.64 544.491 1541.64 540.84Z" fill="#8EB0D6"/>
<path d="M1905.78 596.64C1905.78 592.989 1908.74 590.03 1912.39 590.03C1916.04 590.03 1919 592.989 1919 596.64C1919 600.291 1916.04 603.25 1912.39 603.25C1908.74 603.25 1905.78 600.291 1905.78 596.64Z" fill="#8EB0D6"/>
<path d="M1267.61 577.63C1267.61 573.979 1270.57 571.02 1274.22 571.02C1277.87 571.02 1280.83 573.979 1280.83 577.63C1280.83 581.281 1277.87 584.24 1274.22 584.24C1270.57 584.24 1267.61 581.281 1267.61 577.63Z" fill="#8EB0D6"/>
<path d="M585 483.39C585 479.739 587.959 476.78 591.61 476.78C595.261 476.78 598.22 479.739 598.22 483.39C598.22 487.041 595.261 490 591.61 490C587.959 490 585 487.041 585 483.39Z" fill="#8EB0D6"/>
<path d="M829.77 583.98C829.77 580.329 832.729 577.37 836.38 577.37C840.031 577.37 842.99 580.329 842.99 583.98C842.99 587.631 840.031 590.59 836.38 590.59C832.729 590.59 829.77 587.631 829.77 583.98Z" fill="#8EB0D6"/>
<path d="M817.78 423.61C817.78 419.959 820.739 417 824.39 417C828.041 417 831 419.959 831 423.61C831 427.261 828.041 430.22 824.39 430.22C820.739 430.22 817.78 427.261 817.78 423.61Z" fill="#8EB0D6"/>
<path d="M1116.61 425.68C1116.61 422.029 1119.57 419.07 1123.22 419.07C1126.87 419.07 1129.83 422.029 1129.83 425.68C1129.83 429.331 1126.87 432.29 1123.22 432.29C1119.57 432.29 1116.61 429.331 1116.61 425.68Z" fill="#8EB0D6"/>
<path d="M1009.56 536.04C1009.56 532.389 1012.52 529.43 1016.17 529.43C1019.82 529.43 1022.78 532.389 1022.78 536.04C1022.78 539.691 1019.82 542.65 1016.17 542.65C1012.52 542.65 1009.56 539.691 1009.56 536.04Z" fill="#8EB0D6"/>
<path d="M968.64 672.84C968.64 669.189 971.599 666.23 975.25 666.23C978.901 666.23 981.86 669.189 981.86 672.84C981.86 676.491 978.901 679.45 975.25 679.45C971.599 679.45 968.64 676.491 968.64 672.84Z" fill="#8EB0D6"/>
<path d="M1332.78 728.64C1332.78 724.989 1335.74 722.03 1339.39 722.03C1343.04 722.03 1346 724.989 1346 728.64C1346 732.291 1343.04 735.25 1339.39 735.25C1335.74 735.25 1332.78 732.291 1332.78 728.64Z" fill="#8EB0D6"/>
<path d="M694.61 709.63C694.61 705.979 697.569 703.02 701.22 703.02C704.871 703.02 707.83 705.979 707.83 709.63C707.83 713.281 704.871 716.24 701.22 716.24C697.569 716.24 694.61 713.281 694.61 709.63Z" fill="#8EB0D6"/>
<path d="M161 212.39C161 208.739 163.959 205.78 167.61 205.78C171.261 205.78 174.22 208.739 174.22 212.39C174.22 216.041 171.261 219 167.61 219C163.959 219 161 216.041 161 212.39Z" fill="#8EB0D6"/>
<path d="M333.77 180.98C333.77 177.329 336.729 174.37 340.38 174.37C344.031 174.37 346.99 177.329 346.99 180.98C346.99 184.631 344.031 187.59 340.38 187.59C336.729 187.59 333.77 184.631 333.77 180.98Z" fill="#8EB0D6"/>
<path d="M321.78 20.61C321.78 16.9594 324.739 14 328.39 14C332.041 14 335 16.9594 335 20.61C335 24.2606 332.041 27.22 328.39 27.22C324.739 27.22 321.78 24.2606 321.78 20.61Z" fill="#8EB0D6"/>
<path d="M620.61 22.68C620.61 19.0294 623.569 16.07 627.22 16.07C630.871 16.07 633.83 19.0294 633.83 22.68C633.83 26.3306 630.871 29.29 627.22 29.29C623.569 29.29 620.61 26.3306 620.61 22.68Z" fill="#8EB0D6"/>
<path d="M513.56 133.04C513.56 129.389 516.519 126.43 520.17 126.43C523.821 126.43 526.78 129.389 526.78 133.04C526.78 136.691 523.821 139.65 520.17 139.65C516.519 139.65 513.56 136.691 513.56 133.04Z" fill="#8EB0D6"/>
<path d="M472.64 269.84C472.64 266.189 475.599 263.23 479.25 263.23C482.901 263.23 485.86 266.189 485.86 269.84C485.86 273.491 482.901 276.45 479.25 276.45C475.599 276.45 472.64 273.491 472.64 269.84Z" fill="#8EB0D6"/>
<path d="M836.78 325.64C836.78 321.989 839.739 319.03 843.39 319.03C847.041 319.03 850 321.989 850 325.64C850 329.291 847.041 332.25 843.39 332.25C839.739 332.25 836.78 329.291 836.78 325.64Z" fill="#8EB0D6"/>
<path d="M198.61 306.63C198.61 302.979 201.569 300.02 205.22 300.02C208.871 300.02 211.83 302.979 211.83 306.63C211.83 310.281 208.871 313.24 205.22 313.24C201.569 313.24 198.61 310.281 198.61 306.63Z" fill="#8EB0D6"/>
<path d="M0 516.39C0 512.739 2.9594 509.78 6.61 509.78C10.2606 509.78 13.22 512.739 13.22 516.39C13.22 520.041 10.2606 523 6.61 523C2.9594 523 0 520.041 0 516.39Z" fill="#8EB0D6"/>
<path d="M172.77 484.98C172.77 481.329 175.729 478.37 179.38 478.37C183.031 478.37 185.99 481.329 185.99 484.98C185.99 488.631 183.031 491.59 179.38 491.59C175.729 491.59 172.77 488.631 172.77 484.98Z" fill="#8EB0D6"/>
<path d="M160.78 324.61C160.78 320.959 163.739 318 167.39 318C171.041 318 174 320.959 174 324.61C174 328.261 171.041 331.22 167.39 331.22C163.739 331.22 160.78 328.261 160.78 324.61Z" fill="#8EB0D6"/>
<path d="M459.61 326.68C459.61 323.029 462.569 320.07 466.22 320.07C469.871 320.07 472.83 323.029 472.83 326.68C472.83 330.331 469.871 333.29 466.22 333.29C462.569 333.29 459.61 330.331 459.61 326.68Z" fill="#8EB0D6"/>
<path d="M330.39 109.61C330.39 105.959 333.349 103 337 103C340.651 103 343.61 105.959 343.61 109.61C343.61 113.261 340.651 116.22 337 116.22C333.349 116.22 330.39 113.261 330.39 109.61Z" fill="#8EB0D6"/>
<path d="M132.03 52.61C132.03 48.9594 134.989 46 138.64 46C142.291 46 145.25 48.9594 145.25 52.61C145.25 56.2606 142.291 59.22 138.64 59.22C134.989 59.22 132.03 56.2606 132.03 52.61Z" fill="#8EB0D6"/>
<path d="M119 109.45C119 105.799 121.959 102.84 125.61 102.84C129.261 102.84 132.22 105.799 132.22 109.45C132.22 113.101 129.261 116.06 125.61 116.06C121.959 116.06 119 113.101 119 109.45Z" fill="#8EB0D6"/>
<path d="M272 224.61C272 220.959 274.959 218 278.61 218C282.261 218 285.22 220.959 285.22 224.61C285.22 228.261 282.261 231.22 278.61 231.22C274.959 231.22 272 228.261 272 224.61Z" fill="#8EB0D6"/>
<path d="M352.56 437.04C352.56 433.389 355.519 430.43 359.17 430.43C362.821 430.43 365.78 433.389 365.78 437.04C365.78 440.691 362.821 443.65 359.17 443.65C355.519 443.65 352.56 440.691 352.56 437.04Z" fill="#8EB0D6"/>
<path d="M311.64 573.84C311.64 570.189 314.599 567.23 318.25 567.23C321.901 567.23 324.86 570.189 324.86 573.84C324.86 577.491 321.901 580.45 318.25 580.45C314.599 580.45 311.64 577.491 311.64 573.84Z" fill="#8EB0D6"/>
<path d="M675.78 629.64C675.78 625.989 678.739 623.03 682.39 623.03C686.041 623.03 689 625.989 689 629.64C689 633.291 686.041 636.25 682.39 636.25C678.739 636.25 675.78 633.291 675.78 629.64Z" fill="#8EB0D6"/>
<path d="M37.61 610.63C37.61 606.979 40.5694 604.02 44.22 604.02C47.8706 604.02 50.83 606.979 50.83 610.63C50.83 614.281 47.8706 617.24 44.22 617.24C40.5694 617.24 37.61 614.281 37.61 610.63Z" fill="#8EB0D6"/>
<circle cx="256" cy="224" r="130" fill="#FFE24D" fill-opacity="0.75"/>
</g>
</g>
<defs>
<linearGradient id="paint0_linear_1_2" x1="959.5" y1="0" x2="959.5" y2="941" gradientUnits="userSpaceOnUse">
<stop stop-color="#182638"/>
<stop offset="1" stop-color="#1E3279" stop-opacity="0"/>
</linearGradient>
<clipPath id="clip0_1_2">
<rect width="1919" height="941" fill="white"/>
</clipPath>
<clipPath id="clip1_1_2">
<rect width="1919" height="941" fill="white"/>
</clipPath>
</defs>
</svg>
