<svg width="774" height="772" viewBox="0 0 774 772" fill="none" xmlns="http://www.w3.org/2000/svg">
<g clip-path="url(#clip0_1_2)">
<g clip-path="url(#clip1_1_2)">
<path d="M309 161H141V761H309V161Z" fill="#FCE8CB"/>
<path d="M86.6487 677.5C74.5019 677.5 63.1353 674.167 52.8646 667.593C48.0962 664.541 43.544 660.767 39.3346 656.375C35.299 652.165 31.526 647.334 28.1205 642.016C24.8388 636.891 21.8675 631.267 19.2892 625.301C16.7852 619.507 14.6375 613.357 12.9059 607.024C11.2065 600.809 9.90334 594.401 9.03271 587.981C8.16763 581.601 7.729 575.204 7.729 568.968C7.729 561.191 9.1763 550.98 12.0307 538.618C14.6236 527.388 18.3844 514.343 23.2087 499.844C31.5727 474.706 43.1065 445.346 55.6855 417.172C59.0402 409.658 61.8088 402.221 64.4862 395.028C68.049 385.457 71.126 377.192 74.7065 371.11C78.579 364.532 82.5581 361.468 87.229 361.468C90.3935 361.468 93.4253 362.793 96.4975 365.52C99.3144 368.02 102.122 371.667 105.081 376.668C110.654 386.089 115.99 399.063 121.64 412.799C123.299 416.832 125.015 421.004 126.768 425.162C130.442 433.874 134.276 442.55 137.984 450.941C156.905 493.756 174.777 534.196 170.989 576.924L170.987 576.946V576.968C170.987 583.261 170.518 589.582 169.594 595.756C168.672 601.921 167.287 607.995 165.478 613.809C163.656 619.668 161.385 625.318 158.73 630.603C156.032 635.974 152.907 641.024 149.443 645.615C142.193 655.219 133.506 662.822 123.621 668.211C113.065 673.967 101.32 677.081 88.7137 677.468C88.0262 677.489 87.3314 677.5 86.6487 677.5Z" fill="#B9BC39"/>
<path d="M87.229 361.968C82.7531 361.968 78.9109 364.953 75.1374 371.363C71.5792 377.407 68.5094 385.654 64.9548 395.203C62.2746 402.403 59.5032 409.848 56.1421 417.376C43.5696 445.536 32.0421 474.879 23.6832 500.001C18.8638 514.486 15.1073 527.516 12.5178 538.731C9.67195 551.056 8.229 561.229 8.229 568.968C8.229 575.181 8.66612 581.556 9.52821 587.913C10.3958 594.312 11.6945 600.698 13.3882 606.892C15.1136 613.203 17.2534 619.33 19.7482 625.103C22.3158 631.044 25.2743 636.644 28.5416 641.746C31.9296 647.037 35.6823 651.842 39.6956 656.029C43.8776 660.392 48.399 664.141 53.1342 667.172C63.323 673.693 74.599 677 86.6487 677C87.327 677 88.0166 676.989 88.6983 676.968C101.226 676.584 112.895 673.49 123.382 667.772C133.203 662.417 141.837 654.861 149.043 645.313C152.49 640.747 155.599 635.722 158.283 630.379C160.926 625.118 163.186 619.493 165.001 613.66C166.802 607.871 168.181 601.822 169.1 595.682C170.02 589.532 170.487 583.236 170.487 576.968V576.924L170.49 576.88C174.267 534.28 156.421 493.897 137.527 451.143C133.818 442.751 129.983 434.072 126.308 425.357C124.553 421.196 122.837 417.023 121.177 412.988C115.535 399.27 110.205 386.312 104.65 376.922C101.718 371.967 98.943 368.359 96.1656 365.894C93.1889 363.252 90.2657 361.968 87.229 361.968ZM87.229 360.968C102.864 360.968 113.537 392.498 127.229 424.968C149.453 477.672 176.038 525.63 171.487 576.968C171.487 627.778 141.352 676.352 88.729 677.968C88.032 677.989 87.3373 678 86.6487 678C35.3438 678 7.229 619.105 7.229 568.968C7.229 536.145 32.5765 467.705 55.229 416.968C67.5178 389.443 72.6634 360.968 87.229 360.968Z" fill="#707070"/>
<path d="M73.098 384.968C85.971 384.968 94.759 413.611 106.029 443.107C124.329 490.985 146.217 534.551 142.469 581.188C142.469 627.345 117.658 671.471 74.33 672.939C31.002 674.407 7.229 620.078 7.229 573.921C7.229 544.104 28.099 481.931 46.75 435.84C56.868 410.836 61.105 384.968 73.098 384.968Z" fill="#D7E057"/>
<path d="M635.5 761.5H508.5V362.5H635.5V549.562V761.5Z" fill="#8AC6DD"/>
<path d="M509 363V761H635V549.562V363H509ZM508 362H636C636 362 636 449.562 636 549.562C636 649.562 636 762 636 762H508V362Z" fill="#707070"/>
<path d="M683.42 674.532C671.273 674.532 659.906 671.199 649.636 664.625C644.867 661.573 640.315 657.799 636.106 653.407C632.07 649.197 628.297 644.366 624.892 639.048C621.61 633.923 618.638 628.299 616.06 622.333C613.556 616.539 611.409 610.389 609.677 604.056C607.977 597.841 606.674 591.433 605.804 585.013C604.939 578.633 604.5 572.236 604.5 566C604.5 558.224 605.947 548.012 608.802 535.65C611.395 524.42 615.155 511.375 619.98 496.876C628.344 471.738 639.878 442.378 652.457 414.204C655.811 406.69 658.58 399.253 661.257 392.06C664.82 382.489 667.897 374.224 671.478 368.142C675.35 361.564 679.329 358.5 684 358.5C687.165 358.5 690.196 359.826 693.269 362.552C696.085 365.052 698.893 368.699 701.852 373.7C707.425 383.121 712.761 396.095 718.411 409.831C720.07 413.864 721.786 418.036 723.539 422.194C727.213 430.906 731.047 439.582 734.755 447.973C753.676 490.788 771.548 531.228 767.76 573.956L767.758 573.978V574C767.758 580.293 767.289 586.614 766.365 592.788C765.443 598.953 764.058 605.027 762.249 610.841C760.427 616.7 758.156 622.35 755.501 627.635C752.803 633.006 749.678 638.056 746.214 642.647C738.964 652.251 730.277 659.854 720.392 665.243C709.836 670.999 698.091 674.113 685.485 674.5C684.797 674.521 684.102 674.532 683.42 674.532Z" fill="#B9BC39"/>
<path d="M684 359C679.524 359 675.682 361.985 671.908 368.395C668.35 374.439 665.28 382.686 661.726 392.235C659.046 399.435 656.274 406.88 652.913 414.408C640.341 442.568 628.813 471.911 620.454 497.033C615.635 511.518 611.878 524.548 609.289 535.763C606.443 548.088 605 558.261 605 566C605 572.213 605.437 578.588 606.299 584.946C607.167 591.345 608.466 597.73 610.159 603.924C611.885 610.235 614.024 616.362 616.519 622.135C619.087 628.076 622.045 633.676 625.313 638.778C628.701 644.069 632.453 648.874 636.467 653.061C640.649 657.424 645.17 661.173 649.905 664.204C660.094 670.725 671.37 674.032 683.42 674.032C684.098 674.032 684.788 674.021 685.469 674C697.997 673.616 709.666 670.522 720.153 664.804C729.974 659.449 738.608 651.893 745.814 642.345C749.261 637.779 752.37 632.754 755.054 627.411C757.697 622.15 759.957 616.525 761.772 610.693C763.573 604.903 764.952 598.854 765.871 592.714C766.791 586.564 767.258 580.268 767.258 574V573.956L767.261 573.912C771.038 531.312 753.192 490.929 734.298 448.175C730.589 439.783 726.754 431.104 723.079 422.389C721.324 418.228 719.608 414.055 717.948 410.021C712.306 396.302 706.976 383.344 701.421 373.954C698.489 368.999 695.714 365.391 692.937 362.926C689.96 360.284 687.037 359 684 359ZM684 358C699.635 358 710.308 389.53 724 422C746.224 474.704 772.809 522.662 768.258 574C768.258 624.81 738.123 673.384 685.5 675C684.803 675.021 684.108 675.032 683.42 675.032C632.115 675.032 604 616.137 604 566C604 533.177 629.347 464.737 652 414C664.289 386.475 669.434 358 684 358Z" fill="#707070"/>
<path d="M669.869 382C682.742 382 691.53 410.643 702.8 440.139C721.1 488.017 742.988 531.583 739.24 578.22C739.24 624.377 714.429 668.503 671.101 669.971C627.773 671.439 604 617.11 604 570.953C604 541.136 624.87 478.963 643.521 432.872C653.639 407.868 657.876 382 669.869 382Z" fill="#D7E057"/>
<path d="M328.11 22L424.87 126.667L500 222H316V38L328.11 22Z" fill="#EE6B79"/>
<path d="M316 222L500 219.75V766H316V222Z" fill="#EE6B79"/>
<path d="M321.465 21.475C317.791 23.3428 314.657 26.1225 312.365 29.548C309.101 34.873 308.93 38.136 308.93 94.82V154.597L230.43 154.769C145.577 154.769 142.83 155.113 136.473 163.701C133.038 168.339 132.866 170.915 132.351 223.991C132.007 272.091 132.179 279.816 134.412 281.705C135.958 282.905 138.363 283.423 139.737 282.736C141.97 281.877 142.314 274.319 142.314 226.736C142.314 174.003 142.486 171.598 145.749 168.336C149.012 165.074 151.415 164.897 229.051 164.897H308.923V760.935H142.311V661.135L149.353 652.203C153.304 647.222 159.487 637.087 163.266 629.53L169.793 615.789L227.851 614.932L285.737 614.073V564.261L232.317 563.746L178.897 563.402L177.697 550.002C177.182 542.788 176.151 534.715 175.636 532.138L174.605 527.328L230.086 526.984L285.739 526.469V476.659H165.5L164.985 484.389C164.47 491.775 164.126 491.431 153.82 465.495L143.17 438.871L142.311 382.188C141.452 328.425 141.28 325.505 138.189 324.988C137.333 324.806 136.442 324.871 135.621 325.175C134.8 325.479 134.082 326.01 133.551 326.706C132.692 327.906 132.005 347.833 132.005 371.022V413.105L121.184 390.26C115.344 377.893 108.473 364.838 105.725 361.575C96.965 350.582 81.162 350.41 72.917 361.231C64.329 372.397 27.914 453.986 16.406 487.824C4.038 523.724 0.775 539.697 0.951 563.402C0.951 580.751 1.81 588.137 5.417 601.534C15.208 638.634 38.568 669.726 64.162 679.345L71.892 682.437V760.937L36.336 761.281C3.013 761.796 0.608 761.968 0.0930001 765.06C-0.0890055 765.916 -0.0241775 766.807 0.279947 767.628C0.584071 768.449 1.115 769.167 1.811 769.698C3.011 770.557 176.155 771.244 386.399 771.244C724.266 771.244 769.099 770.9 770.987 768.667C772.705 766.606 772.705 765.575 770.987 763.514C769.269 761.453 763.087 760.937 735.603 760.937H702.274V682.781L714.298 677.113C736.798 666.635 757.755 639.324 767.198 608.062C772.007 591.916 774.928 566.494 773.725 551.55C771.151 523.724 756.725 479.579 731.99 423.411C715.157 385.622 703.477 362.262 699.354 358.483C691.109 351.269 677.368 351.783 669.81 359.514C667.749 361.747 660.71 374.286 654.179 387.514L642.327 411.388L642.155 389.058C641.983 365.182 640.955 361.919 632.364 357.453C629.787 356.253 609.347 355.564 568.464 355.564H508.177V288.746C508.177 251.988 507.662 219.524 507.146 216.603C506.287 212.652 490.828 193.93 452.009 150.303C422.465 116.808 397.043 89.325 395.841 89.325C392.406 89.325 389.141 93.963 390.688 96.539C391.375 97.739 403.742 111.826 417.999 127.973C432.256 143.947 455.616 170.573 470.045 186.889L496.151 216.431V759.217H320.951V397.131C320.951 117.837 321.466 34.531 323.012 32.983C327.822 28.173 332.287 30.922 345.857 46.383C355.82 57.891 360.285 61.842 362.862 61.499C369.904 60.468 367.671 54.457 354.274 39.513C342.422 26.113 333.318 18.729 328.681 18.901C326.203 19.5389 323.788 20.4004 321.465 21.475V21.475ZM96.621 366.213C105.038 373.599 147.292 469.613 158.457 506.891C169.45 543.649 170.996 570.102 163.957 598.271C153.994 637.434 132.18 664.23 103.495 672.646C67.251 683.124 28.945 651.175 15.031 598.614C10.051 580.407 9.707 548.974 14.001 531.282C21.731 498.99 38.907 454.158 63.301 401.941C82.193 361.403 86.143 357.109 96.621 366.213ZM690.421 364.152C695.921 367.244 721.683 421.179 740.921 470.652C766.514 535.924 769.95 569.247 755.693 611.158C746.418 638.126 730.1 658.394 709.316 668.7C699.697 673.338 696.262 674.2 685.097 674.2C673.932 674.2 670.497 673.513 660.362 668.36C619.651 648.427 597.151 587.797 609.52 531.797C616.391 500.535 633.396 455.704 660.192 398.333C675.994 364.667 680.803 359.17 690.422 364.151L690.421 364.152ZM629.787 367.931C631.162 369.305 631.851 379.611 631.851 402.797V435.607L625.667 451.066C622.232 459.483 616.907 473.224 613.815 481.466L608.315 496.753L572.761 496.413C547.855 496.413 536.346 496.928 534.629 498.302C531.537 500.879 531.194 541.072 534.285 544.164C535.659 545.538 545.278 546.225 566.062 546.225H595.778V575.425H566.062C545.278 575.425 535.662 576.112 534.285 577.486C532.908 578.86 532.224 586.418 532.224 600.331C532.224 614.244 532.911 621.802 534.285 623.176C537.033 625.924 603.679 626.096 605.397 623.348C606.084 622.317 609.348 626.612 612.955 633.654C616.562 640.354 622.23 649.285 625.666 653.407L631.851 660.966V760.935H508.177V365.869H567.951C612.096 365.869 628.242 366.384 629.788 367.93L629.787 367.931ZM132.005 715.417V760.935H106.24V721.772L106.412 682.781L118.779 676.597C125.65 673.162 131.318 670.242 131.662 670.07C131.833 670.07 132.005 690.338 132.005 715.417ZM655.897 677.117L667.921 682.785V760.939H642.151V716.279C642.151 691.716 642.666 671.619 643.182 671.619C643.698 671.619 649.37 674.197 655.897 677.112V677.117Z" fill="#414141"/>
<path d="M168.385 308.428C168.063 309.437 167.902 319.09 168.063 329.751L168.546 349.057H281.319V307.275L225.255 306.843C180.146 306.555 169.03 306.843 168.385 308.428Z" fill="#707070" stroke="#414141" stroke-width="8" stroke-linejoin="round"/>
<path d="M168.385 394.428C168.063 395.437 167.902 405.09 168.063 415.751L168.546 435.057H281.319V393.275L225.255 392.843C180.146 392.555 169.03 392.843 168.385 394.428Z" fill="#707070" stroke="#414141" stroke-width="8" stroke-linejoin="round"/>
<path d="M169.066 482.37C168.744 483.379 168.583 493.032 168.744 503.693L169.227 522.999H282V481.217L225.936 480.785C180.827 480.497 169.711 480.785 169.066 482.37Z" fill="#707070" stroke="#414141" stroke-width="8" stroke-linejoin="round"/>
<path d="M172.381 569.684C172.063 570.693 171.903 580.346 172.063 591.007L172.541 610.313H284.001V568.531L228.59 568.099C184.004 567.811 173.018 568.099 172.381 569.684Z" fill="#707070" stroke="#414141" stroke-width="8" stroke-linejoin="round"/>
<path d="M168.385 658.684C168.063 659.693 167.902 669.346 168.063 680.007L168.546 699.313H281.319V657.531L225.255 657.099C180.146 656.811 169.03 657.099 168.385 658.684Z" fill="#707070" stroke="#414141" stroke-width="8" stroke-linejoin="round"/>
<path d="M168.385 217.684C168.063 218.693 167.902 228.346 168.063 239.007L168.546 258.313H281.319V216.531L225.255 216.099C180.146 215.811 169.03 216.099 168.385 217.684Z" fill="#707070" stroke="#414141" stroke-width="8" stroke-linejoin="round"/>
<path d="M356.113 156.534C356.018 170.034 355.971 299.228 356.018 441.922L356.16 700.313H389.319V141.108L372.839 135.323C359.571 131.469 356.303 135.323 356.113 156.534Z" fill="#707070" stroke="#414141" stroke-width="8" stroke-linejoin="round"/>
<path d="M429.113 256.396C429.018 267.416 428.971 372.885 429.018 489.374L429.16 700.313H462.319V243.803L445.839 239.08C432.571 235.932 429.303 239.08 429.113 256.396Z" fill="#707070" stroke="#414141" stroke-width="8" stroke-linejoin="round"/>
<path d="M537.903 422.684C537.717 423.693 537.624 433.346 537.717 444.007L537.996 463.313H602.996V421.531L570.68 421.099C544.682 420.811 538.274 421.099 537.903 422.684Z" fill="#707070" stroke="#414141" stroke-width="8" stroke-linejoin="round"/>
<path d="M535.903 661.37C535.717 662.379 535.624 672.032 535.717 682.693L535.996 701.999H600.996V660.217L568.68 659.785C542.682 659.497 536.274 659.785 535.903 661.37Z" fill="#707070" stroke="#414141" stroke-width="8" stroke-linejoin="round"/>
<path d="M535.903 501.37C535.717 502.379 535.624 512.032 535.717 522.693L535.996 541.999H600.996V500.217L568.68 499.785C542.682 499.497 536.274 499.785 535.903 501.37Z" fill="#707070" stroke="#414141" stroke-width="8" stroke-linejoin="round"/>
<path d="M535.903 581.37C535.717 582.379 535.624 592.032 535.717 602.693L535.996 621.999H600.996V580.217L568.68 579.785C542.682 579.497 536.274 579.785 535.903 581.37Z" fill="#707070" stroke="#414141" stroke-width="8" stroke-linejoin="round"/>
<path d="M79.814 688.997C79.766 690.797 79.742 707.974 79.766 726.95L79.838 761.313H96.643V686.945L88.289 686.176C81.567 685.663 79.91 686.176 79.814 688.997Z" fill="#707070"/>
<path d="M676.057 688.997C676.009 690.797 675.985 707.974 676.009 726.95L676.081 761.313H692.886V686.945L684.532 686.176C677.81 685.663 676.153 686.176 676.057 688.997Z" fill="#707070"/>
</g>
</g>
<defs>
<clipPath id="clip0_1_2">
<rect width="774" height="771.24" fill="white"/>
</clipPath>
<clipPath id="clip1_1_2">
<rect width="774" height="771.241" fill="white"/>
</clipPath>
</defs>
</svg>
