<svg xmlns="http://www.w3.org/2000/svg" xmlns:xlink="http://www.w3.org/1999/xlink" width="800" height="800" viewBox="0 0 800 800">
  <defs>
    <clipPath id="clip-tesa-full">
      <rect width="800" height="800"/>
    </clipPath>
  </defs>
  <g id="tesa-full" clip-path="url(#clip-tesa-full)">
    <path id="Trazado_3" data-name="Trazado 3" d="M757,421s103.9-20.353,100-25.005-55.557.7-70-14.995c-7.615-11.2-22.967-49.421-56.984-30-18.187,10.383-35.363,10.332-46.567,5.08S649.955,365.09,647,371c-3.365,6.73,26.646,19.393,43.1,10,14.991-8.557,12.622,3.384,15.949,8.92.15.263-3.406,36.885,16.963,36.185S757,421,757,421Z" transform="translate(-164 -289)" fill="#373737"/>
    <g id="Elipse_1" data-name="Elipse 1" transform="translate(567 61)" fill="#fff" stroke="#707070" stroke-width="1">
      <circle cx="18" cy="18" r="18" stroke="none"/>
      <circle cx="18" cy="18" r="17.5" fill="none"/>
    </g>
    <g id="Elipse_2" data-name="Elipse 2" transform="translate(503 83.067) rotate(-7)" fill="#fff" stroke="#707070" stroke-width="1">
      <ellipse cx="11" cy="4.5" rx="11" ry="4.5" stroke="none"/>
      <ellipse cx="11" cy="4.5" rx="10.5" ry="4" fill="none"/>
    </g>
    <path id="Trazado_6" data-name="Trazado 6" d="M777,701s19.36,21.857,53.5,10c21.6-7.5,66.5-26.5,66.5-26.5s19.285-10.5,20,6.5c5.237,19.06-43.767,98.863-86.5,143.705C811.354,854.8,793.7,870.208,787,871c-7.233.855,1.766-13.914,17.049-35.163,26.455,3.07,68.471-79.21,78.974-104.837C879.172,712.861,819.5,763.5,787,771s-30-30-30-30Z" transform="translate(-144 -289)" fill="#373737"/>
    <path id="Trazado_9" data-name="Trazado 9" d="M172,614c25-25,42.5-88,85-113s47.5,22.5,100,0,92.5-57.5,110-90-15-35-40-40-37.5-2.5-60,20,0,52.5-30,70-84.362-9.634-90.734,7.208S228.059,486.869,182,577.9c-14.08,19.36-20.768-4.563-30,46.1C153.049,625.02,164.6,621.4,172,614Z" transform="translate(-125.961 -20.169)" fill="#373737"/>
    <path id="Trazado_10" data-name="Trazado 10" d="M834,740c-70.075,147.464-255.46,28.232-290,10s-99.22-49.02-97-69c2.5-22.5,49-36,75-21s115.152,48.691,182,30,50.694-184.076,50-230c0,0,27.316-27.335,40-10C752.386,472.847,854.694,565.155,834,740Z" transform="translate(-199 -322)" fill="#373737"/>
    <g id="arbol-tesa" transform="translate(307.322 92)">
      <line id="Línea_1" data-name="Línea 1" x2="115" transform="translate(60.178 256.5)" fill="none" stroke="#373737" stroke-linecap="round" stroke-width="5"/>
      <line id="Línea_2" data-name="Línea 2" y2="53" transform="translate(118.178 200.5)" fill="none" stroke="#373737" stroke-linecap="square" stroke-width="10"/>
      <path id="Trazado_11" data-name="Trazado 11" d="M555,386s18,10.25,18,22-6.75,22.25-18,25-32.5-7.5-41-18,3-30,13-23S555,386,555,386Z" transform="translate(-436.322 -386)" fill="#c20000"/>
      <path id="Trazado_12" data-name="Trazado 12" d="M547,408s28-.75,28,11-8.75,11.25-20,14-18.5-3.5-27-14a25.194,25.194,0,0,1,0-32C534.75,378.75,547,408,547,408Z" transform="translate(-479.322 -360)" fill="#c20000"/>
      <path id="Trazado_13" data-name="Trazado 13" d="M547,408s25.25,8.25,14,11-17.5,10.5-26,0-6.75-17.75,0-26S547,408,547,408Z" transform="translate(-508.322 -337)" fill="#c20000"/>
      <path id="Trazado_14" data-name="Trazado 14" d="M606.274,454.648c3.42-23.575-27.993-3.588-45.422,0S549.76,465.412,536.556,469s-17.693-2.75-28.521,0-7.755,16.374-21.487,19.124S458.917,474.75,453.107,480s6.866,14.75,16.9,21,13.732,4,23.239,4,3.961-3,14.789-4,14.26,8,28.521,0,16.373-24,28.521-32,22.012,5.836,29.11,16.5,27.893,2.44,27.893,2.44A32.052,32.052,0,0,1,606.274,454.648Z" transform="matrix(0.996, -0.087, 0.087, 0.996, -488.562, -332.861)" fill="#c20000"/>
      <path id="Trazado_15" data-name="Trazado 15" d="M547,408s25.25,8.25,14,11-17.5,10.5-26,0-6.75-17.75,0-26S547,408,547,408Z" transform="translate(-366.322 -343)" fill="#c20000"/>
      <path id="Trazado_16" data-name="Trazado 16" d="M584.658,456.731c-17.429,3.588-42.709,29.213-56.954,19.936s-78.523,7.834-68.488,14.084,38.279,21.418,50.246-.623,44.082,23.933,59.772,5.229S618.581,470.565,633.471,461,602.087,453.143,584.658,456.731Z" transform="matrix(0.996, -0.087, 0.087, 0.996, -471.562, -280.861)" fill="#c20000"/>
      <path id="Trazado_17" data-name="Trazado 17" d="M542,417.641s24.706,6.826,37.054,13.649S566.25,430.25,555,433s-18.5-3.5-27-14-24.286-26.294-20.785-26.634S542,417.641,542,417.641Z" transform="matrix(0.809, -0.588, 0.588, 0.809, -570.294, 160.702)" fill="#c20000"/>
    </g>
    <g id="tesa" transform="translate(159.511 1061)">
      <path id="Trazado_11-2" data-name="Trazado 11" d="M103.519-456.05c-27.072.416-53.016.831-57.587.95l-8.312.178-3.681,18.107C31.92-426.841,30.377-418.351,30.5-418c.178.594,4.749.772,19.948.772H70.094l-.416,2.2C67.245-400.3,49.968-285.6,50.206-285.307c.119.3,14.783.475,32.593.475,29.8,0,32.356-.059,32.712-1.009.237-.534,4.69-30.515,9.914-66.611l9.558-65.661,16.742-.3c9.2-.178,16.861-.475,17.1-.712.416-.416,5.581-34.2,5.64-36.571V-457l-10.805.059C157.662-456.881,130.65-456.466,103.519-456.05Z" transform="translate(0 0)" fill="#0a960f" stroke="#272727" stroke-linecap="round" stroke-linejoin="round" stroke-width="8"/>
      <path id="Trazado_12-2" data-name="Trazado 12" d="M415.85-387.252c-6.056.475-6.946.831-9.915,4.1-2.553,2.85-2.315,2.018-4.868,15.258-5.165,26.538-7.184,41.32-6.293,46.01.95,4.868,3.146,8.252,6.887,10.449l2.434,1.425h42.923l-.3,1.306c-.3,1.365-3.265,24.341-3.265,25.35,0,.712-5.106,2.434-7.065,2.434-2.434-.059-6.59-2.137-6.59-3.384,0-.594.534-4.571,1.187-8.786.653-4.275,1.187-7.9,1.187-8.193,0-.237-8.43-.416-18.7-.416-18.582,0-18.642,0-19.888,1.306-3.681,3.859-5.937,12.942-6.352,25.41-.356,10.508.178,12.824,3.443,14.783,3.8,2.315,8.133,2.553,43.576,2.315,31.287-.178,34.077-.237,36.808-1.306,4.1-1.484,5.878-2.909,7.124-5.521.594-1.247,3.028-12.527,5.462-25.113,4.156-21.966,4.334-23.035,3.74-27.25-1.069-7.837-3.562-11.339-9.5-13.417-2.2-.772-5.106-.831-19.592-.534-9.321.237-17.989.237-19.235,0l-2.315-.416.416-4.453c.416-4.393,2.493-18.107,3.028-19.888.772-2.434,8.43-3.859,12.408-2.315,1.781.653,1.781.653.712,6.827a52.875,52.875,0,0,0-1.009,10.508c.059,1.009,1.425,1.069,20.541,1.069,11.28,0,20.482-.059,20.482-.178,0-.059,1.069-6.293,2.375-13.773,2.434-14.07,2.85-20.007,1.722-23.51a12.5,12.5,0,0,0-5.878-7.065c-5.106-2.612-8.252-2.85-40.074-3.147C434.848-387.549,418.819-387.49,415.85-387.252Z" transform="translate(-144.913 -28.249)" fill="#0a960f" stroke="#272727" stroke-linecap="round" stroke-linejoin="round" stroke-width="8"/>
      <path id="Trazado_13-2" data-name="Trazado 13" d="M588.332-387.218C587.857-386.565,565-259.576,565-257.439c0,.594,3.918.712,19.176.594,18.285-.178,19.235-.237,21.491-1.484,5.7-3.028,6.649-5.4,10.627-27.487,1.84-9.915,3.562-18.285,3.859-18.582.95-.95,5.106-1.128,8.549-.416a14.5,14.5,0,0,1,3.384.891c0,.178-1.6,10.33-3.562,22.619s-3.562,22.857-3.562,23.45c0,1.069.831,1.128,22.263,1.128,17.276,0,22.382-.178,22.56-.712.178-.416,4.334-26.716,9.261-58.359,6.352-40.845,8.846-58.418,8.608-60.437-.594-5.64-3.5-8.49-10.33-10.271-3.562-.95-8.312-1.069-46.189-1.247C597.059-387.93,588.807-387.811,588.332-387.218Zm52.66,27.962c1.484.712,2.612,1.6,2.612,1.9-.059.356-1.128,4.512-2.315,9.321l-2.256,8.787h-7.6c-4.631,0-7.659-.237-7.659-.594,0-1.781,3.8-17.632,4.393-18.226.772-.831,6.412-2.434,8.668-2.493A10.2,10.2,0,0,1,640.991-359.255Z" transform="translate(-217.181 -28.106)" fill="#0a960f" stroke="#272727" stroke-linecap="round" stroke-linejoin="round" stroke-width="8"/>
      <path id="Trazado_14-2" data-name="Trazado 14" d="M265.062-384.49c-21.016.831-36.868,2.315-38.53,3.681-2.612,2.2-6.234,13.773-8.905,28.853-3.978,21.966-8.668,63.583-8.727,76.882-.059,7.659,2.375,13.3,6.649,15.5,6.293,3.147,24.994,5.046,44.17,4.453q25.558-.8,32.059-5.165c3.206-2.137,6-8.252,7.718-16.92,1.959-9.677,3.384-21.135,2.731-21.788-.594-.594-36.571-.3-37.224.3a11.463,11.463,0,0,0-.891,3.5c-.891,5.462-2.375,9.558-4.1,11.28-1.484,1.484-2.137,1.722-5.224,1.722-5.106,0-7.243-.891-7.243-2.968,0-1.84,2.2-19.413,2.731-22.144l.356-1.6h26.6c14.961,0,26.775-.237,26.953-.534.416-.653,4.512-23.925,6.649-37.758a128.754,128.754,0,0,0,1.662-17.276c.059-6.53.059-6.59-2.434-11.577-2.85-5.759-4.512-7.54-7.718-8.312C300.326-384.846,275.689-384.906,265.062-384.49Zm6.53,27.725c1.128.475,2.078,1.247,2.078,1.662,0,.891-2.256,15.02-2.672,16.92-.3,1.306-.534,1.365-7.124,1.365-6.827,0-6.827,0-6.53-1.365.178-.712.831-4.928,1.484-9.321.712-4.393,1.365-8.074,1.484-8.193a14.636,14.636,0,0,1,2.493-1.009A12.776,12.776,0,0,1,271.592-356.765Z" transform="translate(-72.491 -29.349)" fill="#0a960f" stroke="#272727" stroke-linecap="round" stroke-linejoin="round" stroke-width="8"/>
    </g>
  </g>
</svg>
