<svg width="222" height="222" viewBox="0 0 222 222" fill="none" xmlns="http://www.w3.org/2000/svg">
<circle cx="111" cy="111" r="111" fill="#D9D9D9"/>
<path d="M118.937 164.689C118.937 174.422 122.372 183.338 128.057 190.199C122.657 191.253 117.082 191.803 111.389 191.803C88.1469 191.803 66.9602 182.657 51 167.642V167.589C51 142.617 65.0862 121.06 85.4625 111C93.1204 118.924 102.087 123.193 111.389 123.193C120.696 123.193 129.658 118.924 137.32 111C144.472 114.531 150.849 119.477 156.111 125.494C135.553 125.835 118.937 143.285 118.937 164.689Z" fill="#1EA6C6"/>
<path d="M188.5 163.5C188.5 180.621 174.621 194.5 157.5 194.5C140.379 194.5 126.5 180.621 126.5 163.5C126.5 146.379 140.379 132.5 157.5 132.5C174.621 132.5 188.5 146.379 188.5 163.5Z" fill="#28BF28" stroke="#F2F2F2" stroke-width="5"/>
<path d="M156 164H172" stroke="white" stroke-width="5" stroke-linecap="round"/>
<path d="M166 144L156 164" stroke="white" stroke-width="5" stroke-linecap="round"/>
<path d="M80.9888 71.3883C104.126 44.9477 127.269 43.6226 127.269 43.6226C133.79 46.9406 121.778 56.434 121.778 56.434C132.188 56.434 138.25 49.1133 138.25 49.1133C138.25 49.1133 141.947 57.384 141.947 69.4522C141.947 80.944 141.052 93.5851 132.384 101.813C129.273 104.766 125.612 107.039 122.075 109.438C118.537 111.837 115.418 115 110.834 115C106.249 115 103.131 111.837 99.5928 109.438C96.0552 107.039 92.4129 104.746 89.2852 101.813C80.7216 93.79 79.7368 80.0854 79.6875 74.9169C79.6747 73.6231 80.1359 72.3621 80.9888 71.3883Z" fill="#FDD7AD"/>
<path d="M144.946 39.2045C142.92 34.631 140.18 32.3138 138.985 31.3365C138.539 30.9704 138.284 30.4105 138.3 29.8321C138.548 21.3987 141.946 18 141.946 18L102.5 21C87.1263 21 90 30.5 77.5366 37.0156C73.0855 49.7994 76 70.5 76 70.5L77.5 73C78 69 80.5932 71.8403 80.9886 71.3883C104.126 44.9477 127.269 43.6226 127.269 43.6226C133.789 46.9406 121.778 56.434 121.778 56.434C132.188 56.434 138.25 49.1133 138.25 49.1133C138.25 49.1133 141.947 57.384 141.947 69.4522C141.947 70.5925 141.934 71.7473 141.91 72.9057H141.947L144.946 76C149.294 65.5787 148.67 47.6069 144.946 39.2045Z" fill="#6C4844"/>
</svg>
